<svg width="1024" height="1536" viewBox="0 0 1024 1536" fill="none" xmlns="http://www.w3.org/2000/svg">
<g clip-path="url(#clip0_22_724)">
<path d="M603.21 462.714C608.178 457.239 613.304 449.165 617.746 443.053C625.079 432.948 632.788 423.122 640.858 413.595C675.228 373.441 718.647 335.267 765.353 310.288C795.401 294.219 806.732 298.974 818.856 330.201C837.705 378.747 843.918 436.825 841.858 488.7C839.986 535.861 822.243 593.423 798.516 633.794C808.41 650.188 814.22 666.264 816.361 685.639C816.79 689.524 815.269 700.454 817.414 702.349C834.564 702.499 848.663 699.794 848.481 723.154C848.358 738.959 844.242 750.742 837.802 764.959C852.728 771.043 867.15 778.347 872.765 794.503C885.546 831.282 871.931 887.428 857.447 921.923C831.923 982.714 794.363 1034.74 733.874 1063.27C736.212 1081.46 739.689 1098.93 741.336 1117.37C745.918 1173.84 740.719 1230.68 725.967 1285.38C721.112 1303.49 714.769 1318.09 710.236 1334C717.787 1342.32 722.224 1347.32 728.082 1356.8C741.524 1357.23 775.279 1364.77 784.612 1374.82C785.96 1376.27 786.966 1378 786.84 1380.04C786.66 1382.96 784.151 1385.51 781.959 1387.24C767.844 1398.38 744.669 1401.65 727.389 1404.97C669.987 1415.99 612.39 1418.96 554.046 1420.04C495.845 1421.11 437.054 1419.97 379.199 1413.17C358.421 1410.73 277.281 1400.63 266.001 1385.15C264.925 1383.67 264.25 1381.84 264.618 1380C267.454 1365.83 316.454 1357.4 328.236 1355.38C331.868 1354.75 342.625 1354.14 344.985 1352.19C345.186 1352.02 345.372 1351.84 345.566 1351.67C342.39 1336.19 340.181 1319.83 337.05 1305.02C297.705 1324.32 255.068 1331.07 212.406 1317.33C180.377 1307.01 150.127 1278.16 135.535 1248.09C125.678 1228.11 120.092 1206.31 119.133 1184.05C117.218 1146.49 131.894 1101.65 87.1404 1088.74C78.8184 1086.34 57.3196 1082.03 63.3255 1069.93C70.7186 1053.39 92.0082 1041.23 107.965 1034.13C146.039 1016.9 189.422 1015.6 228.462 1030.51C264.5 1044.48 287.23 1068.01 303.622 1103.28C311.189 1119.57 314.09 1137.96 326.644 1151.59C329.012 1122.79 336.07 1087.31 341.079 1058.55C331.383 1050.67 321.017 1042.91 311.606 1034.79C283.194 1010.25 256.261 982.923 229.731 956.309C207.586 934.095 142.669 879.966 166.43 844.992C166.025 822.117 188.785 804.212 209.187 798.708C201.306 789.526 196.739 780.208 195.432 768.074C194.953 763.629 195.26 760.293 192.963 756.401C193.4 754.893 193.996 753.327 195.64 752.985C211.962 749.591 220.806 745.519 234.203 734.814C232.342 725.962 233.157 720.171 239.757 714.019C244.842 709.279 256.183 706.563 254.021 699.321C252.712 694.935 237.541 681.095 234.328 677.427C225.033 666.616 216.499 655.174 208.786 643.183C162.756 570.047 155.409 478.201 172.619 394.983C175.93 378.968 187.53 326.928 205.976 322.159C222.014 318.012 257.133 335.756 271.557 343.539C310.944 366.172 348.013 397.095 378.991 430.156C392.629 444.711 403.824 459.333 416.456 473.26C426.687 470.497 437.935 466.281 447.822 464.227C500.192 453.345 551.002 449.594 603.21 462.714Z" fill="#482C1D"/>
<path d="M577.456 1346.12C578.848 1352.71 580.359 1359.26 581.824 1365.82C586.129 1385.1 604.992 1388.85 621.854 1392.36C645.531 1397.3 670.163 1398.14 693.922 1392.76C710.435 1388.92 726.86 1385.66 731.774 1367.35C730.689 1363.69 729.794 1360.24 728.081 1356.8C741.523 1357.23 775.278 1364.77 784.611 1374.82C785.959 1376.27 786.965 1378 786.839 1380.04C786.659 1382.96 784.15 1385.51 781.958 1387.24C767.843 1398.38 744.668 1401.65 727.388 1404.97C669.986 1415.99 612.389 1418.96 554.045 1420.04C495.844 1421.11 437.053 1419.97 379.198 1413.17C358.42 1410.73 277.28 1400.63 266 1385.15C264.924 1383.67 264.249 1381.84 264.617 1380C267.453 1365.83 316.453 1357.4 328.235 1355.38C331.867 1354.75 342.624 1354.14 344.984 1352.19C345.185 1352.02 345.371 1351.84 345.565 1351.67C347.758 1364.1 347.636 1380.56 359.381 1387.71C388.464 1405.44 424.244 1406.58 457.026 1401.55C485.43 1397.19 502.29 1377.49 483.384 1351.15C510.608 1344.33 547.803 1346.42 575.847 1348.79C577.338 1347.88 576.854 1348.31 577.456 1346.12Z" fill="#EFD8B7"/>
<path d="M500.024 1289.39C518.159 1291.23 545.138 1289.51 562.956 1288.18C564.699 1293.21 566.857 1303.25 568.222 1308.85C571.234 1321.29 574.312 1333.72 577.455 1346.12C576.853 1348.31 577.337 1347.88 575.846 1348.79C547.802 1346.42 510.607 1344.33 483.383 1351.15C482.764 1349.91 482.09 1348.47 482.439 1347.04C484.737 1337.67 487.646 1328.21 490.672 1319.05C493.92 1309.21 496.538 1299.11 500.024 1289.39Z" fill="#FFFDE9"/>
<path d="M304.814 889.606C333.886 916.838 354.355 944.101 372.604 979.172C375.562 984.856 380.377 990.207 383.671 995.725C386.6 1000.33 389.371 1008.97 393.496 1012.48L393.504 1007.77L394.497 1006.94C396.243 1007.4 406.615 1014.86 411.102 1017.17C410.258 1028.26 409.44 1040.68 407.59 1051.6C403.453 1073.81 391.559 1116.73 393.658 1136.21C389.348 1141.71 386.179 1149.04 385.196 1155.89C381.983 1178.27 389.516 1192.47 413.43 1185.22C423.805 1202.36 433.687 1200.54 449.618 1191.11C459.265 1205.85 473.259 1206.34 485.499 1194.32C502.862 1210.45 527.248 1191.18 524.841 1172.06C522.642 1154.58 524.97 1151.28 527.408 1134.23C529.827 1117.31 532.549 1096.67 532.594 1079.71C532.772 1068.27 532.795 1056.83 532.664 1045.39C548.501 1045.83 565.893 1047.87 581.626 1046.87C620.313 1044.42 686.611 1033.43 713.56 1003.28C715.741 1005.83 718.591 1008.83 719.909 1011.82C716.84 1012.33 714.602 1012.4 712.119 1014.2C710.87 1016.07 710.812 1016.13 710.869 1018.3C715.395 1048.19 721.333 1077.2 724.929 1107.77C731.86 1166.7 726.758 1227.13 710.284 1284.17C708.321 1290.97 705.126 1297.19 703.48 1304.18C684.469 1313.18 613.516 1318.72 591.781 1316.11C589.605 1316.31 587.515 1315.86 585.337 1315.55C583.105 1306.07 581.112 1296.08 579.056 1286.53C596.983 1283.14 625.969 1278.87 639.59 1267.86C641.946 1264.31 643.692 1261.97 643.293 1257.51C640.497 1253.16 635.359 1257.43 631.359 1258.77C607.45 1266.77 580.885 1271.88 555.748 1273.39C545.169 1273.98 534.577 1274.3 523.982 1274.35C515.935 1274.37 496.132 1272.29 490.218 1274.67C486.887 1277.82 478.817 1308.02 476.416 1315.26C473.572 1321.61 464.474 1346.25 467.563 1352.52C472.176 1361.87 484.964 1379.63 466.915 1383.92C462.856 1382.05 457.251 1360.14 447.048 1357.13C444.378 1357.88 445.35 1357.27 443.471 1359.74C443.835 1363.86 448.314 1365.84 449.665 1369.08C452.21 1375.17 451.46 1380.42 454.838 1386.59C445.167 1387.61 436.999 1388.45 427.236 1388.76C428.207 1381.07 425.313 1362.64 417.725 1359.59C414.981 1359.88 415.994 1359.43 413.915 1361.28C412.489 1365.56 415 1381.75 415.388 1387.91C405.339 1387.58 367.127 1385.43 364.976 1373.63C361.049 1352.07 356.174 1329.72 353.32 1308.02C352.003 1295.93 348.571 1283.65 347.17 1271.99C344.543 1250.15 341.885 1226.84 340.46 1204.91C337.057 1152.52 348.467 1102.94 357.404 1051.95C321.991 1026.33 290.84 996.828 260.176 965.858C256.174 961.817 252.028 958.693 248.421 954.19C247.657 951.83 247.282 951.225 247.501 948.83C251.332 943.552 265.906 942.6 272.609 937.299C288.617 924.637 296.423 907.443 304.814 889.606Z" fill="#FFFDE9"/>
<path d="M353.32 1308.02C388.604 1315.83 413.122 1322.67 450.595 1318.63C458.981 1317.72 468.133 1317.6 476.416 1315.26C473.572 1321.61 464.474 1346.25 467.563 1352.52C472.176 1361.87 484.964 1379.63 466.915 1383.92C462.856 1382.05 457.251 1360.14 447.048 1357.13C444.378 1357.88 445.35 1357.27 443.471 1359.74C443.835 1363.86 448.314 1365.84 449.665 1369.08C452.21 1375.17 451.46 1380.42 454.838 1386.59C445.167 1387.61 436.999 1388.45 427.236 1388.76C428.207 1381.07 425.313 1362.64 417.725 1359.59C414.981 1359.88 415.994 1359.43 413.915 1361.28C412.489 1365.56 415 1381.75 415.388 1387.91C405.339 1387.58 367.127 1385.43 364.976 1373.63C361.049 1352.07 356.174 1329.72 353.32 1308.02Z" fill="#FE5D5A"/>
<path d="M532.666 1045.39C548.503 1045.83 565.895 1047.87 581.628 1046.87C620.315 1044.42 686.613 1033.43 713.562 1003.28C715.743 1005.83 718.593 1008.83 719.911 1011.82C716.842 1012.33 714.604 1012.4 712.121 1014.2C710.872 1016.07 710.814 1016.13 710.871 1018.3C665.306 1053.89 601.938 1073.07 544.283 1072.44C540.275 1075.58 537.414 1077.99 532.596 1079.71C532.774 1068.27 532.797 1056.83 532.666 1045.39Z" fill="#EFD8B7"/>
<path d="M639.591 1267.86C634.88 1284.82 606.862 1307.13 591.782 1316.11C589.606 1316.31 587.516 1315.86 585.338 1315.55C583.106 1306.07 581.113 1296.08 579.057 1286.53C596.984 1283.14 625.97 1278.87 639.591 1267.86Z" fill="#EFD8B7"/>
<path d="M393.496 1012.48L393.504 1007.77L394.497 1006.94C396.243 1007.4 406.615 1014.86 411.102 1017.17C410.258 1028.26 409.44 1040.68 407.59 1051.6C407.169 1045.42 404.366 1036.52 402.737 1030.52C402.134 1028.3 394.788 1013.17 393.496 1012.48Z" fill="#EFD8B7"/>
<path d="M413.407 491.059C422.29 487.735 436.406 482.06 445.419 479.886C493.593 468.268 549.399 466.654 598.035 476.003C606.689 477.667 629.869 486.076 637.656 489.618C674.091 506.584 705.892 532.09 730.358 563.971C738.373 574.324 744.711 584.57 751.836 595.446C719.106 583.851 688.394 581.817 656.126 597.169C629.08 610.191 608.37 633.49 598.612 661.872C596.541 667.791 594.419 675.605 593.583 681.824C570.569 669.211 548.071 672.828 526.422 686.172C515.204 656.853 503.183 636.955 474.851 621.588C442.829 604.219 406.151 602.22 372.151 615.004C332.054 630.082 308.484 665.752 297.404 705.449C285.315 703.53 276.268 702.523 263.961 704.053C264.749 671.154 278.035 640.085 294.187 611.732C296.84 607.075 305.377 602.345 305.381 596.658C303.567 594.836 293.397 593.002 292.086 592.836C275.089 590.683 259.69 569.854 270.399 555.841C291.798 550.556 305.447 561.871 281.695 532.34C264.446 510.894 261.754 482.971 302.133 495.203C333.944 504.839 331.862 512.818 351.082 533.902C354.021 532.562 354.412 530.987 356.42 527.984C366.324 520.484 401.588 490.071 413.407 491.059Z" fill="#FFFDE9"/>
<path d="M410.294 571.652C419.715 570.915 428.024 571.353 435.127 578.819C436.241 579.99 436.002 580.517 435.794 581.939C430.435 587.93 419.79 583.465 407.917 588.138C402.589 590.822 392.699 599.96 387.887 593.082C386.502 581.463 401.03 574.119 410.294 571.652Z" fill="#482C1D"/>
<path d="M658.152 556.673C658.76 556.616 659.371 556.586 659.982 556.584C668.627 556.561 686.551 562.244 686.602 572.742C683.861 577.668 678.545 573.963 674.676 572.061C663.347 567.424 660.003 570.799 648.497 569.878C645.793 569.661 644.823 568.538 643.557 566.698C643.676 559.258 652.492 557.655 658.152 556.673Z" fill="#482C1D"/>
<path d="M815.29 716.61C822.811 718.79 826.275 718.781 834.092 718.953C833.418 742.115 826.583 753.968 815.126 772.655C788.025 770.993 756.006 823.657 754.791 847.042C754.734 848.176 754.722 849.313 754.754 850.448C755.01 855.818 755.225 861.189 755.401 866.561C736.336 886.691 714.31 902.846 687.185 914.119C564.546 965.086 400.889 949.017 296.525 864.456C291.118 860.075 284.44 847.462 281.412 840.945C277.538 833.818 273.701 826.689 267.996 820.844C242.289 794.505 224.274 804.134 207.631 764.515C227.606 762.77 235.479 752.463 252.381 741.462C265.272 742.22 285.715 742.916 298.108 744.788C309.02 779.356 312.49 788.058 341.429 812.454C357.429 824.649 385.227 832.636 404.93 835.967C435.924 836.858 458.85 828.218 484.299 810.25C490.484 805.882 498.754 797.747 504.17 794.163C505.624 822.578 506.28 857.278 529.205 877.924C538.273 886.174 550.299 890.398 562.536 889.632C599.922 887.156 614.409 835.757 616.298 804.836C625.332 798.857 627.882 796.755 633.701 787.228C658.753 806.571 691.52 813.708 722.623 810.336C741.371 808.304 780.143 783.624 791.284 768.7C802.479 753.703 812.446 735.356 815.29 716.61Z" fill="#FFFDE9"/>
<path d="M281.412 840.945L282.221 841.142C292.604 843.726 311.383 854.874 321.354 860.032C337.621 868.448 354.031 877.707 370.966 884.925C405.87 899.666 442.168 912.694 479.893 918.071C543.987 927.207 615.009 921.131 675.601 897.909C703.31 887.289 731.548 868.548 754.754 850.448C755.01 855.818 755.225 861.189 755.401 866.561C736.336 886.691 714.31 902.846 687.185 914.119C564.546 965.086 400.889 949.017 296.525 864.456C291.118 860.075 284.44 847.462 281.412 840.945Z" fill="#EFD8B7"/>
<path d="M341.43 812.454C357.43 824.649 385.228 832.636 404.931 835.967C389.882 838.759 373.549 833.454 359.91 827.092C353.75 824.218 343.761 819.014 341.43 812.454Z" fill="#FE5D5A"/>
<path d="M80.6699 1069.48C90.135 1059.17 111.723 1049.1 124.761 1044.39C160.066 1031.64 198.18 1031.73 232.129 1048.47C256.796 1060.63 270.402 1074.97 284.185 1098.69C288.321 1105.81 292.447 1112.12 295.213 1120.04C297.663 1131.79 306.438 1152.43 314.406 1161.49C317.739 1165.28 321.722 1168.46 325.467 1171.9C324.78 1193.02 325.48 1210.42 327.44 1231.37C330.3 1248.83 328.979 1270.99 336.847 1287.21C325.67 1293.43 314.237 1299.04 302.086 1303.11C270.081 1313.96 235.088 1311.74 204.704 1296.95C181.959 1285.61 169.256 1271.73 155.372 1250.58C147.009 1237.83 143.549 1226.62 138.745 1212.16C135.806 1199.28 134.337 1186.11 134.366 1172.9C134.328 1148.53 139.298 1130.12 129.008 1105.6C119.272 1082.4 102.632 1078.11 80.6699 1069.48Z" fill="#FFFDE9"/>
<path d="M80.6699 1069.48C90.135 1059.17 111.723 1049.1 124.761 1044.39C160.066 1031.64 198.18 1031.73 232.129 1048.47C256.796 1060.63 270.402 1074.97 284.185 1098.69C288.321 1105.81 292.447 1112.12 295.213 1120.04C284.575 1119.17 265.71 1109.28 255.068 1104.43C262.351 1123.01 270.553 1151.55 247.574 1162.42C238.208 1166.85 212.683 1147.12 204.384 1141.54C208.523 1159.81 210.9 1178.11 200.52 1195.05C193.326 1206.8 180.99 1205.24 170.941 1198.33C162.107 1192.26 155.951 1181.93 148.292 1174.63C148.562 1184.48 149.122 1192.72 145.527 1202.15C143.525 1207.28 143.335 1209.23 138.745 1212.16C135.806 1199.28 134.337 1186.11 134.366 1172.9C134.328 1148.53 139.298 1130.12 129.008 1105.6C119.272 1082.4 102.632 1078.11 80.6699 1069.48Z" fill="#FE5D5A"/>
<path d="M145.526 1202.15C159.288 1229.88 171.743 1247.6 201.586 1259.89C244.885 1277.71 298.68 1271.32 327.439 1231.37C330.299 1248.83 328.978 1270.99 336.846 1287.21C325.669 1293.43 314.236 1299.04 302.085 1303.11C270.08 1313.96 235.087 1311.74 204.703 1296.95C181.958 1285.61 169.255 1271.73 155.371 1250.58C147.008 1237.83 143.548 1226.62 138.744 1212.16C143.334 1209.23 143.524 1207.28 145.526 1202.15Z" fill="#EFD8B7"/>
<path d="M408.71 618.029C465.766 614.95 514.458 658.819 517.312 715.873C520.165 772.926 476.092 821.432 419.014 824.058C362.255 826.669 314.068 782.907 311.231 726.173C308.393 669.439 351.974 621.091 408.71 618.029Z" fill="#FEC538"/>
<path d="M324.046 710.142C324.265 689.051 340.331 662.15 357.724 649.615C397.832 620.712 453.146 621.207 485.903 661.123C488.597 664.405 490.964 669.379 490.16 673.679C498.489 689.071 499.607 695.575 502.928 712.8C504.949 721.503 504.641 735.071 503.05 743.824C500.679 756.861 489.451 779.695 475.601 783.342C453.769 801.318 442.277 804.472 415.133 808.282C409.302 810.646 404.694 810.716 398.359 810.117C378.927 808.277 356.569 800.63 343.804 785.353C338.58 779.101 332.812 767.847 333.532 759.608L328.073 744.142C322.045 736.223 322.19 719.705 324.046 710.142Z" fill="#482C1D"/>
<path d="M324.046 710.142C324.265 689.051 340.331 662.15 357.724 649.615C397.832 620.712 453.146 621.207 485.903 661.123C488.597 664.405 490.964 669.379 490.16 673.679C483.407 665.096 476.883 656.965 467.675 650.884C435.698 629.77 387.578 633.88 357.721 657.041C335.228 674.49 326.819 699.759 325.846 727.178C326.639 732.803 327.115 738.58 328.073 744.142C322.045 736.223 322.19 719.705 324.046 710.142Z" fill="#E6923D"/>
<path d="M333.532 759.608C352.058 794.212 376.979 806.008 415.133 808.282C409.302 810.646 404.694 810.716 398.359 810.117C378.927 808.277 356.569 800.63 343.804 785.353C338.58 779.101 332.812 767.847 333.532 759.608Z" fill="#E6923D"/>
<path d="M502.929 712.8C504.95 721.503 504.642 735.071 503.051 743.824C500.68 756.861 489.452 779.695 475.602 783.342C495.89 761.626 503.295 742.685 502.929 712.8Z" fill="#E6923D"/>
<path d="M412.153 649.791C413.031 649.712 413.91 649.646 414.789 649.596C482.171 645.784 513.391 719.803 471.017 769.653C459.358 783.37 436.46 794.32 418.375 795.042C377.611 795.932 342.842 773.859 338.515 730.737C336.63 711.494 342.426 692.285 354.639 677.293C368.363 660.703 391.088 651.777 412.153 649.791Z" fill="#FFFDE9"/>
<path d="M414.515 696.179C415.501 696.093 416.489 696.044 417.478 696.031C442.281 695.645 469.364 709.945 472.074 737.645C472.448 741.469 468.169 748.665 464.203 747.909C455.274 746.207 451.468 733.272 446.012 727.146C438.588 718.551 432.909 716.725 422.001 715.639C402.43 717.777 396.07 728.322 388.419 745.383C386.404 754.989 370.186 758.164 369.899 747.032C369.191 719.538 391.375 699.949 414.515 696.179Z" fill="#482C1D"/>
<path d="M256.532 678.797C239.996 663.158 225.836 645.186 214.501 625.452C172.303 552.12 170.433 459.616 191.383 379.372C193.983 369.416 200.163 343.942 209.707 337.99C215.053 334.656 229.6 340.827 235.753 343.248C272.811 357.829 304.615 383.814 334.774 409.227C343.083 416.251 353.729 425.422 361.139 433.193C372.065 444.718 382.788 456.503 393.31 468.379C397.465 473.07 408.361 489.707 413.406 491.059C401.587 490.071 366.323 520.484 356.419 527.984C355.929 518.534 349.199 509.498 343.655 500.961C320.496 465.294 289.761 431.217 254.4 407.38C250.289 404.609 235.212 397.952 232.28 404.18C232.415 406.993 233.323 407.729 235.088 409.836C238.792 411.231 245.039 416.472 248.546 419.208C275.617 440.586 300.076 465.077 321.416 492.175C306.692 484.642 271.744 467.898 259.477 490.296C251.048 505.686 263.089 526.77 271.834 540.362C265.484 541.719 261 543.44 257.562 549.232C249.038 563.592 253.308 588.304 267.952 597.334C272.949 600.416 281.263 603.213 286.758 605.273C277.078 614.903 269.596 631.943 265.462 644.91C263.163 655.631 259.026 667.112 256.532 678.797Z" fill="#FE5D5A"/>
<path d="M235.088 409.836C238.792 411.231 245.039 416.472 248.546 419.208C275.617 440.586 300.076 465.077 321.416 492.175C306.692 484.642 271.744 467.898 259.477 490.296C251.048 505.686 263.089 526.77 271.834 540.362C265.484 541.719 261 543.44 257.562 549.232C249.038 563.592 253.308 588.304 267.952 597.334C272.949 600.416 281.263 603.213 286.758 605.273C277.078 614.903 269.596 631.943 265.462 644.91C265.028 644.475 264.605 644.028 264.194 643.571C259.008 637.834 251.672 625.441 248.161 618.425C226.156 574.456 216.18 519.881 218.556 470.963C219.223 457.236 221.804 429.5 228.265 417.28C229.563 414.824 232.989 411.744 235.088 409.836Z" fill="#E04742"/>
<path d="M702.925 598.131C757.774 597.149 803.129 640.616 804.467 695.444C805.804 750.271 762.622 795.897 707.79 797.589C652.455 799.297 606.306 755.64 604.956 700.308C603.607 644.976 647.572 599.122 702.925 598.131Z" fill="#FEC538"/>
<path d="M622.837 725.25C609.93 714.064 615.95 680.942 621.44 666.637C629.814 645.015 646.376 627.565 667.535 618.072C681.48 611.898 713.167 603.981 726.577 610.608C735.225 614.882 754.791 625.707 758.852 634.991C786.764 658.297 796.793 696.752 783.816 730.715C770.839 764.679 737.72 786.656 701.375 785.422C665.03 784.188 633.479 760.016 622.837 725.25Z" fill="#482C1D"/>
<path d="M622.837 725.25C609.93 714.064 615.95 680.942 621.44 666.637C629.814 645.015 646.376 627.565 667.535 618.072C681.48 611.898 713.167 603.981 726.577 610.608C735.225 614.882 754.791 625.707 758.852 634.991C729.929 610.842 688.569 608.568 657.172 629.403C625.775 650.238 611.809 689.225 622.837 725.25Z" fill="#E6923D"/>
<path d="M700.029 627.787C739.895 625.488 774.138 655.802 776.681 695.644C779.224 735.486 749.113 769.905 709.278 772.692C669.096 775.502 634.303 745.079 631.738 704.891C629.173 664.702 659.815 630.105 700.029 627.787Z" fill="#FFFDE9"/>
<path d="M697.042 674.527C719.858 672.788 745.537 697.12 736.425 721.039C735.844 722.564 733.166 724.863 731.294 725.129C725.248 725.985 721.98 716.727 718.59 712.902C710.419 700.227 701.4 695.741 686.377 699.152C667.014 707.811 669.817 719.654 653.921 727.855C652.298 728.517 649.911 728.331 648.513 727.34C640.382 721.577 652.154 704.712 656.255 699.671C667.364 686.015 679.001 676.506 697.042 674.527Z" fill="#482C1D"/>
<path d="M616.943 469.553C620.975 463.089 626.058 456.969 630.693 450.876C667.03 403.113 711.545 359.199 763.767 329.076C771.883 324.395 787.023 314.056 796.083 317.957C798.922 320.607 801.987 327.372 803.665 331.117C818.824 364.941 825.099 409.907 826.693 446.721C829.157 503.635 819.033 571.32 788.953 620.577C783.826 615.748 779.458 611.812 773.719 607.667C764.627 601.911 758.479 588.718 753.468 579.151C770.187 568.411 771.587 545.994 764.87 528.924C761.539 526.834 757.097 524.978 753.453 523.325C756.017 519.489 758.623 515.668 760.706 511.642C769.934 493.801 768.487 466.639 745.443 460.929C735.046 458.352 726.45 458.912 716.339 462.402C729.848 437.258 762.143 404.288 781.699 382.844C782.995 380.753 784.174 379.496 783.924 377.159C782.289 374.902 783.188 375.559 780.533 374.69C767.834 376.199 733.924 412.239 725.681 423.287C712.304 441.216 686.75 480.798 678.906 501.168C651.469 482.364 646.905 481.562 616.943 469.553Z" fill="#FE5D5A"/>
<path d="M781.7 382.844C792.361 394.558 788.389 407.377 792.2 421.42C798.356 444.102 798.083 471.182 797.074 494.311C795.455 531.406 788.774 566.983 773.876 601.02C773.393 602.124 774.037 605.862 773.72 607.667C764.628 601.911 758.48 588.718 753.469 579.151C770.188 568.411 771.588 545.994 764.871 528.924C761.54 526.834 757.098 524.978 753.454 523.325C756.018 519.489 758.624 515.668 760.707 511.642C769.935 493.801 768.488 466.639 745.444 460.929C735.047 458.352 726.451 458.912 716.34 462.402C729.849 437.258 762.144 404.288 781.7 382.844Z" fill="#E04742"/>
<path d="M423.396 1022.77C441.329 1032.11 457.829 1034.81 477.401 1039.47C491.495 1042.83 505.129 1041.79 518.913 1043.82C519.008 1049.67 519.424 1061.16 518.471 1066.7L518.378 1077.1C517.62 1090.46 516.968 1109.96 514.38 1122.75C513.814 1127.87 513.218 1133 512.591 1138.12C512.014 1142.65 511.779 1147.27 507.746 1150C497.73 1156.78 472.422 1156.93 460.672 1155.32C447.284 1153.49 417.279 1143.96 408.669 1133.57C405.253 1129.45 409.36 1111.84 410.567 1105.72C414.277 1091.88 417.208 1075.24 419.806 1061.05C420.718 1052.6 421.583 1044.15 422.401 1035.69C422.497 1030.89 422.841 1027.54 423.396 1022.77Z" fill="#FFFDE9"/>
<path d="M410.567 1105.72C413.604 1108.76 422.378 1111.54 426.633 1112.78C455.64 1121.25 484.418 1121.93 514.38 1122.75C513.814 1127.87 513.218 1133 512.591 1138.12C512.014 1142.65 511.779 1147.27 507.746 1150C497.73 1156.78 472.422 1156.93 460.672 1155.32C447.284 1153.49 417.279 1143.96 408.669 1133.57C405.253 1129.45 409.36 1111.84 410.567 1105.72Z" fill="#FE5D5A"/>
<path d="M423.397 1022.77C441.33 1032.11 457.83 1034.81 477.402 1039.47C491.496 1042.83 505.13 1041.79 518.914 1043.82C519.009 1049.67 519.425 1061.16 518.472 1066.7L518.379 1077.1C480.544 1074.58 456.682 1073.13 419.807 1061.05C420.719 1052.6 421.584 1044.15 422.402 1035.69C422.498 1030.89 422.842 1027.54 423.397 1022.77Z" fill="#FE5D5A"/>
<path d="M423.395 1022.77C441.328 1032.11 457.828 1034.81 477.4 1039.47C491.494 1042.83 505.128 1041.79 518.912 1043.82C519.007 1049.67 519.423 1061.16 518.47 1066.7C518.039 1063.02 518.302 1056.9 518.352 1053.02C489.963 1052.88 448.636 1047.16 422.4 1035.69C422.496 1030.89 422.84 1027.54 423.395 1022.77Z" fill="#E04742"/>
<path d="M810.44 787.775C816.357 797.266 819.53 801.672 819.711 813.103C819.745 815.229 823.982 817.039 827.573 815.483C832.743 809.17 820.534 788.587 822.762 779.757C825.943 778.222 835.95 780.726 840.294 781.247C841.705 784.833 842.758 787.434 843.584 791.196C845.277 798.915 844.633 816.821 850.658 821.903C854.849 822.391 855.376 817.963 855.592 814.642C856.114 806.59 856.04 798.491 856.344 790.405C857.762 793.185 860.587 798.646 861.154 801.595C866.55 829.645 860.177 867.075 852.064 893.97C849.76 901.609 837.566 932.362 833.324 937.73C828.404 937.203 822.241 937.216 816.854 936.667C798.429 934.79 782.366 930.415 769.312 916.285C764.935 911.546 761.519 906.4 757.4 901.388C767.303 876.346 769.748 870.185 769.187 844.475C768.964 834.25 791.013 802.812 798.659 795.367C800.45 793.507 808.032 789.172 810.44 787.775Z" fill="#FE5D5A"/>
<path d="M191.937 823.772C199.16 827.67 213.682 840.562 217.233 842.064C220.2 841.879 219.083 842.286 221.466 840.549C223.559 831.622 204.295 820.863 207.327 814.409C212.337 811.153 227.403 812.117 233.535 812.428C240.344 817.029 254.749 826.764 259.228 832.813C274.993 854.11 281.501 873.981 304.815 889.606C296.424 907.443 288.618 924.637 272.61 937.299C265.907 942.6 251.333 943.552 247.502 948.83C247.283 951.225 247.658 951.83 248.422 954.19C242.802 948.507 236.924 944.362 231.39 938.924C206.271 914.241 185.982 894.661 173.586 860.943C174.66 857.672 176.011 854.217 177.215 850.966C181.81 855.101 193.961 865.128 200.073 863.239L200.528 861.501C198.975 854.486 186.558 841.049 181.396 834.744C185.181 830.44 187.674 827.706 191.937 823.772Z" fill="#FE5D5A"/>
<path d="M692.475 928.345C700.196 924.783 707.781 920.934 715.215 916.807C716.155 923.552 716.654 928.449 717.007 935.246C719.992 960.469 718.168 977.89 699.405 996.665C684.99 1010.28 664.312 1017.31 645.474 1021.96C642.363 1022.56 639.275 1023.26 636.218 1024.1C623.443 1027.62 610.184 1029.15 597.06 1030.69C603.844 1010.85 603.798 989.214 599.999 968.763L599.729 968.365C598.408 963.168 597.529 959.496 596.723 954.117C613.067 951.875 629.272 948.716 645.261 944.653C664.157 939.27 674.197 935.015 692.475 928.345Z" fill="#FE5D5A"/>
<path d="M596.723 954.117C613.067 951.875 629.272 948.716 645.261 944.653C645.317 949.275 645.193 955.02 645.947 959.487L645.836 959.973C651.384 981.582 653.812 1000.32 645.474 1021.96C642.363 1022.56 639.275 1023.26 636.218 1024.1C623.443 1027.62 610.184 1029.15 597.06 1030.69C603.844 1010.85 603.798 989.214 599.999 968.763L599.729 968.365C598.408 963.168 597.529 959.496 596.723 954.117Z" fill="#FFFDE9"/>
<path d="M596.723 954.117C613.067 951.875 629.272 948.716 645.261 944.653C645.317 949.275 645.193 955.02 645.947 959.487L645.836 959.973C634.221 963.427 612.532 967.079 599.999 968.763L599.729 968.365C598.408 963.168 597.529 959.496 596.723 954.117Z" fill="#EFD8B7"/>
<path d="M692.475 928.345C700.196 924.783 707.781 920.934 715.215 916.807C716.155 923.552 716.654 928.449 717.007 935.246C719.992 960.469 718.168 977.89 699.405 996.665C698.871 992.119 699.349 979.799 699.33 974.497C699.29 962.913 698.446 956.499 696.42 945.084L696.037 944.002C696.505 938.558 694.609 933.244 692.475 928.345Z" fill="#FFFDE9"/>
<path d="M692.475 928.345C700.196 924.783 707.781 920.934 715.215 916.807C716.155 923.552 716.654 928.449 717.007 935.246C713.141 935.201 701.388 940.911 697.467 942.837L696.42 945.084L696.037 944.002C696.505 938.558 694.609 933.244 692.475 928.345Z" fill="#EFD8B7"/>
<path d="M645.262 944.653C664.158 939.27 674.198 935.015 692.476 928.345C694.61 933.244 696.506 938.558 696.038 944.002C677.269 950.643 666.037 955.217 645.948 959.487C645.194 955.02 645.318 949.275 645.262 944.653Z" fill="#E04742"/>
<path d="M757.401 901.388C761.52 906.4 764.936 911.546 769.313 916.285C782.367 930.415 798.43 934.79 816.855 936.667C822.242 937.216 828.405 937.203 833.325 937.73C809.854 986.332 778.232 1021.59 731.086 1048.47C730.021 1041.38 727.039 1016.15 722.256 1012.38L719.91 1011.82C718.592 1008.83 715.742 1005.83 713.561 1003.28L715.066 1001.87C729.335 984.064 735.816 962.581 732.896 939.911C742.845 926.356 749.406 916.063 757.401 901.388Z" fill="#FFFDE9"/>
<path d="M715.066 1001.87C718.625 1005.65 720.378 1007.41 722.256 1012.38L719.91 1011.82C718.592 1008.83 715.742 1005.83 713.561 1003.28L715.066 1001.87Z" fill="#E8AA8B"/>
<path d="M541.373 958.428C562.771 957.825 575.435 956.307 596.724 954.117C597.53 959.496 598.409 963.168 599.73 968.365L600 968.763C603.799 989.214 603.845 1010.85 597.061 1030.69C581.777 1033.78 543.2 1032.43 526.465 1030.66C509.803 1029.84 499.792 1027.43 484.02 1025.97C489.412 1007.84 493.09 991.908 493.574 972.838L493.49 971.107C493.613 966.32 493.906 959.968 495.012 955.358C506.367 957.022 529.508 958.616 541.373 958.428Z" fill="#FE5D5A"/>
<path d="M495.012 955.358C506.367 957.022 529.508 958.616 541.373 958.428C541.568 962.968 541.664 970.119 542.389 974.408L542.277 974.923C542.593 988.035 541.17 1017.75 533.406 1029.99C532.819 1030.92 529.499 1030.81 528.259 1030.75C527.66 1030.73 527.063 1030.7 526.465 1030.66C509.803 1029.84 499.792 1027.43 484.02 1025.97C489.412 1007.84 493.09 991.908 493.574 972.838L493.49 971.107C493.613 966.32 493.906 959.968 495.012 955.358Z" fill="#FFFDE9"/>
<path d="M495.01 955.358C506.365 957.022 529.506 958.616 541.371 958.428C541.566 962.968 541.662 970.119 542.387 974.408L542.276 974.923C526.418 974.98 509.344 974.719 493.572 972.838L493.488 971.107C493.611 966.32 493.904 959.968 495.01 955.358Z" fill="#EFD8B7"/>
<path d="M541.371 958.428C562.769 957.825 575.433 956.307 596.722 954.117C597.528 959.496 598.407 963.168 599.728 968.365C581.526 973.135 561.103 974.222 542.387 974.408C541.662 970.119 541.566 962.968 541.371 958.428Z" fill="#E04742"/>
<path d="M591.782 1316.11C613.517 1318.72 684.47 1313.18 703.481 1304.18C701.722 1309.39 699.266 1317.06 697.714 1321.37C691.608 1338.35 692.898 1336.84 705.187 1347.8C707.17 1349.58 715.67 1363.47 717.719 1367.32C712.491 1370.83 709.396 1372.54 703.302 1374.29C701.534 1367.44 691.951 1344.9 683.455 1346.66C683.016 1347.93 682.512 1349.09 683.338 1350.5C690.475 1362.63 691.385 1364.55 692.302 1378.16C687.758 1378.82 681.249 1379.97 676.817 1380.22C675.165 1373.03 670.708 1352.29 661.018 1352.33C658.813 1353.65 659.388 1352.89 658.459 1355.07C660.05 1359.99 661.771 1365.31 663.028 1370.32C663.872 1373.68 664.058 1377.89 664.836 1381.25C645.602 1381.66 611.602 1380.29 596.914 1366.52C593.339 1350.27 588.212 1331.57 585.338 1315.55C587.516 1315.86 589.606 1316.31 591.782 1316.11Z" fill="#FE5D5A"/>
<path d="M396.031 935.572C409.576 940.161 423.351 944.04 437.301 947.194C454.223 950.48 470.587 953.631 487.829 954.696C490.118 954.837 492.764 955.046 495.01 955.358C493.904 959.968 493.611 966.32 493.488 971.107L493.572 972.838C493.088 991.908 489.41 1007.84 484.018 1025.97C465.553 1023.63 439.491 1017.23 423.691 1007.17C403.721 996.082 398.927 992.416 385.957 972.991C388.011 963.827 390.541 957.391 393.894 948.674L393.853 948.146C394.587 946.001 395.624 938.206 396.031 935.572Z" fill="#FE5D5A"/>
<path d="M396.031 935.572C409.576 940.161 423.351 944.04 437.301 947.194C436.429 953.417 434.962 958.089 434.167 963.267C434.101 964.842 434.085 966.909 433.79 968.399C432.253 980.08 429.033 996.603 423.691 1007.17C403.721 996.082 398.927 992.416 385.957 972.991C388.011 963.827 390.541 957.391 393.894 948.674L393.853 948.146C394.587 946.001 395.624 938.206 396.031 935.572Z" fill="#FFFDE9"/>
<path d="M396.032 935.572C409.577 940.161 423.352 944.04 437.302 947.194C436.43 953.417 434.963 958.089 434.168 963.267C434.102 964.842 434.085 966.909 433.79 968.399C433.776 965.661 433.879 965.136 433.079 962.579C431.163 961.476 429.576 960.98 427.471 960.339C416.044 956.858 404.942 953.226 393.895 948.674L393.854 948.146C394.588 946.001 395.625 938.206 396.032 935.572Z" fill="#EFD8B7"/>
<path d="M437.302 947.194C454.224 950.48 470.588 953.631 487.83 954.696C490.119 954.837 492.765 955.046 495.011 955.358C493.905 959.968 493.612 966.32 493.489 971.107C492.822 972.593 493.242 971.898 491.675 972.967C478.697 973.315 447.272 966.106 434.168 963.267C434.963 958.089 436.43 953.417 437.302 947.194Z" fill="#E04742"/>
<path d="M724.698 473.446C758.416 471.028 756.246 489.83 742.73 513.45C739.378 519.307 730.192 529.968 734.703 536.67C740.687 538.964 746.408 532.4 751.97 536.517C755.671 543.998 754.412 567.635 744.713 568.502L742.461 565.91C725.525 541.826 708.842 527.003 687.078 507.875C689.351 504.307 691.661 500.762 694.006 497.24C701.85 485.614 710.527 476.226 724.698 473.446Z" fill="#FFFDE9"/>
<path d="M563.23 715.059C573.555 714.57 585.982 717.795 594.8 723.217C596.565 729.082 598.259 734.968 599.882 740.874C589.101 731.423 560.947 728.648 549.435 738.726C545.019 742.591 545.854 750.488 545.782 756.095C550.762 761.078 566.577 770.476 570.997 776.422L569.746 778.055C565.72 780.993 561.411 783.523 556.883 785.606C547.711 789.719 519.311 798.128 513.509 785.249C511.957 781.932 516.674 775.15 518.829 772.06C526.372 761.241 529.981 736.733 532.637 726.455C534.046 721.004 557.055 715.544 563.23 715.059Z" fill="#FFFDE9"/>
<path d="M537.021 823.725C562.535 820.338 576.625 835.406 588.469 855.449C584.537 864.159 579.471 869.749 571.154 874.145C537.003 884.906 525.584 853.833 520.928 826.862L537.021 823.725Z" fill="#FE5D5A"/>
<path d="M529.564 700.255C546.762 681.682 571.822 683.975 592.68 694.26L592.88 704.493C593.248 707.122 593.568 706.443 592.412 708.156C589.024 708.206 587.14 706.905 583.797 706.108C575.403 704.106 567.47 703.179 558.839 704.066C554.544 704.497 550.3 705.336 546.164 706.572C542.358 707.729 533.79 712.091 532.022 711.746C531.57 710.851 530.991 709.786 530.588 708.893L529.564 700.255Z" fill="#FEC538"/>
<path d="M530.588 708.893C542.917 696.883 560.175 692.304 576.819 697.797C581.801 699.441 587.785 703.933 592.88 704.493C593.248 707.122 593.568 706.443 592.412 708.156C589.024 708.206 587.14 706.905 583.797 706.108C575.403 704.106 567.47 703.179 558.839 704.066C554.544 704.497 550.3 705.336 546.164 706.572C542.358 707.729 533.79 712.091 532.022 711.746C531.57 710.851 530.991 709.786 530.588 708.893Z" fill="#E6923D"/>
<path d="M601.949 746.851C603.487 748.299 611.686 762.273 613.606 765.105C616.569 769.477 618.566 771.984 622.13 776.195C616.088 791.008 613.914 793.688 597.645 788.824C589.077 785.099 584.365 781.784 577.994 775.093C581.924 773.794 588.868 771.662 591.768 768.816L591.718 767.586L589.657 766.578L589.505 765.761C598.182 759.734 603.154 758.573 601.949 746.851Z" fill="#FFFDE9"/>
<path d="M348.869 915.909C364.607 921.946 378.247 930.537 396.032 935.572C395.625 938.206 394.588 946.001 393.854 948.146L393.895 948.674C390.542 957.391 388.012 963.827 385.958 972.991C380.067 964.712 371.376 947.537 365.462 937.677C360.264 930.471 354.308 922.995 348.869 915.909Z" fill="#E04742"/>
<path d="M365.463 937.677C369.159 937.864 387.535 946.172 393.855 948.146L393.896 948.674C390.543 957.391 388.013 963.827 385.959 972.991C380.068 964.712 371.377 947.537 365.463 937.677Z" fill="#FE5D5A"/>
<path d="M266.674 715.638C278.029 714.889 285.387 715.515 296.359 718.066L296.634 732.737C290.931 732.77 285.025 732.402 279.312 732.136C271.981 732.069 251.814 733.548 247.095 728.234C245.837 719.812 260.654 716.837 266.674 715.638Z" fill="#FEC538"/>
<path d="M429.391 1157.05C436.434 1160.05 440.864 1161.53 448.222 1163.72C445.533 1171.98 444.957 1174.65 439.223 1181.4C420.219 1197.17 423.872 1167.57 429.391 1157.05Z" fill="#FE5D5A"/>
<path d="M462.019 1165.33C467.595 1166.84 475.861 1166.4 481.802 1166.34C480.719 1175.96 480.181 1179.72 474.419 1187.39C460.419 1199.8 455.511 1178.14 462.019 1165.33Z" fill="#FE5D5A"/>
<path d="M405.295 1145.07L417.86 1153.5C414.06 1160.73 413.234 1166.31 407.436 1173.17C398.965 1177.17 396.073 1170.57 396.844 1163.2C397.746 1154.58 398.759 1150.78 405.295 1145.07Z" fill="#FE5D5A"/>
<path d="M508.195 1161.91C508.537 1161.88 509.35 1162.15 509.734 1162.25C512.72 1168.68 511.748 1177.79 507.674 1183.61C504.678 1187.88 501.501 1188.43 496.768 1189.27C490.903 1185.65 493.824 1170.34 495.581 1165.07C499.978 1164.11 503.856 1163.11 508.195 1161.91Z" fill="#FE5D5A"/>
<path d="M742.12 898.504C742.816 901.821 732.349 916.719 729.569 919.388C725.472 907.72 733.739 904.597 742.12 898.504Z" fill="#FEC538"/>
<path d="M616.74 140.33C618.488 140.18 622.004 140.029 623.548 140.613C629.999 143.054 644.116 159.75 647.23 165.458C652.778 175.627 638.508 182.348 631.715 188.678C627.112 192.893 623.442 198.025 620.942 203.744C610.451 227.978 624.324 246.032 616.078 268.449C608.575 288.845 587.171 297.423 568.836 305.621C559.85 310.134 551.518 306.506 546.929 297.929C533.858 273.5 548.959 274.075 566.85 266.554C589.871 256.878 577.154 234.367 576.338 216.34C575.938 206.958 577.473 196.922 580.317 187.899C584.242 173.642 603.709 146.893 616.74 140.33Z" fill="#482C1D"/>
<path d="M621.107 152.8C625.56 155.642 632.128 164.91 635.46 169.33C564.338 219.467 651.135 262.253 564.33 293.635C561.296 294.512 561.958 294.779 559.245 294.17C556.868 292.421 555.393 288.261 554.131 285.428C563.649 279.835 573.366 278.091 581.626 271.373C603.558 253.538 586.642 229.487 589.648 204.452C592.097 184.052 605.896 165.668 621.107 152.8Z" fill="#FEC538"/>
<path d="M182.804 192.085C211.023 194.227 245.113 230.756 255.69 255.356C262.218 270.538 242.094 284.426 229.715 287.896C212.03 288.618 208.385 268.027 196.082 257.341C188.511 251.486 172.005 236.005 162.763 233.286C142.879 227.437 177.582 193.835 182.804 192.085Z" fill="#482C1D"/>
<path d="M184.776 202.404C211.514 212.358 232.814 235.782 245.949 260.528C242.454 268.689 237.855 272.463 229.893 275.844C227.49 276.437 227.138 276.646 224.75 276.324C212.028 249.18 192.738 239.089 170.32 223.525C170.091 219.655 181.849 206.07 184.776 202.404Z" fill="#FEC538"/>
<path d="M358.279 120.693C363.638 120.715 366.546 124.345 369.364 128.595C386.527 154.477 400.335 187.829 395.308 219.427C392.473 237.253 381.393 233.831 368.246 230.854C365.486 230.393 362.824 229.793 360.296 229.315C355.785 228.678 351.992 223.354 352.156 218.87C353.292 204.915 353.765 198.142 351.23 184.135C349.094 172.33 326.65 150.394 328.519 141.019C330.143 132.872 350.372 124.292 358.279 120.693Z" fill="#482C1D"/>
<path d="M357.965 134.937C360.295 136.303 362.412 141.162 364.214 144.257C376.152 164.765 386.629 190.494 383.489 214.621C382.589 221.54 376.423 220.554 371.207 218.786C370.163 218.601 365.179 217.763 365.103 216.289C364.87 206.978 365.924 198.371 364.799 188.974C362.571 170.362 350.515 159.919 342.224 144.998L341.812 144.248C347.96 139.672 350.746 137.531 357.965 134.937Z" fill="#FE5D5A"/>
<path d="M939.997 402.085C948.495 401.359 952.698 408.801 956.907 414.801C961.952 421.608 966.241 432.981 956.788 438.093C937.943 448.284 926.279 451.7 919.343 474.13C916.541 483.19 913.559 494.676 901.238 491.156C895.43 488.407 889.064 485.343 883.184 482.789C873.792 479.357 875.915 472.084 878.373 464.266C887.701 434.593 909.109 410.326 939.997 402.085Z" fill="#482C1D"/>
<path d="M939.581 415.448L941.093 415.479C945.05 417.255 947.877 423.785 949.904 427.7C933.245 438.021 920.545 438.462 911.161 460.229C908.817 465.665 907.068 476.592 902.108 478.542L889.291 472.591C899.586 442.039 908.907 428.132 939.581 415.448Z" fill="#FE5D5A"/>
<path d="M863.069 1049.29C879.138 1050.76 885.023 1082.1 897.602 1092.25C903.586 1098.28 917.534 1101.5 922.928 1107.22C929.421 1114.1 918.048 1129.7 912.414 1133.57C906.465 1137.66 904.874 1138.69 898.119 1137.88C870.8 1128.62 847.502 1097.88 835.296 1073.06C831.712 1065.78 857.466 1050.78 863.069 1049.29Z" fill="#482C1D"/>
<path d="M859.336 1062.44C870.348 1062.25 878.234 1089.81 887.497 1098.65C896.35 1107.1 899.04 1108.16 909.593 1114.34C907.129 1119.27 906.059 1122.18 901.268 1125C879.477 1116.13 858.968 1092.79 849.389 1071.76C853.18 1067.39 854.812 1066.03 859.336 1062.44Z" fill="#FEC538"/>
<path d="M132.479 699.287C152.235 698.172 151.733 736.586 140.157 737.868C116.973 740.436 106.602 741.232 84.4845 751.952C72.9215 750.821 62.9693 729.008 71.8231 719.322C86.1709 703.625 112.597 701.731 132.479 699.287Z" fill="#482C1D"/>
<path d="M126.276 713.556C135.116 712.082 134.998 717.589 136.636 724.667C116.905 728.289 110.904 727.104 90.1821 734.009C87.9217 734.843 85.444 736.369 83.3074 737.571L80.707 728.08C94.2283 717.579 109.575 715.12 126.276 713.556Z" fill="#FE5D5A"/>
<path d="M885.768 254.994L886.468 255.07C891.096 255.542 896.581 257.946 900.915 260.022C924.684 271.467 902.536 294.396 891.428 305.905C887.298 310.185 882.635 312.133 877.02 313.587C866.618 314.034 859.647 310.218 852.687 302.109C850.26 299.281 849.889 296.222 850.448 292.609C854.521 287.05 861.985 280.641 866.974 275.357C871.416 270.655 881.16 257.17 885.768 254.994Z" fill="#482C1D"/>
<path d="M888.804 267.344C892.383 268.672 896.765 272.204 899.58 274.734C893.414 286.886 886.461 297.361 873.47 302.621C869.222 302.078 864.456 300.672 862.957 296.305C872.88 286.166 879.8 278.212 888.804 267.344Z" fill="#FEC538"/>
<path d="M66.7759 469.366C78.0719 470.175 107.379 485.796 112.853 496.158C118.013 505.927 109.83 515.549 101.558 519.48C95.056 518.685 84.3335 511.113 77.8482 507.85C72.5193 504.357 58.73 500.471 54.8935 496.08C50.4159 490.956 62.0799 472.148 66.7759 469.366Z" fill="#FEC538"/>
<path d="M827.301 1199.36C839.634 1201.25 852.214 1218.18 859.498 1227.73C870.472 1242.13 863.536 1248 851.429 1255.59C849.465 1255.72 845.387 1256.03 844.098 1254.43C834.594 1242.71 820.659 1228.25 813.639 1215.2C816.319 1207.39 819.829 1202.82 827.301 1199.36Z" fill="#FE5D5A"/>
<path d="M931.067 575.317C940.695 573.48 948.884 585.622 946.246 591.014C939.973 603.833 907.64 607.775 895.147 614.015C879.792 620.604 873.928 604.091 889.025 593.834C903.121 584.258 915.41 581.286 931.067 575.317Z" fill="#FEC538"/>
<path d="M769.58 156.023C776.579 155.534 792.781 162.656 790.642 170.162C787.653 180.652 777.094 203.358 768.79 210.252C763.073 210.37 746.188 205.741 748.224 198.371C750.947 188.509 762.17 161.966 769.58 156.023Z" fill="#FE5D5A"/>
<path d="M334.702 285.663C349.501 285.689 341.954 303.694 345.838 311.996C350.68 322.344 364.833 321.513 369.257 332.129C372.108 338.971 371.579 348.668 369.778 355.797C369.066 358.31 366.218 359.571 364.02 360.543C345.816 356.709 361.921 342.135 348.724 334.01C346.647 332.731 340.541 332.222 337.943 331.913C332.475 320.216 324.415 313.425 326.388 300.011C327.329 293.617 329.633 289.465 334.702 285.663Z" fill="#FE5D5A"/>
<path d="M916.862 911.072C922.539 911.463 932.453 917.786 937.126 921.206C949.588 930.326 955.463 941.424 938.621 950.513C931.913 948.111 924.464 942.53 918.062 939.393C902.97 931.999 901.515 920.654 916.862 911.072Z" fill="#FEC538"/>
<path d="M82.5217 316.293C94.7391 316.721 135.925 338.407 112.489 353.516C104.574 352.822 83.729 339.199 77.2268 333.455C71.2957 328.215 77.9397 320.224 82.5217 316.293Z" fill="#FE5D5A"/>
<path d="M114.168 938.331C144.137 936.603 114.043 974.851 103.389 978.818C74.6355 973.351 99.3522 944.849 114.168 938.331Z" fill="#FE5D5A"/>
<path d="M918.967 767.14C930.439 767.151 970.21 787.21 945.586 802.204C939.086 801.289 928.02 794.77 921.806 791.736C908.5 785.242 908.592 776.149 918.967 767.14Z" fill="#FE5D5A"/>
<path d="M458.953 346.492C477.416 345.889 486.216 369.115 469.047 377.59C451.075 381.499 443.775 355.94 458.953 346.492Z" fill="#FEC538"/>
<path d="M108.337 830.152C113.488 830 117.795 831.889 120.439 836.442C126.022 846.055 105.554 856.629 98.7195 859.425C94.8305 859.948 89.4892 859.259 86.7642 856.154C82.1598 846.425 101.006 833.482 108.337 830.152Z" fill="#FEC538"/>
<path d="M107.472 611.201C120.067 611.524 149.184 624.595 130.347 639.004C117.344 637.258 91.5266 627.683 107.472 611.201Z" fill="#FE5D5A"/>
<path d="M669.122 288.656C694.123 291.839 679.214 313.023 667.03 320.744C664.001 321.361 657.307 319.671 655.691 317.107C649.904 307.928 661.994 293.1 669.122 288.656Z" fill="#FE5D5A"/>
<path d="M912.676 673.592C913.352 673.542 914.029 673.514 914.707 673.507C926.094 673.362 951.2 679.972 934.348 694.986C922.524 697.136 893.352 686.358 912.676 673.592Z" fill="#FEC538"/>
<path d="M245.594 141.074C246.079 141.025 246.564 140.982 247.05 140.944C263.614 139.699 271.576 152.151 258.754 163.819C241.196 169.618 235.019 153.571 245.594 141.074Z" fill="#FEC538"/>
<path d="M481.633 226.648C500.572 225.408 499.807 242.088 484.49 249.182C471.104 251.415 464.621 234.432 481.633 226.648Z" fill="#FEC538"/>
<path d="M795.967 1127.29C800.362 1127.36 806.004 1128.72 807.929 1132.81C812.164 1141.81 804.508 1146 798.746 1148.88C781.435 1150.42 784.17 1135.26 795.967 1127.29Z" fill="#FE5D5A"/>
<path d="M571.544 395.624C585.705 395.414 591.083 407.225 577.527 416.48C561.86 422.563 563.832 404.953 571.544 395.624Z" fill="#FE5D5A"/>
</g>
<defs>
<clipPath id="clip0_22_724">
<rect width="1024" height="1536" fill="white"/>
</clipPath>
</defs>
</svg>
