<svg width="1024" height="1536" viewBox="0 0 1024 1536" fill="none" xmlns="http://www.w3.org/2000/svg">
<path d="M633.46 414.349C644.37 400.1 655.982 386.402 668.253 373.307C697.67 342.235 788.492 256.7 829.054 251.342C833.64 250.736 837.908 251.46 841.619 254.39C860.612 269.39 873.729 340.416 876.147 363.929C885.161 451.606 868.867 550.189 817.545 623.168L820.103 630.934C841.547 636.635 852.225 654.822 836.764 673.228L837.36 673.842C850.845 687.578 877.879 683.615 876.706 697.816C875.156 716.596 857.71 745.938 846.751 761.313C845.637 762.877 845.635 762.111 846.477 763.709C850.059 764.224 855.16 762.884 859.002 762.479C868.468 761.505 877.76 765.517 883.541 773.074C886.705 777.258 887.728 780.782 889.212 785.759C895.691 786.106 901.321 786.578 905.902 791.829C920.745 808.844 911.668 838.412 905.519 857.546C880.568 935.183 813.839 1016.14 731.389 1034.93C744.734 1122.99 730.229 1211.77 700.136 1294.96C708.774 1303.38 713.784 1309.01 718.149 1320.69C730.933 1322.09 777.788 1328.44 783.391 1341.02C784.165 1342.74 784.166 1344.71 783.395 1346.42C781.323 1351.1 775.131 1353.97 770.689 1355.78C687.383 1389.81 348.162 1389.01 267.03 1353.97C263.512 1352.45 259.204 1349.71 257.919 1345.91C257.434 1344.48 257.685 1342.97 258.46 1341.69C265.481 1330.06 308.219 1324.09 320.884 1322.47C328.451 1321.51 337.049 1321.46 344.373 1319.52C344.515 1319.48 344.655 1319.44 344.795 1319.4C342.524 1304.41 340.261 1286.58 339.587 1271.36C308.758 1293.06 270.431 1301.3 233.404 1294.19C159.509 1280.54 118.775 1207.11 126.365 1136.11C130.853 1094.13 125.893 1079.39 83.2375 1067.11C80.2397 1066.25 76.5633 1061.15 77.0708 1057.73C78.9563 1045 94.6287 1034.43 104.854 1028.54C156.609 998.709 231.629 1004.03 267.519 1056.15C277.568 1023.27 287.01 998.661 306.266 969.627C295.857 969.984 289.489 970.201 279.241 968.577C263.518 966.084 247.702 960.464 231.968 959.066C224.545 958.461 217.081 958.571 209.679 959.394C203.874 960.083 197.004 961.156 191.315 962.328C164.489 967.855 152.902 939.89 169.696 920.2C159.369 907.557 159.029 896.606 169.846 884.021C161.984 866.08 165.772 853.243 187.324 851.995C228.486 849.613 263.219 867.375 299.053 884.674L300.7 877.945C286.27 871.344 271.473 864.348 259.42 853.829C254.471 849.51 251.568 845.418 252.963 838.503C254.897 835.24 258.775 833.548 259.565 831.844C225.28 805.466 204.256 784.972 181.441 746.947C152.611 698.897 191.837 721.412 216.286 693.904C203.851 667.007 230.097 662.659 229.39 652.305C227.363 648.165 213.359 636.906 209.254 631.67C200.571 620.595 193.407 609.803 186.599 597.423C138.855 510.603 130.898 395.265 161.502 301.389C165.194 290.063 172.124 273.245 183.099 267.729C191.729 263.392 205.403 268.73 214.105 271.866C284.226 297.142 365.649 359.018 410.604 418.463C425.055 412.713 442.214 407.08 457.487 404.045C509.692 393.671 583.302 395.957 633.46 414.349Z" fill="#442C1E"/>
<path d="M344.794 1319.4C345.926 1326.88 346.905 1334.9 350.401 1341.69C354.793 1350.21 361.936 1354.77 370.859 1357.64C397.212 1366.12 447.296 1372.05 472.561 1358.83C500.121 1344.4 480.408 1323.84 484.558 1310.95C484.631 1310.72 484.712 1310.5 484.789 1310.28C489.872 1312.09 555.238 1311.21 566.161 1311.78C568.189 1321.92 572.003 1342.9 582.575 1347.97C613.684 1362.89 656.219 1362.62 689.61 1356.56C709.135 1353.02 723.753 1344.45 718.675 1322.82C718.507 1322.1 718.332 1321.4 718.148 1320.69C730.932 1322.09 777.787 1328.44 783.39 1341.02C784.164 1342.74 784.165 1344.71 783.394 1346.42C781.322 1351.1 775.13 1353.97 770.688 1355.78C687.382 1389.81 348.161 1389.01 267.029 1353.97C263.511 1352.45 259.203 1349.71 257.918 1345.91C257.433 1344.48 257.684 1342.97 258.459 1341.69C265.48 1330.06 308.218 1324.09 320.883 1322.47C328.45 1321.51 337.048 1321.46 344.372 1319.52C344.514 1319.48 344.654 1319.44 344.794 1319.4Z" fill="#F1DDBD"/>
<path d="M496.128 1249.19C517.874 1250.21 536.23 1249.4 557.871 1247.8C560.419 1267.94 562.726 1292.12 566.161 1311.78C555.238 1311.21 489.872 1312.09 484.789 1310.28C489.261 1291.47 493.976 1268.32 496.128 1249.19Z" fill="#FFFCEB"/>
<path d="M323.738 974.899C325.887 971.899 328.082 968.732 330.366 965.851C352.337 974.937 375.402 983.281 398.612 988.549C398.538 993.29 398.567 1006.25 397.673 1010.45C397.18 1026.9 395.334 1043.29 392.152 1059.45C389.484 1073.33 385.436 1085.05 387.134 1099.08C387.315 1100.57 383.654 1107.5 383.167 1109.44C376.583 1134.62 393.412 1145.96 416.839 1141.09C425.925 1154.52 436.087 1157.09 450.349 1148.91C453.969 1152.71 458.947 1157.25 464.364 1157.69C468.756 1157.92 473.989 1154.53 478.127 1154.35C484.858 1154.06 489.627 1157.6 496.574 1155.01C513.102 1148.85 510.304 1127.52 507.895 1114.05C515.982 1093.15 517.278 1057.82 517.526 1035.12C516.656 1029.53 516.289 1012.58 515.913 1006.01C579.647 1007.53 642.927 999.405 700.815 971.177L704.659 985.056C728.518 1092.33 722.051 1163.83 691.187 1267.84C657.495 1277.21 630.05 1279.73 594.933 1275.17C591.86 1274.78 580.051 1272.9 577.594 1271.87L577.084 1271.84C576.237 1262.98 575.184 1254.15 573.925 1245.34C590.765 1242.97 608.378 1238.22 622.691 1228.79C625.644 1225.64 628.127 1222.33 625.047 1218.29C620.199 1216.08 610.377 1219.45 605.255 1220.94C571.037 1230.88 533.707 1233.63 498.256 1231.31C492.864 1230.96 484.182 1229.72 482.108 1236.43C477.886 1251.2 476.34 1267.37 473.776 1282.62C471.88 1293.04 468.755 1305.61 466.421 1316.06C473.385 1334.29 475.516 1342.36 454.224 1348.46C453.909 1341.23 451.091 1321.35 442.19 1320.12C440.371 1320.52 438.607 1321.11 437.492 1322.73C435.322 1325.87 441.282 1344.46 442.065 1349.83C433.759 1349.87 427.642 1349.62 419.356 1348.97C420.787 1339.43 420.18 1323.86 408.893 1320.3C400.047 1321.94 407.097 1334.41 407.674 1339.79C407.984 1342.67 407.986 1345.37 407.963 1348.26C399.763 1347.14 373.859 1342.37 368.953 1337.98C360.071 1330.04 357.683 1286.3 356.513 1274.16C355.16 1247.55 351.48 1219.69 350.162 1192.36C368.598 1178.74 366.333 1158.62 367.736 1137.91C368.532 1124.91 370.019 1111.96 372.188 1099.12C373.619 1090.71 375.297 1082.35 377.221 1074.04C379.417 1064.72 388.272 1038.51 380.877 1031.92C368.102 1031.7 358.914 1086.24 356.592 1097.41C354.379 1095.75 352.109 1094.17 349.786 1092.66C324.3 1075.95 306.533 1078.28 279.324 1083.9C285.54 1048.11 302.715 1004.45 323.738 974.899Z" fill="#FFFCEB"/>
<path d="M356.514 1274.16C389.778 1283.58 439.309 1286.1 473.777 1282.62C471.881 1293.04 468.756 1305.61 466.422 1316.06C473.386 1334.29 475.517 1342.36 454.225 1348.46C453.91 1341.23 451.092 1321.35 442.191 1320.12C440.372 1320.52 438.608 1321.11 437.493 1322.73C435.323 1325.87 441.283 1344.46 442.066 1349.83C433.76 1349.87 427.643 1349.62 419.357 1348.97C420.788 1339.43 420.181 1323.86 408.894 1320.3C400.048 1321.94 407.098 1334.41 407.675 1339.79C407.985 1342.67 407.987 1345.37 407.964 1348.26C399.764 1347.14 373.86 1342.37 368.954 1337.98C360.072 1330.04 357.684 1286.3 356.514 1274.16Z" fill="#FE5F57"/>
<path d="M515.912 1006.01C579.646 1007.53 642.926 999.405 700.814 971.177L704.658 985.056C692.649 990.355 682.771 996.035 670.124 1000.64C619.348 1019.12 570.803 1023.67 517.555 1024.22C517.684 1027.58 517.999 1031.87 517.525 1035.12C516.655 1029.53 516.288 1012.58 515.912 1006.01Z" fill="#F1DDBD"/>
<path d="M323.738 974.899C325.887 971.899 328.082 968.732 330.366 965.851C352.337 974.937 375.402 983.281 398.612 988.549C398.538 993.29 398.567 1006.25 397.673 1010.45C397.375 1007.7 397.546 1003.92 397.588 1001.06C379.232 996.368 340.282 984.603 323.738 974.899Z" fill="#F1DDBD"/>
<path d="M622.692 1228.79C618.201 1240.52 598.479 1256.89 587.742 1263.89C584.877 1265.76 578.179 1268.93 577.595 1271.87L577.085 1271.84C576.238 1262.98 575.185 1254.15 573.926 1245.34C590.766 1242.97 608.379 1238.22 622.692 1228.79Z" fill="#F1DDBD"/>
<path d="M805.171 671.196C808.003 671.879 812.381 672.807 815.01 673.698C829.136 690.075 839.561 694.57 859.68 701.252C851.264 725.706 846.473 733.547 832.405 755.331C803.912 753.888 789.68 776.851 782.885 801.422C762.399 791.169 751.764 803.979 747.587 823.28C746.597 831.243 746.373 837.652 746.339 845.631C698.154 889.823 587.199 904.514 522.65 905.019C444.752 905.628 358.817 890.818 289.742 853.925C286.289 852.08 277.517 848.429 277.605 844.104C282.055 839.967 290.983 842.187 293.804 836.569C293.324 832.441 285.77 828.075 282.399 826.099C249.588 806.869 221.498 779.179 200.442 747.622C197.886 743.792 189.166 730.067 189.926 726.551L192.086 725.523C214.202 717.401 223.117 709.285 239.426 696.641C244.353 692.821 289.021 692.615 298.904 692.987C304.789 723.495 320.481 750.566 346.553 768.116C372.216 785.547 403.832 791.879 434.231 785.677C464.862 779.679 491.805 761.643 509.018 735.611C520.983 717.622 525.79 700.866 528.494 679.776C533.397 679.397 538.196 677.52 542.936 676.18C556.545 672.334 568.359 673.939 581.036 679.91C582.518 688.738 583.952 694.355 587.099 702.86C581.465 701.266 578.824 700.913 571.978 699.744C556.445 697.091 521.49 703.469 533.63 726.841C537.827 734.92 548.956 740.466 558.215 743.361C557.664 751.539 557.285 759.323 555.846 767.417C539.02 774.393 523.579 786.322 514.812 802.566C511.988 807.797 515.826 816.101 522.135 813.22C525.69 811.597 530.152 804.565 533.131 801.876C544.273 789.575 557.351 785.462 573.322 788.686C587.619 791.572 591.722 809.586 601.268 807.961C607.554 804.119 604.383 794.51 600.971 789.63C592.374 777.331 583.5 772.449 569.818 767.814C571.312 759.228 571.848 752.344 571.955 743.563C585.138 739.642 591.895 732.054 595.439 718.841C614.029 747.258 635.916 765.406 669.925 772.603C698.781 778.657 728.859 772.867 753.404 756.536C779.485 739.471 797.644 712.674 803.827 682.131C804.577 678.356 804.887 675.035 805.171 671.196Z" fill="#FFFCEB"/>
<path d="M746.339 845.631C698.154 889.823 587.199 904.514 522.65 905.019C444.752 905.628 358.817 890.818 289.742 853.925C286.289 852.08 277.517 848.429 277.605 844.104C282.055 839.967 290.983 842.187 293.804 836.569C293.324 832.441 285.77 828.075 282.399 826.099C249.588 806.869 221.498 779.179 200.442 747.622C197.886 743.792 189.166 730.067 189.926 726.551L192.086 725.523C260.2 808.579 368.73 868.858 475.989 879.574C496.846 881.658 517.753 883.45 538.73 883.442C603.147 883.415 689.559 870.536 740.548 828.851C742.852 826.966 744.895 824.585 747.587 823.28C746.597 831.243 746.373 837.652 746.339 845.631Z" fill="#F1DDBD"/>
<path d="M403.896 438.899C419.059 433.588 432.983 428.013 448.703 424.283C516.019 408.31 591.376 412.914 654.22 442.982C714.207 471.682 756.423 523.494 785.706 581.963C793.338 597.202 798.696 612.757 804.87 628.5C804.057 630.475 804.733 629.768 802.727 630.642C802.362 630.403 801.996 630.163 801.63 629.924C773.799 522.975 626.216 516.083 586.625 618.236C584.252 624.357 582.621 630.72 580.467 636.81C562.32 630.665 542.587 631.104 524.731 638.049C515.088 607.383 496.499 583.053 467.665 567.936C440.085 553.59 407.922 550.826 378.297 560.256C348.975 569.476 324.509 589.949 310.268 617.183C304.689 627.764 300.885 639.19 299.01 651.003C281.193 651.025 263.695 651.401 246.002 654.01C254.668 618.908 268.496 583.011 286.394 551.5C292.709 540.38 288.057 536.059 276.483 541.18C265.13 535.895 254.52 528.866 250.231 516.571C243.624 497.63 270.058 505.797 277.525 497.849C277.957 496.144 278.048 495.112 276.79 493.568C268.163 482.982 255.923 471.987 252.946 458.053C250.029 444.399 255.237 436.602 269.786 438.377C294.894 441.441 313.181 457.517 327.223 477.407C332.31 484.696 336.297 489.364 342.938 480.198C359.411 462.355 382.207 449.321 403.896 438.899Z" fill="#FFFCEB"/>
<path d="M425.662 515.373C429.609 514.99 433.307 515.647 436.776 517.654C438.414 518.606 439.537 520.243 439.836 522.114C440.397 525.859 437.765 531.131 435.285 533.882C426.23 543.926 416.233 546.138 403.787 547.367C398.088 547.241 393.894 546.949 390.542 541.673C388.708 533.111 418.366 518.481 425.662 515.373Z" fill="#442C1E"/>
<path d="M651.876 506.315C661.698 505.293 665.519 508.776 674.261 512.188C681.573 515.041 705.183 524.722 687.688 532.695C674.089 534.39 655.843 531.346 646.197 520.522C641.386 515.124 647.296 509.283 651.876 506.315Z" fill="#442C1E"/>
<path d="M188.451 284.77C190.001 284.979 191.547 285.211 193.09 285.464C211.315 288.481 232.331 298.412 248.569 306.84C306.157 336.729 366.183 386.022 403.896 438.899C382.207 449.321 359.411 462.355 342.938 480.198C336.729 453.517 281.606 390.258 259.784 371.374C252.355 364.946 222.9 340.746 211.199 341.129C209.35 341.19 208.431 342.581 207.402 343.807C206.675 346.517 206.911 347.01 207.715 349.736C216.172 357.15 226.173 363.735 235.012 371.102C255.354 388.207 273.874 407.367 290.278 428.276C277.953 424.295 261.602 420.341 249.665 426.457C232.452 435.276 235.984 459.642 244.183 473.5C247.427 478.983 250.646 483.944 254.159 489.157C213.903 501.632 241.467 543.044 268.317 553.868C259.88 568.251 257.414 577.741 250.912 591.76C244.064 607.478 241.464 618.624 236.563 634.987C201.452 600.976 180.139 549.569 169.887 502.517C157.79 445.272 158.489 386.063 171.934 329.119C175.685 313.575 179.727 298.329 188.451 284.77Z" fill="#FE5F57"/>
<path d="M207.716 349.736C216.173 357.15 226.174 363.735 235.013 371.102C255.355 388.207 273.875 407.367 290.279 428.276C277.954 424.295 261.603 420.341 249.666 426.457C232.453 435.276 235.985 459.642 244.184 473.5C247.428 478.983 250.647 483.944 254.16 489.157C213.904 501.632 241.468 543.044 268.318 553.868C259.881 568.251 257.415 577.741 250.913 591.76C243.898 585.376 236.146 573.666 231.475 565.788C199.013 511.034 186.742 440.399 201.303 378.298C202.938 371.324 208.387 355.606 207.716 349.736Z" fill="#E84F45"/>
<path d="M402.803 569.635C459.099 564.051 509.245 605.193 514.752 661.483C520.259 717.772 479.036 767.849 422.726 773.276C366.525 778.693 316.556 737.579 311.06 681.4C305.564 625.222 346.618 575.208 402.803 569.635Z" fill="#FEC52E"/>
<path d="M407.802 583.643C456.547 580.874 498.239 618.285 500.735 667.032C503.232 715.78 465.58 757.251 416.807 759.475C368.419 761.68 327.334 724.398 324.858 676.035C322.381 627.671 359.442 586.389 407.802 583.643Z" fill="#442C1E"/>
<path d="M406.46 597.312C447.55 593.746 483.726 624.214 487.191 665.302C490.655 706.39 460.089 742.482 418.983 745.843C378.021 749.192 342.075 718.765 338.623 677.821C335.171 636.878 365.515 600.865 406.46 597.312Z" fill="#FFFCEB"/>
<path d="M421.663 635.351C468.926 631.136 480.14 705.499 431.43 716.027C411.369 717.277 396.864 706.956 391.576 687.363C388.496 675.899 390.121 663.681 396.09 653.42C402.309 642.853 410.156 638.302 421.663 635.351Z" fill="#442C1E"/>
<path d="M435.138 654.662C438.144 653.582 441.5 654.217 443.903 656.321C446.307 658.425 447.379 661.666 446.705 664.788C446.03 667.91 443.715 670.421 440.657 671.345C436.094 672.725 431.262 670.218 429.765 665.693C428.268 661.168 430.651 656.275 435.138 654.662Z" fill="#FFFCEB"/>
<path d="M97.9844 1054.35C126.337 1027.58 177.148 1020.71 212.949 1034.36C235.023 1042.79 252.88 1059.59 262.643 1081.11C259.533 1094.46 257.99 1116.2 257.84 1129.85C258.914 1150.63 261.92 1170.55 278.235 1185.86C287.46 1194.52 300.692 1194.93 311.15 1201.67C312.115 1202.29 317.727 1203.05 319.082 1203.18C325.198 1202.66 327.608 1201.92 333.489 1200.01C334.559 1216.89 336.046 1234.17 337.349 1251.07C319.158 1266.72 296.516 1276.28 272.608 1278.4C204.586 1284.76 150.091 1238.15 143.881 1170.49C137.496 1121.14 165.314 1076.51 97.9844 1054.35Z" fill="#FFFCEB"/>
<path d="M97.9844 1054.35C126.337 1027.58 177.148 1020.71 212.949 1034.36C235.023 1042.79 252.88 1059.59 262.643 1081.11C259.533 1094.46 257.99 1116.2 257.84 1129.85C251.26 1119.14 234.752 1104.63 224.019 1098.01C228.218 1110.97 239.825 1151.45 219.56 1157.48C205.727 1161.6 189.65 1144.25 182.114 1133.86C183.843 1155.09 188.427 1208.7 150.878 1177.75L143.881 1170.49C137.496 1121.14 165.314 1076.51 97.9844 1054.35Z" fill="#FE5F57"/>
<path d="M143.881 1170.49L150.878 1177.75C149.936 1180.84 150.561 1181.82 151.783 1184.86C175.535 1243.81 273.878 1272.12 312.568 1212.96C314.637 1209.8 316.857 1206.27 319.082 1203.18C325.198 1202.66 327.608 1201.92 333.489 1200.01C334.559 1216.89 336.046 1234.17 337.349 1251.07C319.158 1266.72 296.516 1276.28 272.608 1278.4C204.586 1284.76 150.091 1238.15 143.881 1170.49Z" fill="#F1DDBD"/>
<path d="M685.484 560.174C740.569 556.355 788.332 597.877 792.201 652.945C796.069 708.013 754.578 755.801 699.5 759.717C644.354 763.637 596.482 722.094 592.609 666.958C588.736 611.822 630.331 563.998 685.484 560.174Z" fill="#FEC52E"/>
<path d="M684.391 574.021C731.868 569.487 774.043 604.264 778.625 651.724C783.207 699.185 748.464 741.384 700.996 746.012C653.462 750.646 611.181 715.852 606.593 668.325C602.004 620.798 636.848 578.562 684.391 574.021Z" fill="#442C1E"/>
<path d="M685.064 587.433C725.035 583.248 760.87 612.157 765.224 652.1C769.578 692.044 740.814 727.992 700.879 732.513C660.705 737.062 624.487 708.095 620.106 667.912C615.726 627.729 644.853 591.642 685.064 587.433Z" fill="#FFFCEB"/>
<path d="M676.101 624.963C721.677 621.403 730.85 701.366 681.276 707.687C673.502 707.953 665.851 705.694 659.469 701.248C632.332 682.081 639.729 630.221 676.101 624.963Z" fill="#442C1E"/>
<path d="M670.351 647.088C674.763 645.633 679.53 647.956 681.102 652.326C682.674 656.696 680.479 661.523 676.151 663.211C673.247 664.343 669.957 663.811 667.559 661.82C665.161 659.829 664.033 656.693 664.613 653.631C665.194 650.569 667.391 648.064 670.351 647.088Z" fill="#FFFCEB"/>
<path d="M647.219 425.485C681.198 379.684 779.911 282.805 833.367 269.719C843.813 291.113 849.666 313 854.029 336.364C866.94 406.209 861.515 478.208 838.282 545.33C832.353 562.6 821.773 587.596 810.927 602.424C805.788 589.4 799.95 576.662 793.439 564.267C787.888 554.679 782.43 545.022 776.352 535.76C777.308 535.258 778.239 534.712 779.143 534.123C800.804 520.035 816.873 483.094 782.094 476.462L782.46 475.916C791.117 462.88 801.097 444.581 797.451 428.74C792.467 407.082 773.235 408 756.179 411.881C768.777 395.452 801.389 354.494 816.588 341.855C818.857 339.431 819.503 338.913 820.451 335.591C819.932 332.245 820.484 333.415 818.568 330.905C816.326 329.684 814.669 329.522 812.215 330.324C786.348 338.777 720.812 432.937 702.927 458.886C687.501 446.354 665.002 434.432 647.219 425.485Z" fill="#FE5F57"/>
<path d="M756.178 411.881C768.776 395.452 801.388 354.494 816.587 341.855C840.462 403.76 831.722 481.616 806.13 542.139C803.638 548.033 797.654 559.681 793.438 564.267C787.887 554.679 782.429 545.022 776.351 535.76C777.307 535.258 778.238 534.712 779.142 534.123C800.803 520.035 816.872 483.094 782.093 476.462L782.459 475.916C791.116 462.88 801.096 444.581 797.45 428.74C792.466 407.082 773.234 408 756.178 411.881Z" fill="#E84F45"/>
<path d="M795.96 812.871C800.126 798.48 810.983 767.431 829.931 771.977C846.787 776.02 815.602 806.2 828.044 815.231C841.742 816.577 846.081 762.037 869.247 781.644C872.509 785.015 871.697 789.394 871.943 792.527C872.652 801.567 853.074 818.894 858.137 825.512C866.251 836.118 881.506 805.702 883.296 801.244C886.399 801.086 889.736 800.555 892.475 801.719C911.974 820.297 868.699 903.665 855.786 921.037C850.287 921.506 844.764 921.609 839.252 921.345C807.082 919.53 784.362 906.172 763.367 882.597C765.089 864.297 761.89 849.143 762.951 831.165C763.743 817.747 769.339 804.908 781.173 820.867C788.736 830.111 789.501 838.604 794.553 848.867C795.216 849.203 796.891 850.278 797.543 850.374C804.12 851.342 804.554 841.395 804.892 837.072C805.649 827.37 801.118 820.739 795.96 812.871Z" fill="#FE5F57"/>
<path d="M599.637 916.713C617.268 913.872 636.97 910.604 654.128 906.013C656.111 911.675 657.776 917.504 658.191 923.527L658.565 927.569C658.451 944.786 657.556 954.76 654.524 971.839C638.018 976.336 621.339 980.174 604.527 983.343C585.11 986.373 571.811 987.885 552.21 989.191C527.25 989.03 510.494 989.482 484.907 986.394C483.508 970.392 483.482 960.664 483.873 944.787C483.84 941.326 484.173 938.37 484.509 934.936C484.397 930.7 485.295 925.388 485.873 921.1C496.978 921.794 543.797 923.192 553.611 921.157C570.009 920.336 583.452 918.8 599.637 916.713Z" fill="#FE5F57"/>
<path d="M599.637 916.713C617.268 913.872 636.97 910.604 654.128 906.013C656.111 911.675 657.776 917.504 658.191 923.527L658.565 927.569C658.451 944.786 657.556 954.76 654.524 971.839C638.018 976.336 621.339 980.174 604.527 983.343C606.458 972.286 606.104 951.302 604.497 940.351L604.623 939.748C602.847 932.059 601.59 924.745 599.637 916.713Z" fill="#FE5F57"/>
<path d="M599.637 916.713C617.268 913.872 636.97 910.604 654.128 906.013C656.111 911.675 657.776 917.504 658.191 923.527L657.428 927.769C650.3 932.59 614.43 937.416 604.623 939.748C602.847 932.059 601.59 924.745 599.637 916.713Z" fill="#E84F45"/>
<path d="M553.61 921.157C570.008 920.336 583.451 918.8 599.636 916.713C601.589 924.745 602.846 932.059 604.622 939.748L604.496 940.351C606.103 951.302 606.457 972.286 604.526 983.343C585.109 986.373 571.81 987.885 552.209 989.191C552.111 987.197 553.374 977.267 553.666 974.758C554.859 964.544 555.772 955.806 555.853 945.502L555.428 940.725C555.152 934.345 554.289 927.544 553.61 921.157Z" fill="#FFFCEB"/>
<path d="M553.609 921.157C570.007 920.336 583.45 918.8 599.635 916.713C601.588 924.745 602.845 932.059 604.621 939.748L604.495 940.351C588.088 941.459 574.047 944.753 555.852 945.502L555.427 940.725C555.151 934.345 554.288 927.544 553.609 921.157Z" fill="#F1DDBD"/>
<path d="M485.872 921.1C496.977 921.794 543.796 923.192 553.61 921.157C554.289 927.544 555.152 934.345 555.428 940.725C555.074 942.857 555.254 944.251 553.945 945.499C539.653 947.201 499.405 945.652 484.541 944.857C484.75 941.272 484.649 938.528 484.508 934.936C484.396 930.7 485.294 925.388 485.872 921.1Z" fill="#E84F45"/>
<path d="M412.422 990.207C433.858 996.986 478.554 1002.53 501.816 1004.38C502.092 1010.59 502.61 1018.1 502.571 1024.22L502.641 1036.99C502.507 1047.25 501.673 1068.97 499.748 1079.07C498.963 1088.53 496.55 1099.66 494.467 1108.87C467.465 1115.36 425.757 1104.38 401.383 1092.66C403.347 1084.45 405.02 1073.72 406.589 1065.26C409.217 1053.01 411.161 1037.49 412.048 1025.2C412.561 1020.48 412.528 1014.71 412.628 1009.88C412.566 1003.39 412.59 996.682 412.422 990.207Z" fill="#FFFCEB"/>
<path d="M406.589 1065.26C439.845 1078.09 464.073 1080.63 499.748 1079.07C498.963 1088.53 496.55 1099.66 494.467 1108.87C467.465 1115.36 425.757 1104.38 401.383 1092.66C403.347 1084.45 405.02 1073.72 406.589 1065.26Z" fill="#FE5F57"/>
<path d="M412.422 990.207C433.858 996.986 478.554 1002.53 501.816 1004.38C502.092 1010.59 502.61 1018.1 502.571 1024.22C479.537 1022.73 435.035 1014.81 412.628 1009.88C412.566 1003.39 412.59 996.682 412.422 990.207Z" fill="#E84F45"/>
<path d="M412.629 1009.88C435.036 1014.81 479.538 1022.73 502.572 1024.22L502.642 1036.99C472.241 1035 440.971 1035.2 412.049 1025.2C412.562 1020.48 412.529 1014.71 412.629 1009.88Z" fill="#FE5F57"/>
<path d="M763.368 882.597C784.363 906.172 807.083 919.53 839.253 921.345C844.765 921.609 850.288 921.506 855.787 921.037C824.674 965.779 782.809 1003.97 728.852 1017.93C726.562 1005.28 723.983 992.678 721.117 980.141C719.532 973.651 717.773 967.205 715.84 960.809C724.948 952.84 730.258 945.317 733.95 933.826C734.517 930.469 734.876 926.614 735.271 923.192C748.594 912.101 759.667 900.089 763.368 882.597Z" fill="#FFFCEB"/>
<path d="M715.84 960.809C724.948 952.84 730.258 945.317 733.95 933.826C736.46 941.807 735.32 955.366 731.416 963.094C729.704 966.485 721.325 978.173 721.117 980.141C719.532 973.651 717.773 967.205 715.84 960.809Z" fill="#F1DDBD"/>
<path d="M216.56 941.865C205.348 941.995 195.196 944.692 184.238 946.452C180.543 947.046 177.649 944.088 177.289 940.469C175.496 922.421 199.56 928.323 205.834 920.443C209.902 903.435 180.077 918.447 178.448 905.817C175.975 886.639 202.657 897.317 208.101 889.871C211.496 874.974 183.702 886.704 180.995 873.28C182.733 865.506 190.416 867.155 196.425 867.016C204.111 866.838 210.826 868.18 218.287 869.837C232.26 873.33 245.953 877.86 259.252 883.389C270.421 888.5 281.553 893.694 292.645 898.971C294.688 899.931 297.124 900.604 297.72 902.79C299.791 910.392 299.324 912.094 302.844 919.271C299.382 932.553 300.862 939.764 308.93 950.584C304.076 952.091 296.246 953.617 291.22 952.823C280.122 952.533 267.125 949.613 256.432 946.672C239.661 942.715 233.679 941.792 216.56 941.865Z" fill="#FFFCEB"/>
<path d="M259.251 883.389C270.42 888.5 281.552 893.694 292.644 898.971C294.687 899.931 297.123 900.604 297.719 902.79C299.79 910.392 299.323 912.094 302.843 919.271C299.381 932.553 300.861 939.764 308.929 950.584C304.075 952.091 296.245 953.617 291.219 952.823C280.121 952.533 267.124 949.613 256.431 946.672C248.305 925.023 252.28 904.61 259.251 883.389Z" fill="#FE5F57"/>
<path d="M292.644 898.971C294.687 899.931 297.123 900.604 297.719 902.79C299.79 910.392 299.323 912.094 302.843 919.271C299.381 932.553 300.861 939.764 308.929 950.584C304.075 952.091 296.245 953.617 291.219 952.823C281.013 934.837 284.8 916.997 292.644 898.971Z" fill="#E84F45"/>
<path d="M216.56 941.865C205.348 941.995 195.196 944.692 184.238 946.452C180.543 947.046 177.649 944.088 177.289 940.469C175.496 922.421 199.56 928.323 205.834 920.443C209.902 903.435 180.077 918.447 178.448 905.817C175.975 886.639 202.657 897.317 208.101 889.871C211.496 874.974 183.702 886.704 180.995 873.28C182.733 865.506 190.416 867.155 196.425 867.016C204.111 866.838 210.826 868.18 218.287 869.837C213.088 893.022 206.614 919.056 216.56 941.865Z" fill="#FE5F57"/>
<path d="M691.187 1267.84C688.204 1276.7 683.084 1291.17 682.017 1300.01C689.346 1308.68 703.201 1318.87 704.052 1331.31C704.251 1334.23 700.915 1337.3 698.022 1337.5C696.406 1330.77 691.84 1313.7 683.418 1313.23C680.933 1314.24 680.836 1314.78 679.282 1317.15C679.184 1321.03 684.639 1333.38 686.053 1339.65C680.864 1341.11 677.394 1341.91 672.118 1342.92C672.254 1337.05 672.174 1333.97 669.709 1328.51C667.052 1322.62 658.405 1312.27 651.173 1316.26C649.821 1318.43 649.894 1318.59 649.89 1321.23C655.266 1332.43 658.368 1330.09 660.304 1343.91C646.383 1343.98 599.664 1342.3 589.816 1332.84C582.57 1325.88 578.546 1284.15 577.084 1271.84L577.594 1271.87C580.051 1272.9 591.86 1274.78 594.933 1275.17C630.05 1279.73 657.495 1277.21 691.187 1267.84Z" fill="#FE5F57"/>
<path d="M279.324 1083.9C306.533 1078.28 324.3 1075.95 349.786 1092.66C352.109 1094.17 354.379 1095.75 356.592 1097.41C354.128 1111.91 352.697 1124.98 351.656 1139.61C351.017 1148.59 351.976 1176.18 340.6 1176.63C330.451 1172.22 330.64 1149.58 321.871 1147.93C310.461 1154.25 326.172 1175.89 325.459 1183.85C324.404 1185.55 324.436 1186.12 322.088 1186.62C319.317 1187.22 316.421 1186.73 314.001 1185.26C298.961 1176.08 303.166 1152.55 295.868 1148.11C292.891 1148.05 293.88 1147.69 291.461 1149.05C287.169 1154.79 291.12 1171.38 292.165 1179.19C266.538 1158.15 274.632 1112.75 279.324 1083.9Z" fill="#FE5F57"/>
<path d="M386.807 907.187C403.777 910.798 420.539 912.806 436.536 916.095C452.028 918.293 470.208 920.711 485.872 921.1C485.294 925.388 484.396 930.7 484.508 934.936C484.172 938.37 483.839 941.326 483.872 944.787C483.481 960.664 483.507 970.392 484.906 986.394C468.343 984.397 451.857 981.8 435.482 978.608C418.614 975.293 401.865 971.397 385.266 966.925C382.365 957.816 382.73 945.226 382.74 935.642C382.993 933.775 383.078 931.644 383.206 929.743C383.42 922.999 385.337 913.74 386.807 907.187Z" fill="#FFFCEB"/>
<path d="M386.807 907.187C403.777 910.798 420.539 912.806 436.536 916.095C434.456 924.496 433.445 930.4 432.303 939.02L432.301 939.662C431.719 955.604 432.941 962.719 435.482 978.608C418.614 975.293 401.865 971.397 385.266 966.925C382.365 957.816 382.73 945.226 382.74 935.642C382.993 933.775 383.078 931.644 383.206 929.743C383.42 922.999 385.337 913.74 386.807 907.187Z" fill="#FE5F57"/>
<path d="M386.806 907.187C403.776 910.798 420.538 912.806 436.535 916.095C434.455 924.496 433.444 930.4 432.302 939.02C420.858 936.935 392.786 930.544 383.205 929.743C383.419 922.999 385.336 913.74 386.806 907.187Z" fill="#E84F45"/>
<path d="M436.536 916.095C452.028 918.293 470.208 920.711 485.872 921.1C485.294 925.388 484.396 930.7 484.508 934.936C484.172 938.37 483.839 941.326 483.872 944.787C466.173 943.456 449.758 941.264 432.301 939.662L432.303 939.02C433.445 930.4 434.456 924.496 436.536 916.095Z" fill="#F1DDBD"/>
<path d="M722.495 880.492C726.103 891.339 727.39 902.42 720.206 912.028C725.199 935.458 714.301 944.74 695.13 955.716C680.911 962.825 669.837 966.995 654.523 971.839C657.555 954.76 658.45 944.786 658.564 927.569L658.19 923.527C657.775 917.504 656.11 911.675 654.127 906.013C667.807 902.875 680.273 898.676 693.509 894.209C704.632 889.988 712.075 886.278 722.495 880.492Z" fill="#FFFCEB"/>
<path d="M722.496 880.492C726.104 891.339 727.391 902.42 720.207 912.028C725.2 935.458 714.302 944.74 695.131 955.716C697.736 939.923 698.885 927.939 697.358 912.105C696.008 906.205 694.777 900.141 693.51 894.209C704.633 889.988 712.076 886.278 722.496 880.492Z" fill="#FE5F57"/>
<path d="M654.127 906.013C667.807 902.875 680.273 898.676 693.509 894.209C694.776 900.141 696.007 906.205 697.357 912.105C686.642 916.776 669.289 924.812 658.564 927.569L658.19 923.527C657.775 917.504 656.11 911.675 654.127 906.013Z" fill="#F1DDBD"/>
<path d="M767.662 423.936C799.09 421.125 776.249 465.097 766.694 475.644C763.972 478.649 759.481 484.252 762.079 487.924C767.249 490.435 782.093 486.584 785.68 493.86C791.813 506.299 775.072 519.516 766.789 524.957L763.794 520.532C748.746 497.687 731.613 485.495 714.75 466.865C715.551 465.612 716.384 464.379 717.248 463.167C730.157 445.001 744.281 427.83 767.662 423.936Z" fill="#FFFCEB"/>
<path d="M315.486 884.938C325.245 889.515 336.857 893.4 347.093 896.665C358.17 900.127 375.476 905.339 386.808 907.187C385.338 913.74 383.421 922.999 383.207 929.743C383.079 931.644 382.994 933.775 382.741 935.642C382.731 945.226 382.366 957.816 385.267 966.925C370.608 962.719 356.238 957.564 342.248 951.492C320.802 942.798 314.266 939.005 319.465 915.434C312.221 906.135 313.873 895.817 315.486 884.938Z" fill="#FFFCEB"/>
<path d="M315.486 884.938C325.245 889.515 336.857 893.4 347.093 896.665C345.571 904.035 343.856 911.757 342.622 919.148C341.471 928.478 340.084 942.24 342.248 951.492C320.802 942.798 314.266 939.005 319.465 915.434C312.221 906.135 313.873 895.817 315.486 884.938Z" fill="#FE5F57"/>
<path d="M347.092 896.665C358.169 900.127 375.475 905.339 386.807 907.187C385.337 913.74 383.42 922.999 383.206 929.743C383.078 931.644 382.993 933.775 382.74 935.642C382.644 933.155 382.609 932.283 382.032 929.874C380.537 928.663 347.441 920.509 342.621 919.148C343.855 911.757 345.57 904.035 347.092 896.665Z" fill="#F1DDBD"/>
<path d="M266.756 665.568C276.274 664.981 286.996 665.141 296.615 665.08C296.46 669.279 296.758 674.148 296.914 678.396C282.926 678.722 266.897 678.962 253.049 680.13C243.062 680.144 232.944 685.567 229.217 684.619C216.46 668.061 259.002 666.048 266.756 665.568Z" fill="#FEC52E"/>
<path d="M550.7 646.073C561.604 645.245 568.946 646.284 579.098 650.254C578.714 654.729 578.705 659.726 578.598 664.253C569.213 661.444 565.465 660.735 555.744 660.501C545.271 660.683 538.464 662.45 529.004 666.622C528.959 661.146 528.453 655.684 527.49 650.293C536.773 647.354 541.318 646.708 550.7 646.073Z" fill="#FEC52E"/>
<path d="M400.192 1104.92C406.376 1107.71 412.682 1110.4 418.904 1113.12C417.411 1117.34 416.143 1121.71 413.534 1125.33C410.793 1126.97 405.731 1128.82 402.67 1127.95C393.393 1125.29 398.715 1110.36 400.192 1104.92Z" fill="#FE5F57"/>
<path d="M806.158 644.475C818.582 643.702 834.007 646.035 826.564 662.854L824.893 663.138C818.334 659.92 813.471 658.401 806.284 657.61C806.345 653.642 805.439 648.014 806.158 644.475Z" fill="#FEC52E"/>
<path d="M430.848 1116.25C437.015 1117.79 443.161 1119.4 449.285 1121.1C448.06 1126.38 447.165 1129.74 444.413 1134.42C428.981 1147.93 429.397 1125.81 430.848 1116.25Z" fill="#FE5F57"/>
<path d="M462.378 1123.03C466.999 1123.37 473.052 1122.3 476.348 1124.97C477.403 1129.2 474.67 1135.05 472.636 1138.93C469.775 1142.11 467.92 1143.93 464.055 1141.46C460.653 1136.4 461.649 1128.76 462.378 1123.03Z" fill="#FE5F57"/>
<path d="M748.481 865.644C750.944 873.68 746.314 889.19 741.522 895.869L740.799 895.283C740.613 885.624 739.778 881.816 737.586 872.66C741.258 870.699 745.009 868.005 748.481 865.644Z" fill="#F1DDBD"/>
<path d="M492.618 1122.19C493.437 1122.11 493.623 1122.31 494.505 1122.6C495.893 1126.57 495.155 1133.31 494.149 1137.35C493.319 1140.68 492.503 1140.66 489.9 1142.29L488.078 1140.46C487.088 1135.63 486 1129.12 486.448 1124.25C488.32 1122.56 489.802 1122.76 492.618 1122.19Z" fill="#FE5F57"/>
<path d="M539.862 78.2981C565.945 76.2031 592.029 86.2961 601.255 112.553C603.902 120.088 604.733 128.14 603.68 136.057C599.974 162.591 576.316 168.073 561.447 187.084C554.795 195.624 553.939 205.939 550.186 215.553C546.1 226.022 526.843 225.785 525.266 213.259C523.234 197.11 528.392 185.59 537.334 172.789C545.695 161.836 560.99 154.255 569.187 142.487C584.874 120.281 556.372 102.645 536.061 107.71C516.847 112.501 516.632 124.413 508.999 139.269C502.895 149.718 482.537 145.148 482.317 132.856C481.736 100.406 510.992 81.2637 539.862 78.2981Z" fill="#442C1E"/>
<path d="M364.061 127.033C384.668 125.179 403.98 134.609 411.615 154.703C421.876 181.707 397.42 196.231 389.439 219.123C386.879 226.466 391.268 237.431 388.387 244.653C379.294 255.931 367.366 252.977 364.468 239.522C360.564 221.397 363.899 213.018 372.643 198.565C374.609 195.654 376.56 192.732 378.494 189.799C386.004 178.386 392.1 165.814 377.188 156.409C371.361 152.735 362.541 153.165 356.137 154.733C347.523 156.842 340.967 164.319 339.219 172.907C337.69 180.149 338 192.478 328.553 194.777C325.98 195.403 316.991 193.715 315.545 191.727C301.932 173.005 319.307 144.174 337.371 135.022C349.622 128.927 354.506 127.976 364.061 127.033Z" fill="#442C1E"/>
<path d="M712.958 136.696C722.195 135.903 728.953 136.459 738.066 139.326C764.705 147.705 781.863 171.242 772.892 199.36C765.27 223.247 738.204 221.745 720.024 232.602C710.487 238.297 708.774 258.913 694.435 253.219C682.228 248.556 686.894 238.866 690.753 230.099C705.971 202.957 729.718 212.705 746.562 191.807C753.068 183.735 741.474 168.63 733.202 165.116C724.787 161.542 715.068 160.261 707.32 167.143C702.124 171.636 694.373 186.811 684.623 181.368C661.654 161.83 693.317 140.206 712.958 136.696Z" fill="#442C1E"/>
<path d="M536.148 236.389C544.898 236.629 553.127 240.046 556.062 248.986C557.56 253.402 557.191 258.238 555.042 262.377C551.93 268.345 547.563 270.485 541.501 272.34C531.417 273.489 522.077 270.33 519.704 259.396C518.641 254.347 519.621 249.081 522.432 244.753C526.113 239.148 529.978 237.661 536.148 236.389Z" fill="#442C1E"/>
<path d="M387.722 261.272C396.456 259.745 404.775 265.586 406.301 274.319C407.827 283.051 401.983 291.367 393.249 292.892C384.516 294.416 376.2 288.575 374.674 279.844C373.148 271.114 378.989 262.799 387.722 261.272Z" fill="#442C1E"/>
<path d="M681.576 263.555C689.837 261.619 698.123 266.673 700.181 274.902C702.239 283.132 697.308 291.489 689.108 293.669C683.694 295.108 677.925 293.52 674.011 289.513C670.097 285.507 668.645 279.703 670.212 274.326C671.779 268.949 676.122 264.833 681.576 263.555Z" fill="#442C1E"/>
</svg>
