<svg width="1024" height="1536" viewBox="0 0 1024 1536" fill="none" xmlns="http://www.w3.org/2000/svg">
<path d="M618.499 375.894C651.743 314.931 695.261 257.143 748.396 211.846C758.58 203.164 773.607 192.005 786.339 187.863C791.548 186.168 798.628 185.944 803.272 188.866C824.577 202.275 841.938 253.959 847.963 276.166C866.305 343.77 869.584 420.53 855.629 489.096C852.898 502.515 849.012 518.686 844.13 531.289C861.108 551.128 872.239 568.347 878.979 594.075C889.034 599.537 899.683 604.115 910.938 606.4C927.35 609.731 927.531 615.751 925.432 630.484C921.813 655.889 911.596 679.989 898.931 702.135C891.493 715.014 883.017 727.266 873.588 738.768C893.885 761.044 903.221 780.876 906.036 811.254C912.856 884.86 875.013 959.04 821.419 1007.52C810.652 1017.22 798.859 1025.71 786.248 1032.84C801.689 1133.99 775.427 1227.31 741.106 1321.3C756.714 1330.36 767.759 1334.21 771.354 1353.51C777 1353.6 784.934 1355.98 790.359 1357.76C835.038 1372.39 815.585 1387.06 782.929 1395.04C738.722 1405.84 695.985 1408.8 650.827 1410.45C561.734 1413.71 471.062 1414.85 383.576 1395.51C372.459 1393.05 360.979 1389.76 351.018 1384.22C346.502 1382.02 342.756 1376.26 347.076 1371.85C360.974 1357.64 393.632 1353.12 412.087 1349.77C410.281 1334.64 407.586 1307.87 407.113 1292.86C364.084 1330.59 320.792 1347.83 262.835 1344.13C221.893 1341.51 181.965 1323.47 154.796 1292.42C127.981 1261.77 117.013 1225.11 115.885 1184.92C115.299 1164.05 120.981 1133.3 108.001 1115.45C93.2106 1095.12 70.7876 1101.26 63.6659 1093.24C62.5935 1092.03 62.0844 1090.49 62.132 1088.88C62.3338 1082.05 71.0343 1074.79 75.868 1070.68C106.344 1044.99 145.828 1032.54 185.533 1036.11C226.338 1039.6 256.526 1058.49 282.755 1089.21C302.925 1112.84 321.325 1153.69 345.766 1171.49C341.432 1163.63 337.219 1155.65 334.569 1147.04C323.706 1111.77 328.9 1063.7 341.079 1029.43C292.835 1034.11 265.996 1026.47 222.025 1007.39C211.435 1002.79 195.904 1001.94 184.691 998.775C174.735 996.482 166.893 1003.77 157.415 995.304C148.157 987.034 151.226 978.911 157.976 970.78C148.571 961.356 149.089 956.023 155.953 945.307C152.476 942.394 147.815 937.695 148.144 933.201C149.81 910.46 164.95 915.239 180.398 915.482C185.962 915.569 200.37 912.926 207.159 912.544C199.828 909.537 185.209 903.897 177.674 902.28C166.577 899.9 154.471 903.701 148.299 889.526C145.301 882.641 148.258 876.549 153.038 871.712C146.076 862.358 142.741 855.181 153.038 846.191C146.703 837.825 143.647 827.471 152.894 819.312C160.908 812.24 175.249 815.88 184.644 816.357C195.265 816.2 206.412 813.551 217.368 816.074C256.454 822.156 277.165 854.204 309.648 872.049C326.891 881.521 342.934 885.11 362.208 887.486C362.932 883.593 363.664 878.971 364.541 875.174C354.478 871.639 261.484 836.345 296.344 817.357C269.635 802.692 245.905 783.162 226.379 759.774C203.769 732.417 219.989 735.221 241.733 724.242C245.321 722.431 249.004 719.953 252.315 717.644C238.193 691.619 247.036 653.68 280.394 649.282C280.713 642.457 281.057 634.494 282.12 627.737C224.339 576.902 192.296 487.916 187.511 412.415C186.53 396.773 186.365 381.091 187.015 365.432C188.325 335.759 192.322 309.3 199.89 280.566C209.5 244.085 228.279 244.996 260.428 255.262C323.197 275.306 380.73 314.098 429.073 358.367C440.781 369.183 460.766 389.593 469.301 402.533C516.884 381.184 566.714 373.931 618.499 375.894Z" fill="#4D2C28"/>
<path d="M606.508 1339.7C607.342 1349.13 607.945 1367 617.026 1372.57C647.32 1391.16 695.361 1385.93 729.834 1384.45C750.383 1383.57 770.631 1376.54 771.354 1353.51C777 1353.6 784.934 1355.98 790.359 1357.76C835.038 1372.39 815.585 1387.06 782.929 1395.04C738.722 1405.84 695.985 1408.8 650.827 1410.45C561.734 1413.71 471.062 1414.85 383.576 1395.51C372.459 1393.05 360.979 1389.76 351.018 1384.22C346.502 1382.02 342.756 1376.26 347.076 1371.85C360.974 1357.64 393.632 1353.12 412.087 1349.77C413.501 1362.61 414.556 1376.21 427.239 1383.38C448.475 1395.03 475.654 1395.75 499.329 1395.42C545.587 1394.76 564.766 1389.63 552.333 1339.43C559.501 1339.21 604.833 1340.26 606.508 1339.7Z" fill="#F9E1C7"/>
<path d="M581.949 1266.46C588.304 1266.59 594.432 1266.77 600.788 1266.46C603.24 1290.45 604.132 1315.43 606.508 1339.7C604.833 1340.26 559.501 1339.21 552.333 1339.43C554.606 1325.87 574.967 1278.94 581.949 1266.46Z" fill="#FFF9E9"/>
<path d="M222.766 264.513C227.059 264.244 231.368 264.433 235.62 265.078C254.533 267.766 279.41 277.714 296.556 286.028C358.753 316.183 421.901 365.297 463.696 420.588C527.192 388.911 624.147 381.517 691.209 405.161C746.143 424.528 797.463 470.097 823.459 521.835C800.146 508.393 770.105 503.721 743.98 510.772C715.084 518.647 690.535 537.743 675.798 563.81C666.101 580.774 660.005 600.859 660.153 620.502C629.388 613.588 598.407 617.76 572.408 636.479C563.071 608.778 543.229 585.85 517.152 572.63C492.177 559.97 462.141 558.223 435.621 566.916C406.792 576.281 382.899 596.77 369.251 623.83C363.772 634.658 359.141 649.863 358.101 661.988C337.202 657.837 316.277 653.818 295.328 649.931C296.044 641.096 297.104 632.293 298.505 623.54C291.03 616.537 283.424 609.687 276.791 601.828C209.112 521.642 189.593 411.25 209.067 309.776C211.913 294.944 215.594 277.684 222.766 264.513Z" fill="#FFF9E9"/>
<path d="M222.766 264.513C227.059 264.244 231.368 264.433 235.62 265.078C254.533 267.766 279.41 277.714 296.556 286.028C358.753 316.183 421.901 365.297 463.696 420.588C440.074 430.508 417.365 452.681 399.8 470.762L393.777 469.716C390.382 469.509 389.328 468.12 387.324 465.636C372.569 440.708 342.538 422.376 313.379 414.81C309.382 414.479 292.207 408.581 291.425 415.412C289.5 432.24 297.491 449.438 308.848 461.542C311.829 464.719 316.429 468.74 318.809 471.942C316.899 472.595 310.281 474.888 308.688 474.721C247.374 468.302 311.346 521.202 328.301 531.528C329.242 532.1 328.56 534.092 328.285 534.793C324.613 542.92 321.064 551.065 317.514 559.235C314.303 566.623 312.217 576.567 309.335 583.14C305.186 595.58 300.574 610.495 298.505 623.54C291.03 616.537 283.424 609.687 276.791 601.828C209.112 521.642 189.593 411.25 209.067 309.776C211.913 294.944 215.594 277.684 222.766 264.513Z" fill="#FA7876"/>
<path d="M240.73 311.165C246.328 309.337 255.484 313.119 260.631 315.903C316.671 346.215 368.393 398.282 396.648 455.505C399.845 461.979 401.308 466.948 393.777 469.716C390.382 469.509 389.328 468.12 387.324 465.636C372.569 440.708 342.538 422.376 313.379 414.81C309.382 414.479 292.207 408.581 291.425 415.412C289.5 432.24 297.491 449.438 308.848 461.542C311.829 464.719 316.429 468.74 318.809 471.942C316.899 472.595 310.281 474.888 308.688 474.721C247.374 468.302 311.346 521.202 328.301 531.528C329.242 532.1 328.56 534.092 328.285 534.793C324.613 542.92 321.064 551.065 317.514 559.235C314.303 566.623 312.217 576.567 309.335 583.14C302.762 581.411 301.424 580.758 299.104 574.419C294.463 568.503 289.27 560.004 285.008 553.623C264.062 522.273 248.494 490.629 239.138 453.931C229.435 415.867 230.245 373.449 235.599 334.729C236.366 329.178 238.034 315.749 240.73 311.165Z" fill="#E4605E"/>
<path d="M240.73 311.165C246.328 309.337 255.484 313.119 260.631 315.903C316.671 346.215 368.393 398.282 396.648 455.505C399.845 461.979 401.308 466.948 393.777 469.716C390.382 469.509 389.328 468.12 387.324 465.636C372.569 440.708 342.538 422.376 313.379 414.81C309.382 414.479 292.207 408.581 291.425 415.412C289.5 432.24 297.491 449.438 308.848 461.542C311.829 464.719 316.429 468.74 318.809 471.942C316.899 472.595 310.281 474.888 308.688 474.721C247.374 468.302 311.346 521.202 328.301 531.528C329.242 532.1 328.56 534.092 328.285 534.793C324.613 542.92 321.064 551.065 317.514 559.235C314.303 566.623 312.217 576.567 309.335 583.14C302.762 581.411 301.424 580.758 299.104 574.419C301.437 562.418 307.741 548.126 312.699 536.976C296.681 527.018 270.875 502.515 269.283 482.618C268.116 468.043 279.889 462.619 292.72 462.358C288.634 456.271 283.46 447.89 281.173 440.901C277.161 429.792 271.036 403.838 287.792 399.839C307.273 395.19 336.644 406.057 353.392 414.684C345.945 407.011 338.52 398.03 330.977 390.075C316.938 375.448 302.065 361.644 286.431 348.735C272.286 337.206 257.387 327.808 242.659 317.153C240.884 315.87 240.893 313.21 240.73 311.165Z" fill="#4D2C28"/>
<path d="M246.297 391.15C256.175 392.998 268.251 405.655 262.043 415.223C251.148 413.354 240.715 402.374 246.297 391.15Z" fill="#FA7876"/>
<path d="M387.324 465.636C389.328 468.12 390.382 469.509 393.777 469.716L399.8 470.762C381.012 493.33 363.677 515.971 350.152 542.214C346.481 549.336 343.071 556.589 339.929 563.96C337.824 568.815 334.721 577.224 331.843 581.278C329.518 582.381 330.526 582.159 327.942 581.901C326.865 580.806 326.082 579.595 326.157 578.018C328.1 537.101 363.151 494.066 387.324 465.636Z" fill="#FEB9A5"/>
<path d="M451.338 525.252C459.039 524.488 473.151 526.012 472.482 536.641C468.238 543.158 456.079 537.959 447.753 539.774C439.894 541.487 440.678 540.986 433.167 545.257C428.603 548.033 424.543 554.262 419.55 553.992C416.062 550.578 420.69 542.913 423.2 539.798C430.749 530.428 439.621 526.671 451.338 525.252Z" fill="#4D2C28"/>
<path d="M711.004 477.85C720.118 477.426 743.731 481.25 744.702 492.277C740.693 496.157 726.31 490.05 719.847 489.366C705.319 489.137 703.583 497.727 695.542 498.191C691.713 496.229 692.873 491.502 694.748 488.306C698.414 482.057 704.312 479.793 711.004 477.85Z" fill="#4D2C28"/>
<path d="M387.482 971.282C422.806 972.086 456.36 985.168 491.292 991.998L491.422 1007.96C491.342 1047.25 483.282 1085.24 481.069 1124.34C480.746 1125.03 483.625 1129.85 483.632 1129.82C481.231 1141.38 475.521 1152.47 485.268 1162.79C491.914 1169.82 503.01 1168.19 510.346 1163.75C521.109 1177.82 533.341 1179.51 544.645 1164.65C553.972 1180.51 564.074 1181.57 577.675 1169.62C586.004 1177.35 596.776 1182.31 605.945 1171.86C613.647 1163.08 612.568 1150.67 610.629 1139.93C623.422 1106.99 625.837 1055.79 623.965 1020.72C623.613 1015.13 623.288 1010.41 622.53 1004.84C672.368 1003.22 710.759 999.01 756.932 978.814L761.733 994.01C790.204 1098.46 772.109 1188.25 738.13 1288.35C712.832 1298.31 682.734 1301.03 655.76 1299.63L654.48 1299.66C640.083 1298.43 630.379 1297.27 616.451 1293.3C615.498 1287.25 615.285 1272.28 615.064 1265.5C637.796 1261.6 680.618 1253.21 697.331 1235.88L698.322 1233.31L697.6 1231.82C695.007 1231.25 686.116 1235.6 682.932 1236.82C674.853 1239.87 666.605 1242.45 658.23 1244.55C633.291 1250.75 602.912 1254.76 577.285 1251.91C565.575 1266.55 557.642 1286.66 550.551 1304.06C545.806 1315.76 541.617 1327.69 537.999 1339.78C541.396 1348.9 547.315 1363.41 542.024 1372.79C538.469 1379.09 530.332 1380.51 523.814 1382.17C523.197 1371.63 518.473 1353 508.651 1347.28C506.198 1347.19 506.931 1346.85 505.443 1348.17C504.993 1351.37 510.772 1364.46 511.563 1369.55C512.388 1374.86 512.616 1377.54 512.889 1383.04C503.23 1384.09 491.816 1383.89 482.141 1383.41C481.783 1374.45 477.388 1351.4 464.676 1353.13C464.443 1353.63 464.211 1354.13 463.978 1354.63C465.915 1358.76 468.505 1364.96 469.878 1369.11C471.47 1373.92 471.505 1377.9 471.727 1382.48C433.321 1379.87 425.203 1373.64 424.288 1335.47C424.013 1324.02 422.081 1308.16 421.211 1296.36C420.356 1292 419.497 1278.75 419.125 1274.02C417.977 1259.42 416.274 1243.37 416.252 1228.78C415.151 1222.38 415.642 1203.41 415.691 1196.14C468.902 1185.21 461.774 1141.73 464.323 1101.3C465.313 1085.6 472.631 1055.66 477.096 1040.59C478.61 1034.89 482.137 1027.81 479.875 1023.1C477.581 1021.24 478.68 1021.73 475.646 1021.31C465.38 1024.76 456.885 1059.54 454.488 1069.61C431.213 1049.97 396.737 1042.38 367.501 1051.15C361.279 1053.02 355.258 1055.56 349.281 1058.09L348.356 1056.98C354.903 1031.47 363.364 1002.73 379.311 981.344L387.482 971.282Z" fill="#FFF9E9"/>
<path d="M421.211 1296.36C453.959 1305.96 488.129 1309.8 522.192 1307.7C532.298 1306.98 541.52 1304.85 550.551 1304.06C545.806 1315.76 541.617 1327.69 537.999 1339.78C541.396 1348.9 547.315 1363.41 542.024 1372.79C538.469 1379.09 530.332 1380.51 523.814 1382.17C523.197 1371.63 518.473 1353 508.651 1347.28C506.198 1347.19 506.931 1346.85 505.443 1348.17C504.993 1351.37 510.772 1364.46 511.563 1369.55C512.388 1374.86 512.616 1377.54 512.889 1383.04C503.23 1384.09 491.816 1383.89 482.141 1383.41C481.783 1374.45 477.388 1351.4 464.676 1353.13C464.443 1353.63 464.211 1354.13 463.978 1354.63C465.915 1358.76 468.505 1364.96 469.878 1369.11C471.47 1373.92 471.505 1377.9 471.727 1382.48C433.321 1379.87 425.203 1373.64 424.288 1335.47C424.013 1324.02 422.081 1308.16 421.211 1296.36Z" fill="#FA7876"/>
<path d="M615.064 1265.5C637.796 1261.6 680.618 1253.21 697.331 1235.88C694.766 1250.21 672.466 1277.92 663.436 1289.03C662.031 1290.76 656.171 1298 655.76 1299.63L654.48 1299.66C640.083 1298.43 630.379 1297.27 616.451 1293.3C615.498 1287.25 615.285 1272.28 615.064 1265.5Z" fill="#F9E1C7"/>
<path d="M622.53 1004.84C672.368 1003.22 710.759 999.01 756.932 978.814L761.733 994.01C720.57 1014.14 669.511 1020.81 623.965 1020.72C623.613 1015.13 623.288 1010.41 622.53 1004.84Z" fill="#F9E1C7"/>
<path d="M387.482 971.282C422.806 972.086 456.36 985.168 491.292 991.998L491.422 1007.96C464.273 998.296 437.53 988.121 408.759 983.608C399.967 982.23 388.468 982.015 379.311 981.344L387.482 971.282Z" fill="#F9E1C7"/>
<path d="M415.691 1196.14C468.902 1185.21 461.774 1141.73 464.323 1101.3C465.313 1085.6 472.631 1055.66 477.096 1040.59C479.559 1046.66 473.934 1067.83 472.479 1074.9C462.376 1123.96 477.578 1196.02 416.31 1216.03C416.411 1219.83 416.725 1225.14 416.252 1228.78C415.151 1222.38 415.642 1203.41 415.691 1196.14Z" fill="#F9E1C7"/>
<path d="M579.221 675.157C601.456 648.154 634.255 646.867 665.252 655.879C667.991 664.573 670.74 670.463 674.716 678.585C669.432 675.816 663.784 673.134 657.518 672.242C641.768 669.334 607.341 676.017 604.801 695.906C601.951 718.212 634.649 723.894 649.49 725.453C647.281 738.772 642.684 748.19 629.939 754.352C620.69 758.858 610.001 759.394 600.346 755.837C587.704 751.25 590.154 748.331 585.268 737.859C583.877 736.582 582.461 736.042 580.557 736.254C575.476 736.822 574.912 742.221 575.559 746.028C579.066 766.692 605.608 772.575 623.12 769.172C635.942 766.681 646.594 760.944 654.051 750.09C673.905 765.048 703.984 759.895 711.661 734.348C712.912 730.185 713.254 723.696 710.862 719.925C709.876 718.401 708.295 717.361 706.505 717.059C704.201 716.647 703.247 716.978 701.401 718.132C698.897 721.692 699.706 727.096 699.804 731.634C698.837 733.43 697.726 735.145 696.481 736.762C692.693 741.613 687.144 744.777 681.039 745.567C672.627 746.589 666.375 743.347 659.979 738.372C660.409 731.689 660.56 729.821 659.971 723.035C677.12 716.088 683.202 710.573 683.503 691.294C728.119 741.845 792.508 750.385 844.513 705.016C845.482 707.752 846.084 721.871 844.911 724.084C822.42 722.228 810.34 732.331 805.193 753.753C787.733 764.886 781.786 779.092 783.497 799.739C784.707 807.21 785.199 810.61 787.466 817.818C774.111 829.033 754.902 838.795 739.253 845.894C679.596 872.957 610.461 884.958 545.034 884.96C478.833 884.963 405.072 878.217 344.655 850.286C330.657 843.815 317.447 838.402 306.283 827.436C312.607 826.553 327.327 825.389 329.798 819.347C328.287 816.401 303.276 804.35 297.76 801.115C272.578 786.321 250.381 766.955 232.312 744.013L241.893 740.131C261.616 729.699 278.658 717.882 285.643 695.197C286.416 692.643 287.153 690.078 287.852 687.503C311.985 692.173 336.19 696.465 360.458 700.379C366.41 721.086 371.946 732.541 386.471 748.827C404.613 766.949 423.417 777.578 448.645 782.757C507.407 793.924 566.145 753.29 576.81 694.549C578 687.994 578.648 681.793 579.221 675.157Z" fill="#FFF9E9"/>
<path d="M232.312 744.013L241.893 740.131C244.915 745.163 257.888 755.046 263.134 758.684C405.93 857.711 602.055 900.655 761.669 815.584C765.32 813.638 781.717 802.755 783.497 799.739C784.707 807.21 785.199 810.61 787.466 817.818C774.111 829.033 754.902 838.795 739.253 845.894C679.596 872.957 610.461 884.958 545.034 884.96C478.833 884.963 405.072 878.217 344.655 850.286C330.657 843.815 317.447 838.402 306.283 827.436C312.607 826.553 327.327 825.389 329.798 819.347C328.287 816.401 303.276 804.35 297.76 801.115C272.578 786.321 250.381 766.955 232.312 744.013Z" fill="#F9E1C7"/>
<path d="M386.471 748.827C404.613 766.949 423.417 777.578 448.645 782.757C426.934 800.676 383.196 797.161 371.527 768.286C367.054 757.219 376.446 750.855 386.471 748.827Z" fill="#FEB9A5"/>
<path d="M80.2363 1083.94C88.7437 1075.72 100.318 1069.2 110.689 1063.63C154.517 1040.06 221.706 1046.25 256.82 1083.91C294.566 1120.6 301.347 1159.81 345.022 1188.69C363.985 1198.28 381.242 1202.03 402.289 1195.8C401.087 1222.44 402.428 1246.32 405.334 1272.8C345.375 1337.49 246.28 1353.91 176.361 1292.74C156.032 1274.96 140.266 1246.78 134.684 1220.32C118.251 1165.75 158.073 1104.17 80.2363 1083.94Z" fill="#FFF9E9"/>
<path d="M80.2363 1083.94C88.7437 1075.72 100.318 1069.2 110.689 1063.63C154.517 1040.06 221.706 1046.25 256.82 1083.91C257.119 1088.42 261.985 1095.42 263.576 1100.01C283.496 1157.41 277.645 1175.03 219.877 1141.54C224.667 1156.24 231.163 1179.42 223.729 1193.44C210.719 1217.99 182.852 1191.38 171.942 1180.27C173.292 1192.17 171.851 1229.22 153.987 1230.8C149.346 1231.21 143.185 1227.86 139.642 1224.72C139.168 1223.91 136.612 1221.04 135.858 1220.15L134.684 1220.32C118.251 1165.75 158.073 1104.17 80.2363 1083.94Z" fill="#FA7876"/>
<path d="M345.022 1188.69C363.985 1198.28 381.242 1202.03 402.289 1195.8C401.087 1222.44 402.428 1246.32 405.334 1272.8C345.375 1337.49 246.28 1353.91 176.361 1292.74C156.032 1274.96 140.266 1246.78 134.684 1220.32L135.858 1220.15C136.612 1221.04 139.168 1223.91 139.642 1224.72C139.513 1225.17 139.195 1226.31 139.38 1226.75C145.418 1241.27 165.196 1261.03 177.57 1269.42C208.029 1290.06 244.465 1299.18 280.603 1292.63C301.669 1288.81 324.314 1278.41 336.32 1260.36C352.33 1236.28 350.237 1215 345.022 1188.69Z" fill="#F9E1C7"/>
<path d="M766.104 519.861C822.03 516.927 869.746 559.874 872.682 615.787C875.618 671.699 832.661 719.404 776.735 722.341C720.808 725.277 673.089 682.329 670.153 626.415C667.217 570.501 710.177 522.795 766.104 519.861Z" fill="#FEC059"/>
<path d="M760.145 533.161C808.65 526.901 853.037 561.165 859.253 609.664C865.468 658.164 831.155 702.508 782.638 708.676C734.185 714.837 689.901 680.587 683.694 632.152C677.487 583.717 711.703 539.412 760.145 533.161Z" fill="#4D2C28"/>
<path d="M762.533 544.109C805.262 539.273 843.8 570.039 848.538 612.769C853.275 655.499 822.412 693.956 779.661 698.593C737.05 703.215 698.737 672.483 694.015 629.893C689.293 587.303 719.944 548.929 762.533 544.109Z" fill="#FFF9E9"/>
<path d="M740.87 575.548C801.305 576.683 808.943 679.811 749.729 684.945C687.114 684.353 680.615 580.276 740.87 575.548Z" fill="#4D2C28"/>
<path d="M752.257 596.07C756.475 594.446 761.24 595.217 764.73 598.089C768.219 600.96 769.893 605.487 769.11 609.937C768.328 614.387 765.21 618.071 760.95 619.58C754.486 621.869 747.382 618.542 745.004 612.111C742.627 605.681 745.858 598.534 752.257 596.07Z" fill="#FFF9E9"/>
<path d="M461.226 573.504C516.505 569.666 564.436 611.344 568.298 666.608C572.161 721.871 530.494 769.808 475.219 773.694C419.909 777.582 371.925 735.894 368.06 680.596C364.195 625.299 405.913 577.344 461.226 573.504Z" fill="#FEC059"/>
<path d="M457.906 587.225C505.613 581.488 548.954 615.462 554.762 663.149C560.57 710.836 526.649 754.216 478.959 760.091C431.172 765.978 387.674 731.981 381.854 684.197C376.035 636.413 410.102 592.975 457.906 587.225Z" fill="#4D2C28"/>
<path d="M465.221 597.525C507.441 595.67 543.14 628.45 544.875 670.665C546.61 712.879 513.721 748.476 471.491 750.091C429.431 751.699 393.999 718.978 392.271 676.933C390.543 634.888 423.171 599.372 465.221 597.525Z" fill="#FFF9E9"/>
<path d="M468.429 615.253C479.825 614.371 490.047 617.557 499.673 623.508C537.343 646.795 538.535 713.599 494.349 730.542C490.84 731.887 487.131 732.675 483.46 733.485C468.966 734.252 457.731 732.57 445.672 723.352C415.645 700.4 414.488 650.811 442.411 625.954C449.681 619.482 458.841 616.43 468.429 615.253Z" fill="#4D2C28"/>
<path d="M492.563 640.212C496.999 639.071 501.705 640.437 504.84 643.776C507.975 647.114 509.041 651.896 507.622 656.25C506.203 660.604 502.524 663.839 498.023 664.691C491.369 665.949 484.916 661.702 483.442 655.094C481.968 648.486 486.004 641.9 492.563 640.212Z" fill="#FFF9E9"/>
<path d="M795.237 200.227C817.991 221.198 836.532 286.718 841.661 317.23C851.314 374.665 853.437 454.827 834.731 510.274C829.284 500.596 823.326 491.215 816.881 482.17C807.657 469.882 797.625 458.22 786.852 447.263C794.604 438.195 804.73 421.129 799.289 408.529C795.961 400.823 787.699 398.638 780.359 396.224C795.996 356.211 781.842 318.715 739.465 358.652C746.988 331.708 755.137 314.166 767.721 289.861C773.863 277.999 793.128 247.51 795.221 237.177C793.835 236.597 791.885 235.456 790.409 236.365C785.069 239.655 781.134 245.857 777.238 250.625C743.143 292.351 722.371 344.475 715.485 397.797C686.964 386.099 666.602 381.716 636.289 376.973C661.314 327.994 744.21 217.258 795.237 200.227Z" fill="#FA7876"/>
<path d="M795.221 237.177C795.814 241.422 801.855 254.612 803.772 259.645C807.608 270.014 811.008 280.537 813.965 291.189C826.358 337.625 830.296 392.854 825.02 440.276C823.906 450.293 821.214 473.4 816.881 482.17C807.657 469.882 797.625 458.22 786.852 447.263C794.604 438.195 804.73 421.129 799.289 408.529C795.961 400.823 787.699 398.638 780.359 396.224C795.996 356.211 781.842 318.715 739.465 358.652C746.988 331.708 755.137 314.166 767.721 289.861C773.863 277.999 793.128 247.51 795.221 237.177Z" fill="#E4605E"/>
<path d="M791.628 304.291C802.372 308.621 797.832 322.273 790.339 327.955C780.311 322.247 782.469 310.225 791.628 304.291Z" fill="#FA7876"/>
<path d="M817.022 754.877C834.591 715.011 876.421 754.234 885.02 780.507C896.68 816.135 894.02 864.008 879.758 898.618C867.834 928.601 847.907 957.996 826.11 981.72C812.48 996.524 800.11 1005.79 783.639 1016.96C779.838 1000.38 775.47 986.041 770.471 969.827C791.82 952.002 799.826 924.205 784.443 899.896C786.08 892.569 786.732 884.439 787.037 876.946C786.898 873.6 786.882 869.548 786.441 866.271C784.74 853.619 790.833 843.149 793.612 830.915C796.537 834.204 804.661 841.895 809.575 839.355C812.428 833.534 804.159 823.375 801.476 817.966C794.307 803.507 792.328 776.135 810.2 768.49C819.812 764.379 832.319 777.78 836.071 773.933C836.862 763.588 825.017 758.156 817.022 754.877Z" fill="#FA7876"/>
<path d="M787.037 876.946L789.462 879.919C814.073 908.194 845.838 914.298 879.758 898.618C867.834 928.601 847.907 957.996 826.11 981.72C812.48 996.524 800.11 1005.79 783.639 1016.96C779.838 1000.38 775.47 986.041 770.471 969.827C791.82 952.002 799.826 924.205 784.443 899.896C786.08 892.569 786.732 884.439 787.037 876.946Z" fill="#FFF9E9"/>
<path d="M787.037 876.946L789.462 879.919C787.933 882.637 791.016 899.305 792.037 902.852C794.698 912.101 798.888 931.048 796.306 940.596C788.575 969.181 785.952 988.327 826.11 981.72C812.48 996.524 800.11 1005.79 783.639 1016.96C779.838 1000.38 775.47 986.041 770.471 969.827C791.82 952.002 799.826 924.205 784.443 899.896C786.08 892.569 786.732 884.439 787.037 876.946Z" fill="#F9E1C7"/>
<path d="M503.973 994.034C541.953 1000.83 570.867 1002.26 608.99 1004.23L610.611 1018.82C611.017 1022.82 611.508 1026.93 611.585 1030.93C612.148 1043.34 612.443 1054.79 611.495 1067.19C611.197 1080.94 609.337 1092.61 607.28 1106.15C605.586 1114.8 603.393 1123.14 601.216 1131.67C569.105 1138.47 524.378 1131.98 493.433 1121.48C493.895 1112.79 495.307 1103.11 496.482 1094.43C498.32 1082.54 499.842 1070.6 501.046 1058.63C502.913 1046.19 503.518 1033.7 504.203 1021.16L504.25 1020.55C503.834 1012.56 504.038 1002.25 503.973 994.034Z" fill="#FA7876"/>
<path d="M503.973 994.034C541.953 1000.83 570.867 1002.26 608.99 1004.23L610.611 1018.82C611.017 1022.82 611.508 1026.93 611.585 1030.93C612.148 1043.34 612.443 1054.79 611.495 1067.19C573.484 1068.86 538.307 1066.61 501.046 1058.63C502.913 1046.19 503.518 1033.7 504.203 1021.16L504.25 1020.55C503.834 1012.56 504.038 1002.25 503.973 994.034Z" fill="#F9E1C7"/>
<path d="M503.973 994.034C541.953 1000.83 570.867 1002.26 608.99 1004.23L610.611 1018.82C611.017 1022.82 611.508 1026.93 611.585 1030.93C571.948 1033.68 542.542 1030.99 504.203 1021.16L504.25 1020.55C503.834 1012.56 504.038 1002.25 503.973 994.034Z" fill="#E4605E"/>
<path d="M504.688 1011.39C534.846 1017.12 580.385 1019.93 610.611 1018.82C611.017 1022.82 611.508 1026.93 611.585 1030.93C571.948 1033.68 542.542 1030.99 504.203 1021.16L504.25 1020.55C504.708 1018.28 504.646 1013.9 504.688 1011.39Z" fill="#FA7876"/>
<path d="M496.482 1094.43C532.143 1106.25 569.934 1110.24 607.28 1106.15C605.586 1114.8 603.393 1123.14 601.216 1131.67C569.105 1138.47 524.378 1131.98 493.433 1121.48C493.895 1112.79 495.307 1103.11 496.482 1094.43Z" fill="#F9E1C7"/>
<path d="M725.487 868.78C736.708 864.226 747.725 859.182 758.504 853.663C760.623 857.613 761.847 859.741 763.194 863.97L763.549 864.054C766.052 862.999 770.836 859.921 773.363 858.388C774.572 873.057 772.29 885.291 770.937 899.758C770.509 904.335 773.328 909.344 775 913.422C781.007 925.299 778.167 937.275 770.304 947.991C763.408 958.48 750.101 965.402 738.711 970.162C726.011 974.891 712.979 978.681 699.723 981.501C681.992 984.434 665.093 986.944 647.102 987.963C647.967 983.967 648.495 978.673 649.027 974.532C651.596 957.883 649.558 925.45 648.069 907.816L648.22 907.294C647.084 902.772 646.847 895.938 644.607 891.984C654.554 890.873 679.717 884.339 689.391 881.598C702.31 877.766 713.058 873.711 725.487 868.78Z" fill="#F9E1C7"/>
<path d="M644.607 891.984C654.554 890.873 679.717 884.339 689.391 881.598C690.982 886.932 691.68 889.562 692.578 895.119L692.746 896.107C695.003 913.998 697.944 935.052 699.287 952.871L699.272 966.344C699.123 969.852 698.048 979.088 699.723 981.501C681.992 984.434 665.093 986.944 647.102 987.963C647.967 983.967 648.495 978.673 649.027 974.532C651.596 957.883 649.558 925.45 648.069 907.816L648.22 907.294C647.084 902.772 646.847 895.938 644.607 891.984Z" fill="#FA7876"/>
<path d="M649.027 974.532C665.477 972.887 683.285 970.364 699.272 966.344C699.123 969.852 698.048 979.088 699.723 981.501C681.992 984.434 665.093 986.944 647.102 987.963C647.967 983.967 648.495 978.673 649.027 974.532Z" fill="#E4605E"/>
<path d="M644.607 891.984C654.554 890.873 679.717 884.339 689.391 881.598C690.982 886.932 691.68 889.562 692.578 895.119C682.907 897.477 657.326 904.306 648.22 907.294C647.084 902.772 646.847 895.938 644.607 891.984Z" fill="#E4605E"/>
<path d="M725.487 868.78C736.708 864.226 747.725 859.182 758.504 853.663C760.623 857.613 761.847 859.741 763.194 863.97L763.549 864.054C766.052 862.999 770.836 859.921 773.363 858.388C774.572 873.057 772.29 885.291 770.937 899.758C770.509 904.335 773.328 909.344 775 913.422C781.007 925.299 778.167 937.275 770.304 947.991C763.408 958.48 750.101 965.402 738.711 970.162L739.201 956.228C738.779 948.783 737.997 939.934 736.667 932.62C733.509 915.237 734.664 898.274 729.706 881.21L729.753 880.722C728.355 876.219 727.301 873.116 725.487 868.78Z" fill="#FA7876"/>
<path d="M763.549 864.054C766.052 862.999 770.836 859.921 773.363 858.388C774.572 873.057 772.29 885.291 770.937 899.758C770.509 904.335 773.328 909.344 775 913.422C781.007 925.299 778.167 937.275 770.304 947.991L769.321 943.697C771.055 932.729 767.022 919.843 767.352 908.995C767.925 890.184 769.652 882.185 763.549 864.054Z" fill="#F9E1C7"/>
<path d="M725.487 868.78C736.708 864.226 747.725 859.182 758.504 853.663C760.623 857.613 761.847 859.741 763.194 863.97C758.607 868.458 736.432 878.014 729.753 880.722C728.355 876.219 727.301 873.116 725.487 868.78Z" fill="#E4605E"/>
<path d="M739.201 956.228C747.323 952.409 759.608 942.884 767.856 937.746L768.483 938.18L769.321 943.697L770.304 947.991C763.408 958.48 750.101 965.402 738.711 970.162L739.201 956.228Z" fill="#E4605E"/>
<path d="M699.287 952.871C700.226 957.417 699.988 961.854 699.937 966.486C710.928 964.501 730.188 961.802 739.201 956.228L738.711 970.162C726.011 974.891 712.979 978.681 699.723 981.501C698.048 979.088 699.123 969.852 699.272 966.344L699.287 952.871Z" fill="#E9C5A8"/>
<path d="M689.391 881.598C702.31 877.766 713.058 873.711 725.487 868.78C727.301 873.116 728.355 876.219 729.753 880.722L729.706 881.21C725.24 882.729 693.962 894.121 692.746 896.107L692.578 895.119C691.68 889.562 690.982 886.932 689.391 881.598Z" fill="#E9C5A8"/>
<path d="M348.356 1056.98L349.281 1058.09C355.258 1055.56 361.279 1053.02 367.501 1051.15C396.737 1042.38 431.213 1049.97 454.488 1069.61C451.43 1083.62 449.193 1097.91 448.68 1112.28C447.893 1134.32 454.946 1161.46 431.735 1174.49C423.25 1166.42 422.381 1155.9 417.852 1144.92L416.685 1144.93C405.314 1156.5 422.096 1174.84 419.42 1181.42C413.655 1184.54 397.364 1180.9 392.083 1176.81C387.291 1173.09 381.392 1158.23 376.428 1157.27C370.46 1164.5 379.81 1178.07 384.4 1183.72C334.725 1165.02 339.3 1099.09 348.356 1056.98Z" fill="#FA7876"/>
<path d="M189.628 828.159C202.702 826.594 211.407 827.214 224.136 830.079C242.257 836.677 250.01 843 264.492 855.459C277.386 867.536 284.882 873.775 299.993 882.787C312.092 889.226 321.49 893.572 334.838 897.273L338.349 897.947C347.093 900.08 352.939 900.654 361.979 901.324C362.944 909.453 363.841 913.082 367.341 920.464C362.015 931.72 360.397 936.738 361.633 949.634C351.337 950.939 344.029 951.241 333.587 951.069C325.592 950.571 318.657 949.642 310.701 948.557C304.045 947.234 298.598 945.804 292.045 944.001C277.989 940.256 264.919 933.356 252.762 925.5C238.623 917.11 228.888 909.24 213.35 901.671C204.271 897.5 196.176 895.171 186.745 892.015C185.542 870.687 186.508 849.292 189.628 828.159Z" fill="#FA7876"/>
<path d="M299.993 882.787C312.092 889.226 321.49 893.572 334.838 897.273L338.349 897.947C347.093 900.08 352.939 900.654 361.979 901.324C362.944 909.453 363.841 913.082 367.341 920.464C362.015 931.72 360.397 936.738 361.633 949.634C351.337 950.939 344.029 951.241 333.587 951.069C325.592 950.571 318.657 949.642 310.701 948.557C304.045 947.234 298.598 945.804 292.045 944.001C292.417 943.365 293.798 918.265 294.156 915.013C295.375 904.152 297.325 893.386 299.993 882.787Z" fill="#FA7876"/>
<path d="M338.349 897.947C347.093 900.08 352.939 900.654 361.979 901.324C362.944 909.453 363.841 913.082 367.341 920.464C362.015 931.72 360.397 936.738 361.633 949.634C351.337 950.939 344.029 951.241 333.587 951.069C334.755 928.718 333.421 920.567 338.349 897.947Z" fill="#E9C5A8"/>
<path d="M334.838 897.273L338.349 897.947C333.421 920.567 334.755 928.718 333.587 951.069C325.592 950.571 318.657 949.642 310.701 948.557C311.634 946.615 312.338 943.535 313.15 941.36C318.896 925.958 327.21 911.818 334.838 897.273Z" fill="#E4605E"/>
<path d="M264.492 855.459C277.386 867.536 284.882 873.775 299.993 882.787C297.325 893.386 295.375 904.152 294.156 915.013C293.798 918.265 292.417 943.365 292.045 944.001C277.989 940.256 264.919 933.356 252.762 925.5C252.367 906.372 257.767 873.229 264.492 855.459Z" fill="#F9E1C7"/>
<path d="M189.628 828.159C202.702 826.594 211.407 827.214 224.136 830.079C217.088 850.367 213.218 880.314 213.35 901.671C204.271 897.5 196.176 895.171 186.745 892.015C185.542 870.687 186.508 849.292 189.628 828.159Z" fill="#F9E1C7"/>
<path d="M379.633 879.839C387.245 882.809 398.653 885.537 406.59 887.428C419.652 890.115 432.799 892.364 446.011 894.172C460.702 896.31 474.911 896.986 489.157 898.908C506.353 900.369 523.607 901.027 540.864 900.88C539.973 904.58 537.934 912.085 537.773 915.585C537.714 918.566 537.774 921.35 537.24 924.284C537.349 934.282 534.983 942.116 533.754 951.955C532.991 958.065 533.183 965.609 533.556 971.834L533.798 972.551C533.968 975.469 534.569 980.569 533.668 983.078L532.873 983.628C514.468 981.227 496.163 978.119 477.998 974.312L430.078 962.727C419.932 960.179 409.395 958.622 399.061 956.922C393.73 956.35 387.282 956.388 381.845 956.275C379.151 951.779 378.412 950.002 376.547 945.056C375.661 931.072 380.107 933.977 382.606 921.916C383.237 918.869 380.446 911.495 379.383 908.148C376.235 898.241 377.516 889.729 379.633 879.839Z" fill="#F9E1C7"/>
<path d="M379.633 879.839C387.245 882.809 398.653 885.537 406.59 887.428C419.652 890.115 432.799 892.364 446.011 894.172C444.826 900.028 443.482 905.557 442.06 911.353L441.617 914.058C437.026 933.106 433.574 939.762 431.152 959.598L431.431 961.496L430.078 962.727C419.932 960.179 409.395 958.622 399.061 956.922C393.73 956.35 387.282 956.388 381.845 956.275C379.151 951.779 378.412 950.002 376.547 945.056C375.661 931.072 380.107 933.977 382.606 921.916C383.237 918.869 380.446 911.495 379.383 908.148C376.235 898.241 377.516 889.729 379.633 879.839Z" fill="#F9E1C7"/>
<path d="M379.633 879.839C387.245 882.809 398.653 885.537 406.59 887.428C404.15 897.191 402.982 902.834 402.744 912.96L402.935 913.377C403.402 925.924 399.398 942.313 399.061 956.922C393.73 956.35 387.282 956.388 381.845 956.275C379.151 951.779 378.412 950.002 376.547 945.056C375.661 931.072 380.107 933.977 382.606 921.916C383.237 918.869 380.446 911.495 379.383 908.148C376.235 898.241 377.516 889.729 379.633 879.839Z" fill="#E4605E"/>
<path d="M402.744 912.96L402.935 913.377C403.402 925.924 399.398 942.313 399.061 956.922C393.73 956.35 387.282 956.388 381.845 956.275C379.151 951.779 378.412 950.002 376.547 945.056C382.533 939.201 384.444 931.658 384.648 923.428C389.463 920.827 400.915 917.043 402.744 912.96Z" fill="#FA7876"/>
<path d="M406.59 887.428C419.652 890.115 432.799 892.364 446.011 894.172C444.826 900.028 443.482 905.557 442.06 911.353L441.617 914.058L441.251 912.568C436.952 910.818 408.288 911.876 402.935 913.377L402.744 912.96C402.982 902.834 404.15 897.191 406.59 887.428Z" fill="#E9C5A8"/>
<path d="M446.011 894.172C460.702 896.31 474.911 896.986 489.157 898.908C486.462 904.882 486.182 907.402 484.566 913.636L484.723 914.073C483.263 934.534 477.51 944.371 477.853 964.573L477.998 974.312L430.078 962.727L431.431 961.496L431.152 959.598C433.574 939.762 437.026 933.106 441.617 914.058L442.06 911.353C443.482 905.557 444.826 900.028 446.011 894.172Z" fill="#FA7876"/>
<path d="M446.011 894.172C460.702 896.31 474.911 896.986 489.157 898.908C486.462 904.882 486.182 907.402 484.566 913.636C477.588 913.385 446.459 913.172 442.06 911.353C443.482 905.557 444.826 900.028 446.011 894.172Z" fill="#E4605E"/>
<path d="M431.152 959.598L432.608 956.233C435.804 955.422 475.151 963.245 477.853 964.573L477.998 974.312L430.078 962.727L431.431 961.496L431.152 959.598Z" fill="#E4605E"/>
<path d="M489.157 898.908C506.353 900.369 523.607 901.027 540.864 900.88C539.973 904.58 537.934 912.085 537.773 915.585C537.714 918.566 537.774 921.35 537.24 924.284C537.246 920.835 537.326 919.547 536.563 916.157C531.537 915.09 488.812 913.559 484.723 914.073L484.566 913.636C486.182 907.402 486.462 904.882 489.157 898.908Z" fill="#E9C5A8"/>
<path d="M477.853 964.573C484.402 966.232 528.147 972.478 533.556 971.834L533.798 972.551C533.968 975.469 534.569 980.569 533.668 983.078L532.873 983.628C514.468 981.227 496.163 978.119 477.998 974.312L477.853 964.573Z" fill="#E9C5A8"/>
<path d="M644.607 891.984C646.847 895.938 647.084 902.772 648.22 907.294L648.069 907.816C649.558 925.45 651.596 957.883 649.027 974.532C648.495 978.673 647.967 983.967 647.102 987.963C629.679 989.789 605.752 988.964 588.247 988.406C569.75 987.364 551.223 986.27 532.873 983.628L533.668 983.078C534.569 980.569 533.968 975.469 533.798 972.551L533.556 971.834C533.183 965.609 532.991 958.065 533.754 951.955C534.983 942.116 537.349 934.282 537.24 924.284C537.774 921.35 537.714 918.566 537.773 915.585C537.934 912.085 539.973 904.58 540.864 900.88C556.87 900.9 570.342 900.538 586.425 899.34C601.838 899.129 629.339 895.166 644.607 891.984Z" fill="#F9E1C7"/>
<path d="M540.864 900.88C556.87 900.9 570.342 900.538 586.425 899.34C586.692 906.126 586.497 908.809 585.591 915.547C585.754 932.588 583.515 961.144 586.952 976.491C587.518 980.34 588.268 984.553 588.247 988.406C569.75 987.364 551.223 986.27 532.873 983.628L533.668 983.078C534.569 980.569 533.968 975.469 533.798 972.551L533.556 971.834C533.183 965.609 532.991 958.065 533.754 951.955C534.983 942.116 537.349 934.282 537.24 924.284C537.774 921.35 537.714 918.566 537.773 915.585C537.934 912.085 539.973 904.58 540.864 900.88Z" fill="#FA7876"/>
<path d="M540.864 900.88C556.87 900.9 570.342 900.538 586.425 899.34C586.692 906.126 586.497 908.809 585.591 915.547C569.447 917.011 553.898 916.343 537.773 915.585C537.934 912.085 539.973 904.58 540.864 900.88Z" fill="#E4605E"/>
<path d="M533.798 972.551C549.827 973.68 571.432 974.542 586.952 976.491C587.518 980.34 588.268 984.553 588.247 988.406C569.75 987.364 551.223 986.27 532.873 983.628L533.668 983.078C534.569 980.569 533.968 975.469 533.798 972.551Z" fill="#E4605E"/>
<path d="M644.607 891.984C646.847 895.938 647.084 902.772 648.22 907.294L648.069 907.816C644.009 907.627 635.943 909.564 631.678 910.355C616.276 913.21 601.173 914.379 585.591 915.547C586.497 908.809 586.692 906.126 586.425 899.34C601.838 899.129 629.339 895.166 644.607 891.984Z" fill="#E9C5A8"/>
<path d="M649.027 974.532C648.495 978.673 647.967 983.967 647.102 987.963C629.679 989.789 605.752 988.964 588.247 988.406C588.268 984.553 587.518 980.34 586.952 976.491C603.608 977.204 633.24 976.599 649.027 974.532Z" fill="#E9C5A8"/>
<path d="M189.275 925.618C204.593 924.581 211.445 924.064 226.516 927.563C241.173 933.083 253.749 942.817 268.252 949.771C280.433 955.315 293.174 959.539 306.256 962.368C321.398 965.077 337.829 967.093 353.22 965.298C358.518 965.138 362.236 964.41 367.382 963.273L372.002 968.913C361.976 981.938 357.385 988.693 350.845 1003.69L347.657 1012.91C333.381 1016.14 324.261 1016.54 309.604 1016.3C293.126 1015.6 283.049 1013.61 267.395 1009.08C254.261 1005.55 237.371 998.113 223.858 993.283C214.918 990.238 202.325 988.76 192.953 988.137C190.257 964.319 188.991 949.614 189.275 925.618Z" fill="#FA7876"/>
<path d="M306.256 962.368C321.398 965.077 337.829 967.093 353.22 965.298C358.518 965.138 362.236 964.41 367.382 963.273L372.002 968.913C361.976 981.938 357.385 988.693 350.845 1003.69L347.657 1012.91C333.381 1016.14 324.261 1016.54 309.604 1016.3C303.08 1000.55 305.054 979.169 306.256 962.368Z" fill="#E4605E"/>
<path d="M367.382 963.273L372.002 968.913C361.976 981.938 357.385 988.693 350.845 1003.69C348.95 998.918 348.71 973.447 350.275 967.32C350.614 965.99 351.63 965.979 353.22 965.298C358.518 965.138 362.236 964.41 367.382 963.273Z" fill="#E9C5A8"/>
<path d="M268.252 949.771C280.433 955.315 293.174 959.539 306.256 962.368C305.054 979.169 303.08 1000.55 309.604 1016.3C293.126 1015.6 283.049 1013.61 267.395 1009.08C263.065 988.454 263.018 970.054 268.252 949.771Z" fill="#F9E1C7"/>
<path d="M189.275 925.618C204.593 924.581 211.445 924.064 226.516 927.563C222.522 944.574 219.639 976.375 223.858 993.283C214.918 990.238 202.325 988.76 192.953 988.137C190.257 964.319 188.991 949.614 189.275 925.618Z" fill="#F9E1C7"/>
<path d="M655.76 1299.63C682.734 1301.03 712.832 1298.31 738.13 1288.35C735.92 1296.19 724.433 1323.32 726.714 1328.07C735.545 1334.99 746.805 1337.24 754.687 1346.05C768.634 1361.64 749.905 1368.07 737.338 1370.78C735.248 1357.64 725.319 1340.58 710.397 1340.4L709.18 1341.34C709.187 1344.58 721.644 1355.29 723.691 1361.01C725.375 1365.72 726.101 1367.06 726.901 1372.4C706.218 1375.66 646.807 1376.12 626.782 1364.12C624.688 1362.86 622.183 1359.32 621.827 1356.84C621.811 1356.68 621.796 1356.51 621.78 1356.34C619.13 1342.93 617.166 1307.53 616.451 1293.3C630.379 1297.27 640.083 1298.43 654.48 1299.66L655.76 1299.63Z" fill="#FA7876"/>
<path d="M616.451 1293.3C630.379 1297.27 640.083 1298.43 654.48 1299.66C646.054 1309.32 620.459 1343 621.78 1356.34C619.13 1342.93 617.166 1307.53 616.451 1293.3Z" fill="#E4605E"/>
<path d="M881.91 612.046C893.793 616.762 898.9 618.222 911.477 620.656C910.794 626.773 910.24 630.878 908.975 636.919C900.889 671.645 883.33 702.46 861.027 729.972C855.327 727.244 851.255 725.425 844.911 724.084C846.084 721.871 845.483 707.752 844.514 705.016C849.229 700.298 853.969 694.912 858.485 689.948C876.317 663.905 882.487 643.361 881.91 612.046Z" fill="#F9E1C7"/>
<path d="M881.91 612.046C893.793 616.762 898.9 618.222 911.477 620.656C910.794 626.773 910.24 630.878 908.975 636.919C904.087 640.628 898.847 651.857 894.896 657.011C889.962 663.447 866.305 692.448 858.485 689.948C876.317 663.905 882.487 643.361 881.91 612.046Z" fill="#FFF9E9"/>
<path d="M765.708 356.202C767.083 356.01 767.885 356.115 769.245 356.205C780.639 363.675 765.662 392.281 763.557 401.892C766.919 410.356 807.005 406.237 776.129 438.622C772.954 436.234 769.477 433.267 766.354 430.733C754.716 421.21 742.104 412.943 728.729 406.07C728.989 402.946 729.461 397.696 730.452 394.788C735.457 380.097 752.31 363.454 765.708 356.202Z" fill="#FFF9E9"/>
<path d="M277.968 660.218C288.491 659.824 304.64 663.09 315.464 665.059C329.323 667.662 343.215 670.092 357.136 672.347C357.086 677.545 357.586 683.078 357.945 688.29C344.452 686.71 325.982 682.363 312.24 679.48C303.249 677.79 294.191 676.335 285.08 675.494C268.966 674.006 270.787 692.9 270.574 703.597C265.342 706.415 257.658 711.51 256.128 700.866C253.721 684.112 259.47 664.403 277.968 660.218Z" fill="#FEC059"/>
<path d="M625.379 628.05C637.92 627.089 647.578 628.908 659.846 631.113C660.681 635.091 661.412 639.246 662.176 643.252C640.109 638.791 626.413 637.132 604.436 644.485C593.111 649.145 587.35 652.23 578.148 660.164C577.492 656.062 576.431 651.37 575.606 647.246C591.531 635.022 605.496 629.887 625.379 628.05Z" fill="#FEC059"/>
<path d="M523.233 1140.82C527.241 1141.86 533.979 1142.83 538.238 1143.59C537.136 1151.17 536.985 1154.03 532.849 1160.49C518.65 1171.42 521.631 1147.8 523.233 1140.82Z" fill="#FA7876"/>
<path d="M556.268 1145.1L571.66 1145.37C571.442 1152.52 571.539 1156.15 568.179 1162.38C565.94 1164.53 564.471 1165.5 561.416 1165.71C553.859 1162.72 555.611 1151.72 556.268 1145.1Z" fill="#FA7876"/>
<path d="M595.271 1144.09C595.615 1143.99 597.394 1143.92 597.87 1143.89L599.021 1145.27C600.841 1152.74 601.071 1163.64 592.16 1166.16C583.935 1160.87 585.19 1153.62 585.315 1145.11L595.271 1144.09Z" fill="#FA7876"/>
<path d="M495.844 1134.29L509.279 1138.36C508.469 1144.97 508.78 1147.92 504.477 1153.05C501.927 1154.83 499.89 1155.77 496.798 1155.27C490.757 1150.68 494.025 1140.41 495.844 1134.29Z" fill="#FA7876"/>
<path d="M163.498 827.318C169.176 827.091 170.743 827.335 176.395 828.451C176.078 834.839 177.292 836.865 171.109 839.231C166.313 838.558 159.044 837.476 158.756 831.615C159.73 829.24 161.25 828.691 163.498 827.318Z" fill="#FA7876"/>
<path d="M166.632 925.63C170.382 926.162 172.754 927.042 176.335 928.224C176.416 931.071 176.797 933.936 175.75 936.489C174.032 938.093 171.933 937.883 169.435 938.089C165.414 937.3 162.695 936.416 160.092 933.091C158.79 927.829 162.32 927.153 166.632 925.63Z" fill="#FA7876"/>
<path d="M164.262 853.615C169.737 853.238 172.425 852.766 175.615 857.574C176.455 862.871 174.488 863.908 169.786 864.854C165.49 864.158 158.157 862.717 158.672 857.219C160.183 855.007 161.753 854.674 164.262 853.615Z" fill="#FA7876"/>
<path d="M164.305 878.276C170.076 878.197 178.101 881.221 174.303 888.3C171.276 890.157 171.463 889.549 167.398 889.652C163.126 888.828 157.707 887.119 158.546 881.934C160.163 879.73 161.761 879.364 164.305 878.276Z" fill="#FA7876"/>
<path d="M168.851 976.542C174.624 976.195 181.549 977.818 178.806 985.107C176.918 987.118 175.649 987.053 172.894 987.581C168.475 986.911 163.612 986.609 163.341 981.258C164.563 978.56 166.214 978.038 168.851 976.542Z" fill="#FA7876"/>
<path d="M168.352 951.756C173.727 951.502 177.679 952.215 178.758 958.353C177.978 962.609 176.607 962.258 173.014 962.789C168.53 962.326 162.498 961.665 162.678 956.098C164.155 953.531 165.674 953.12 168.352 951.756Z" fill="#FA7876"/>
<path d="M758.504 853.663L770.108 846.791C771.624 851.228 772.54 853.815 773.363 858.388C770.836 859.921 766.052 862.999 763.549 864.054L763.194 863.97C761.847 859.741 760.623 857.613 758.504 853.663Z" fill="#E9C5A8"/>
</svg>
