<svg width="1024" height="1536" viewBox="0 0 1024 1536" fill="none" xmlns="http://www.w3.org/2000/svg">
<path d="M244.923 712.286C193.876 668.169 167.28 581.879 163.766 516.431C161.083 466.449 166.155 411.486 182.71 364.024C186.612 352.837 193.373 332.876 206.994 332.997C215.667 333.074 224.397 335.103 232.654 337.892C287.292 356.557 338.868 395.087 382 433.057C403.229 451.745 415.813 468.176 433.706 488.157C483.611 469.638 571.194 467.225 621.75 483.949C664.25 431.122 716.845 385.381 776.605 353.06C786.304 347.814 821.232 329.703 829.735 340.259C850.664 366.24 854.718 412 858.697 444.577C865.487 522.089 856.255 601.794 815.879 669.227C820.048 678.929 824.281 690.456 825.882 700.942C834.11 702.156 839.294 703.942 844.54 711.158C848.488 716.701 850.034 723.602 848.83 730.3C846.681 742.323 835.89 745.016 835.531 748.851C834.363 761.337 878.908 765.491 873.072 786.38C868.279 803.533 862.189 812.604 851.961 824.739C856.454 833.166 861.564 841.947 864.988 850.961C897.326 936.096 854.151 1044.28 773.727 1085.97C764.389 1090.81 745.179 1099.98 734.987 1102.4C744.667 1172.72 737.177 1250.5 716.872 1318.44C712.539 1332.93 707.115 1350.12 699.49 1363.17C708.324 1370.26 714.434 1376.23 718.75 1387.22C731.394 1388.27 767.983 1397.44 774.056 1410.17C778.759 1420.03 759.869 1430.22 752.781 1432.49C678.596 1456.19 597.756 1456.49 520.507 1456.6C449.715 1456.33 375.557 1454.43 308.331 1430.04C301.189 1427.45 285.212 1417.84 291.629 1409.36C304.83 1391.92 340.802 1388.51 359.6 1382.42L360.482 1382.13C357.827 1368.24 355.28 1353.59 354.29 1339.48C299.334 1393.54 198.522 1385.82 152.746 1324.1C125.132 1286.86 121.413 1248.04 123.981 1203.09C125.202 1179.21 124.832 1155.45 98.8912 1146.18C93.7194 1143.36 65.2653 1138.8 67.6273 1130.06C78.1852 1090.97 148.736 1080.23 182.452 1083.65C224.276 1087.88 251.385 1107.82 277.778 1138.17C287.827 1093.49 292.146 1073.76 312.769 1031.44C287.696 1037.86 264.946 1033.4 240.708 1025.73C226.781 1021.32 219.244 1019.1 204.746 1017.77C187.773 1016.2 168.463 1023.12 153.352 1022.17C139.725 1013.61 140.756 1002.28 147.861 989.339C134.126 981.681 134.442 968.673 144.003 957.554C138.045 950.046 137.963 948.185 138.922 938.841C141.874 934.445 144.56 931.716 148.586 928.23C143.873 922.367 142.597 920.663 143.29 912.592C143.702 907.79 145.639 904.258 149.337 901.143C158.746 893.219 183.82 895.47 195.428 896.852C215.628 899.257 246.882 911.706 264.247 922.213C285.038 934.792 291.682 942.159 316.22 949.444L318.019 938.369C315.447 936.083 314.596 935.354 312.484 932.578C305.699 930.635 294.736 926.812 288.45 923.156C281.204 918.942 243.417 902.977 259.415 891.353C260.777 890.363 264.79 888.208 266.43 887.393C231.677 865.795 209.377 842.375 190.166 807.923C160.878 755.398 202.268 774.147 230.329 752.023C241.744 743.023 222.365 720.783 244.923 712.286Z" fill="#4B2B21"/>
<path d="M566.176 1368.16C570.35 1387.41 571.452 1407.21 589.797 1418.75C611.398 1432.35 676.806 1432.54 701.69 1426.83C704.056 1426.28 706.401 1425.6 708.729 1424.92C721.156 1412.3 722.964 1403.95 718.752 1387.22C731.396 1388.27 767.985 1397.44 774.058 1410.17C778.761 1420.03 759.871 1430.22 752.783 1432.49C678.598 1456.19 597.758 1456.49 520.509 1456.6C449.717 1456.33 375.559 1454.43 308.333 1430.04C301.191 1427.45 285.214 1417.84 291.631 1409.36C304.832 1391.92 340.804 1388.51 359.602 1382.42L360.484 1382.13C362.092 1393.05 363.462 1410.17 371.185 1417.94C386.555 1433.38 422.294 1437.33 443.045 1437.72C459.157 1437.37 480.945 1439.58 493.342 1427.27C505.231 1415.46 505.11 1390.86 493.276 1379L496.195 1369.48C503.262 1370.47 562.686 1369.67 566.176 1368.16Z" fill="#F3E0C3"/>
<path d="M509.33 1314.08C526.042 1314.11 541.239 1313.44 557.992 1312.65C558.44 1329.77 562.719 1351.34 566.174 1368.16C562.684 1369.67 503.26 1370.47 496.193 1369.48C501.609 1351.11 504.028 1332.64 509.33 1314.08Z" fill="#FFFDED"/>
<path d="M338.627 1019.14C365.552 1035.34 385.107 1044.6 414.732 1055.47C414.949 1061.48 415.225 1067.5 415.559 1073.51C417.507 1106.33 409.81 1139.53 406.184 1172.12C405.483 1178.42 398.681 1186.21 399.159 1193.41C399.984 1213.9 416.183 1217.28 432.203 1210.38C441.538 1223.84 452.61 1226.81 467.101 1218.78C477.122 1232.94 488.506 1227.97 501.221 1220.72C507.905 1224.62 512.244 1226.58 520.271 1224.46C525.695 1223.01 530.288 1219.41 532.98 1214.48C538.54 1204.51 533.427 1194.95 534.168 1185.49C535.106 1173.51 538.701 1159.01 539.594 1147.05C541.212 1125.38 539.49 1102.2 537.562 1080.64C537.024 1079.23 536.372 1071.65 536.166 1069.66C594.52 1069.62 689.128 1063.55 733.464 1021.64C728.471 1037.06 714.405 1042.35 712.414 1046.59L713.335 1047.02C712.505 1047.8 711.993 1048.12 711.454 1049.09C712.45 1061.15 715.089 1071.95 717.261 1083.82C719.071 1094.04 720.471 1104.33 721.456 1114.66C729.245 1192.39 719.341 1261.62 695.572 1335.45C661.601 1342.68 626.472 1350.92 591.639 1340.89C585.587 1339.16 581.132 1338.03 574.959 1336.81C573.483 1327.87 572.537 1318.85 572.128 1309.8C587.71 1308.04 616.69 1301.54 630.161 1293.31C632.514 1290.22 633.624 1287.91 633.284 1283.86C632.551 1282.73 632.164 1281.59 630.645 1281.63C625.148 1281.78 614.955 1285.61 609.708 1287.19C595.13 1291.57 580.228 1294.77 565.142 1296.79C552.116 1298.5 537.999 1299.69 524.78 1299.93C518.389 1300.05 508.033 1296.81 502.536 1297.57C493.248 1305.53 489.638 1336.25 487.119 1349.77C485.62 1358.55 482.801 1366.51 478.825 1374.41C476.896 1378.25 474.165 1383.54 474.602 1387.81C475.548 1388.41 481.431 1388.97 483.369 1389.39C493.802 1399.74 492.043 1409.93 482.525 1420.04C479.608 1421.08 475.483 1421.99 472.383 1422.77C471.9 1415.56 469.571 1387.72 456.104 1395.45C454.573 1394.37 454.086 1393.79 452.219 1393.81C452.686 1395.04 453.144 1395.17 454.232 1396.12C453.314 1406.65 464.205 1414.55 459.391 1421.53C455.769 1423.8 438.125 1424.9 437.115 1421.77C434.059 1412.32 437.194 1402.69 427.553 1395.29C425.141 1393.44 424.957 1392.22 421.399 1392.28C417.382 1397.49 423.425 1406.85 424.486 1412.7C425.032 1415.7 424.994 1418.97 425.021 1422.03C407.376 1420.83 397.876 1418.04 382.102 1410.74C375.256 1388.37 369.301 1344.2 367.55 1320.56C366.344 1308.26 364.282 1295.45 362.808 1283.06C361.477 1270.82 359.591 1266.36 360.451 1253.57C374.909 1248.88 377.529 1247.64 386.746 1236.1C395.447 1218.86 390.696 1210.46 391.132 1192.88C391.764 1167.39 393.404 1141.17 399.832 1116.43C401.543 1109.84 410.166 1090.71 405.69 1085.59C397.865 1085.07 389.776 1104.59 387.99 1110.8C383.691 1125.74 381.644 1141.91 379.425 1157.28C375.731 1156.19 370.778 1153.54 366.26 1152.39C339.315 1145.54 325.028 1143.35 298.629 1152C296.855 1137.79 298.887 1123.93 300.251 1109.78C304.854 1088.34 320.144 1047.74 332.811 1029.75C334.622 1026.38 336.653 1022.35 338.627 1019.14Z" fill="#FFFDED"/>
<path d="M367.549 1320.56C369.26 1328.44 370.348 1334.5 378.241 1338.79C401.757 1351.58 459.298 1353.21 483.47 1348.14C485.39 1348.73 485.485 1348.69 487.118 1349.77C485.619 1358.55 482.8 1366.51 478.824 1374.41C476.895 1378.25 474.164 1383.54 474.601 1387.81C475.547 1388.41 481.43 1388.97 483.368 1389.39C493.801 1399.74 492.042 1409.93 482.524 1420.04C479.607 1421.08 475.482 1421.99 472.382 1422.77C471.899 1415.56 469.57 1387.72 456.103 1395.45C454.572 1394.37 454.085 1393.79 452.218 1393.81C452.685 1395.04 453.143 1395.17 454.231 1396.12C453.313 1406.65 464.204 1414.55 459.39 1421.53C455.768 1423.8 438.124 1424.9 437.114 1421.77C434.058 1412.32 437.193 1402.69 427.552 1395.29C425.14 1393.44 424.956 1392.22 421.398 1392.28C417.381 1397.49 423.424 1406.85 424.485 1412.7C425.031 1415.7 424.993 1418.97 425.02 1422.03C407.375 1420.83 397.875 1418.04 382.101 1410.74C375.255 1388.37 369.3 1344.2 367.549 1320.56Z" fill="#FE6665"/>
<path d="M733.462 1021.64C728.469 1037.06 714.403 1042.35 712.412 1046.59L713.333 1047.02C712.503 1047.8 711.991 1048.12 711.452 1049.09L710.481 1048.25C697.01 1056.41 696.124 1059.78 679.687 1066.67C672.397 1069.78 664.889 1072.34 657.224 1074.35C631.193 1081.1 601.653 1085 574.847 1088.05C563.049 1089.39 555.823 1088.4 544.99 1083.61C542.817 1082.65 539.655 1079.84 537.56 1080.64C537.022 1079.23 536.37 1071.65 536.164 1069.66C594.518 1069.62 689.126 1063.55 733.462 1021.64Z" fill="#F3E0C3"/>
<path d="M338.627 1019.14C365.552 1035.34 385.107 1044.6 414.732 1055.47C414.949 1061.48 415.225 1067.5 415.559 1073.51C413.305 1071.44 398.227 1067.14 394.415 1065.81C379.785 1060.74 365.079 1053.49 351.333 1046.4C348.18 1044.77 337.592 1033.56 333.293 1030.13L332.811 1029.75C334.622 1026.38 336.653 1022.35 338.627 1019.14Z" fill="#F3E0C3"/>
<path d="M630.16 1293.31C623.653 1313.37 606.993 1327.74 591.638 1340.89C585.586 1339.16 581.131 1338.03 574.958 1336.81C573.482 1327.87 572.536 1318.85 572.127 1309.8C587.709 1308.04 616.689 1301.54 630.16 1293.31Z" fill="#F3E0C3"/>
<path d="M386.744 1236.1C387.698 1248.86 374.054 1276.68 362.806 1283.06C361.475 1270.82 359.589 1266.36 360.449 1253.57C374.907 1248.88 377.527 1247.64 386.744 1236.1Z" fill="#F3E0C3"/>
<path d="M424.545 506.748C488.14 480.638 581.85 480.556 645.478 505.996C696.718 526.483 752.433 570.253 773.706 622.767L773.903 623.266C699.445 580.432 621.18 611.721 596.506 693.831C582.465 687.991 568.921 687.32 554.051 689.216C551.858 689.495 540.592 693.856 539.665 693.127C533.589 688.341 530.411 678.344 526.196 671.932C503.383 637.188 460.036 613.85 418.274 615.896C404.601 616.567 391.365 620.81 378.658 625.62C341.508 639.681 319.445 669.793 310.432 708.003C293.625 708.009 276.783 707.792 260.014 708.893C271.087 676.34 282.682 644.46 302.508 616.075C302.968 613.604 303.675 611.714 302.683 609.535C300.128 608.506 297.61 610.61 292.462 610.163L291.716 610.092L291.288 610.002C279.611 607.455 273.072 600.635 266.391 590.994C260.088 581.897 256.237 560.59 272.305 559.363C278.347 558.901 284.316 562.161 290.055 558.697C295.084 551.587 284.484 545.028 281.159 537.738C269.421 512.001 266.617 492.823 301.896 501.649C328.193 508.229 335.031 520.507 354.083 537.197C355.173 539.126 356.587 540.854 358.263 542.304C359.045 542.985 362.219 544.776 363.253 543.899C370.747 537.549 412.596 508.018 420.331 507.82C421.505 507.8 422.681 507.805 423.855 507.835L424.545 506.748Z" fill="#FFFDED"/>
<path d="M291.715 610.092C296.277 601.368 316.261 574.784 326.024 574.145C332.697 579.106 320.536 587.661 318.421 592.006C315.488 598.032 313.473 605.138 310.25 611.057C308.217 614.791 307.043 616.722 302.507 616.075C302.967 613.604 303.674 611.714 302.682 609.535C300.127 608.506 297.609 610.61 292.461 610.163L291.715 610.092Z" fill="#F3E0C3"/>
<path d="M414.293 579.157C422.596 578.14 440.193 580.534 437.548 592.08C432.362 598.923 416.927 595.817 405.4 600.108L404.516 600.441C400.583 603.104 396.061 610.779 390.117 607.286C385.129 604.355 387.224 595.759 390.121 591.702C395.776 583.782 405.157 580.95 414.293 579.157Z" fill="#4B2B21"/>
<path d="M675.14 573.237C683.56 572.714 689.852 573.842 697.809 576.578C704.799 578.98 716.521 587.726 711.977 596.349C711.265 597.706 710.008 598.695 708.522 599.069C705.572 599.821 702.904 598.549 700.488 597.074C688.554 584.099 679.15 589.893 663.876 590.116C661.758 588.881 661.269 588.422 660.633 585.943C658.213 576.508 668.846 574.433 675.14 573.237Z" fill="#4B2B21"/>
<path d="M297.211 889.905C294.715 888.768 291.959 887.084 289.602 885.621C254.361 863.74 226.068 839.766 204.811 803.522C202.193 799.058 197.578 791.214 196.275 786.732C195.103 778.235 218.444 775.384 224.506 772.768C238.104 766.902 243.193 764.031 251.265 751.554C259.696 748.537 295.208 749.182 306.554 749.136C312.675 779.505 320.723 799.293 343.681 821.46C358.52 834.392 371.022 841.73 389.891 847.079C421.902 856.384 450.861 852.462 480.119 836.42C486.955 832.672 500.122 824.248 505.708 818.821C507.235 827.004 506.942 834.867 507.591 843.033C509.254 863.087 516.331 885.064 534.184 896.662C560.135 913.521 590.275 905.639 607.581 880.573C618.953 864.103 616.968 850.729 624.487 834.121C625.712 831.414 638.131 820.524 641.438 817.083C678.039 835.589 713.823 847.714 753.738 832.529C781.112 822.115 805.662 797.448 818.319 771.543C819.762 768.522 821.134 765.467 822.434 762.382C827.398 765.535 832.501 768.81 837.462 771.804C842.594 774.901 854.483 778.913 855.509 785.024C856.988 793.834 845.054 809.752 839.472 816.033C831.02 808.982 814.418 806.778 805.69 814.262C804.679 815.129 803.099 818.56 801.661 818.421C784.773 816.792 772.828 833.595 769.163 848.859C757.65 860.405 751.279 872.755 751.307 889.549C751.335 895.479 752.396 901.358 754.442 906.924L757.798 913.089C750.356 920.306 735.944 928.023 726.391 932.343C678.099 954.182 619.395 964.539 566.427 966.441C481.415 969.493 392.182 953.65 314.128 919.659C303.314 914.95 285.238 906.976 276.968 899.289C282.563 897.817 289.849 897.325 294.818 894.651C296.977 893.489 296.811 892.027 297.211 889.905Z" fill="#FFFDED"/>
<path d="M297.212 889.905L297.649 890.003C322.011 895.636 339.503 905.975 362.505 915.584C377.111 921.517 391.941 926.884 406.961 931.673C419.985 935.871 433.127 938.703 446.445 941.513C548.575 963.056 658.571 950.577 753.625 907.598C753.898 907.373 754.171 907.148 754.443 906.924L757.799 913.089C750.357 920.306 735.945 928.023 726.392 932.343C678.1 954.182 619.396 964.539 566.428 966.441C481.416 969.493 392.183 953.65 314.129 919.659C303.315 914.95 285.239 906.976 276.969 899.289C282.564 897.817 289.85 897.325 294.819 894.651C296.978 893.489 296.812 892.027 297.212 889.905Z" fill="#F3E0C3"/>
<path d="M343.681 821.46C358.52 834.392 371.022 841.73 389.891 847.079C389.446 848.828 388.84 851.888 386.467 851.71C376.376 850.787 365.284 847.526 355.957 843.463C346.496 839.34 332.417 832.371 343.681 821.46Z" fill="#F3E0C3"/>
<path d="M86.7246 1124.83C88.7304 1122.81 90.8579 1120.91 93.0952 1119.15C113.856 1102.96 154.893 1094.67 180.844 1098.64C225.995 1105.55 247.521 1123.86 273.966 1158.15C272.056 1172.95 271.601 1184.44 272.189 1199.36C274.388 1229.62 286.295 1252.48 315.478 1264.23C326.291 1267.5 334.906 1266.88 346.005 1266.49C347.694 1285.33 350.254 1301.11 353.046 1319.75C344.264 1328.64 334.674 1338.03 323.542 1343.86C237.904 1388.67 145.13 1338.62 139.238 1241.79C133.885 1182.89 158.436 1150.06 86.7246 1124.83Z" fill="#FFFDED"/>
<path d="M86.7246 1124.83C88.7304 1122.81 90.8579 1120.91 93.0952 1119.15C113.856 1102.96 154.893 1094.67 180.844 1098.64C225.995 1105.55 247.521 1123.86 273.966 1158.15C272.056 1172.95 271.601 1184.44 272.189 1199.36C271.904 1196.88 271.913 1192.63 270.493 1191.24C256.198 1190.57 246.346 1180.06 239.437 1168.33C242.841 1185.62 248.589 1208.33 238.063 1223.82C223.388 1245.42 192.159 1220.97 180.852 1208.14C189.611 1228.69 201.584 1271.16 163.403 1264.89C156.383 1262.38 148.871 1254.96 144.48 1249.02C143.356 1247.49 141.442 1243.06 140.027 1240.76L139.238 1241.79C133.885 1182.89 158.436 1150.06 86.7246 1124.83Z" fill="#FE6665"/>
<path d="M139.238 1241.79L140.027 1240.76C141.442 1243.06 143.356 1247.49 144.48 1249.02C148.871 1254.96 156.383 1262.38 163.403 1264.89L163.08 1265.74C163.942 1274.98 179.13 1292.07 186.009 1298.71C203.065 1315.6 221.475 1323.13 245.363 1323.86C276.881 1324.83 316.354 1298.94 315.478 1264.23C326.291 1267.5 334.906 1266.88 346.005 1266.49C347.694 1285.33 350.254 1301.11 353.046 1319.75C344.264 1328.64 334.674 1338.03 323.542 1343.86C237.904 1388.67 145.13 1338.62 139.238 1241.79Z" fill="#F3E0C3"/>
<path d="M249.851 697.556C242.028 688.055 234.632 679.532 227.924 669.141C190.812 611.658 177.619 551.51 178.29 484.024C178.677 445.459 184.801 407.167 196.461 370.405C198.053 365.488 201.254 354.654 204.938 351.655C211.089 346.647 229.22 352.597 235.485 355.028C287.662 375.278 335.77 409.883 376.959 447.381C392.448 461.482 404.629 477.398 418.668 492.439C416.651 497.147 415.629 501.402 419.571 505.567C421.17 507.257 422.268 506.716 424.545 506.748L423.855 507.835C422.681 507.805 421.505 507.8 420.331 507.82C412.596 508.018 370.747 537.549 363.253 543.899C362.219 544.776 359.045 542.985 358.263 542.304C356.587 540.854 355.173 539.126 354.083 537.197C357.563 538.849 359.745 540.574 363.093 537.845C364.048 532.753 354.18 517.785 351.062 513.096C326.351 475.936 293.795 442.337 255.638 418.918C250.228 415.597 239.951 410.647 233.337 411.792C228.72 412.851 223.827 419.009 225.519 424.202C227.455 425.911 227.74 425.341 230.89 425.353C248.647 423.164 305.507 474.685 312.644 490.648C305.005 488.792 293.945 485.771 286.183 486.04C249.152 487.322 259.121 523.866 270.252 545.035C252.988 546.713 244.713 561.392 246.88 577.59C249.685 598.551 263.702 612.175 281.648 621.077C275.854 630.743 271.137 638.338 266.736 648.796C260.197 663.432 254.543 682.123 249.851 697.556Z" fill="#FE6665"/>
<path d="M230.889 425.353C248.646 423.164 305.506 474.685 312.643 490.648C305.004 488.792 293.944 485.771 286.182 486.04C249.151 487.322 259.12 523.866 270.251 545.035C252.987 546.713 244.712 561.392 246.879 577.59C249.684 598.551 263.701 612.175 281.647 621.077C275.853 630.743 271.136 638.338 266.735 648.796C264.178 647.856 261.873 646.204 260.297 643.886C230.247 599.683 218.834 544 218.081 491.31C218.2 473.81 215.69 452.88 224.768 437.175C227.167 433.025 229.932 430.203 230.889 425.353Z" fill="#ED5552"/>
<path d="M411.86 630.824C469.005 624.086 520.79 664.946 527.514 722.078C534.237 779.211 493.352 830.971 436.204 837.676C379.079 844.378 327.332 803.524 320.612 746.415C313.891 689.307 354.74 637.561 411.86 630.824Z" fill="#FEC640"/>
<path d="M417.076 645.086C465.909 641.437 508.501 677.951 512.34 726.758C516.179 775.564 479.821 818.287 431.018 822.314C381.946 826.364 338.927 789.771 335.067 740.696C331.206 691.621 367.975 648.755 417.076 645.086Z" fill="#4B2B21"/>
<path d="M414.582 658.822C456.287 653.848 494.081 683.738 498.839 725.459C503.596 767.179 473.5 804.807 431.746 809.344C390.299 813.848 353 784.03 348.278 742.618C343.556 701.206 373.185 663.76 414.582 658.822Z" fill="#FFFDED"/>
<path d="M425.757 678.734C456.18 675.225 483.688 697.04 487.194 727.456C490.701 757.872 468.879 785.371 438.455 788.874C408.035 792.376 380.534 770.563 377.028 740.151C373.522 709.739 395.337 682.242 425.757 678.734Z" fill="#4B2B21"/>
<path d="M446.856 698.795C461.578 699.818 475.034 717.726 456.09 728.055C455.039 728.171 453.983 728.237 452.925 728.253C440.838 728.491 434.248 718.54 439.418 707.444C441.05 703.942 444.081 701.428 446.856 698.795Z" fill="#FFFDED"/>
<path d="M706.18 617.565C731.699 616.358 757.847 626.257 777.732 642.393C803.977 663.691 811.841 684.186 816.219 717.381C819.158 739.67 806.632 770.692 792.591 788.054C774.922 809.902 746.645 822.585 718.859 825.39C689.108 828.817 637.2 803.877 624.853 775.862C623.617 773.058 622.017 765.009 621.271 761.646L615.361 757.853C611.16 749.066 609.129 736.497 608.31 726.744C605.984 699.012 616.924 671.934 635.004 651.136C654.62 628.572 676.744 619.434 706.18 617.565Z" fill="#FEC640"/>
<path d="M694.873 633.704C742.944 624.324 789.51 655.712 798.838 703.782C808.166 751.852 776.717 798.37 728.625 807.641C680.609 816.898 634.17 785.518 624.857 737.525C615.545 689.532 646.879 643.069 694.873 633.704Z" fill="#4B2B21"/>
<path d="M706.287 645.375C747.731 642.377 783.83 673.37 787.129 714.78C790.427 756.19 759.688 792.504 718.293 796.101C676.472 799.735 639.694 768.619 636.362 726.783C633.029 684.947 664.418 648.404 706.287 645.375Z" fill="#FFFDED"/>
<path d="M691.393 665.537C717.849 662.805 741.075 684.194 746.224 709.302C749.421 724.777 746.237 740.887 737.392 753.984C727.95 767.884 716.218 773.951 700.223 776.946C627.533 781.829 623.2 672.593 691.393 665.537Z" fill="#4B2B21"/>
<path d="M708.02 688.146C715.855 687.551 722.68 693.435 723.245 701.27C723.809 709.105 717.898 715.907 710.059 716.441C702.263 716.972 695.505 711.1 694.943 703.309C694.382 695.517 700.229 688.738 708.02 688.146Z" fill="#FFFDED"/>
<path d="M639.689 487.944C648.252 477.246 656.22 466.289 665.748 456.386C700.531 420.233 740.597 388.09 785.05 364.553C818.463 346.862 823.647 342.5 832.911 381.207C840.977 414.032 845.356 447.654 845.965 481.449C846.71 536.4 837.074 603.728 808.712 651.777C795.411 642.372 791.56 627.164 784.162 612.515C781.841 607.628 779.301 603.034 776.72 598.286C785.94 586.125 797.867 566.729 790.129 550.325C786.76 543.181 781.334 543.513 774.97 541.512C783.08 531.708 786.83 524.65 786.367 512.197C785.538 489.902 771.157 481.361 750.432 485.148C748.499 485.501 747.247 484.616 746.04 483.354C744.622 473.629 776.414 443.615 784.469 436.542C789.555 432.076 797.745 426.917 803.309 422.517C805.933 406.389 789.095 413.839 782.245 419.602C749.668 447.015 723.261 482.949 702.283 519.775C679.949 505.308 663.716 497.927 639.689 487.944Z" fill="#FE6665"/>
<path d="M803.309 422.517C813.49 436.658 811.788 449.77 812.345 466.359C813.455 499.438 808.731 588.566 784.162 612.515C781.841 607.628 779.301 603.034 776.72 598.286C785.94 586.125 797.867 566.729 790.129 550.325C786.76 543.181 781.334 543.513 774.97 541.512C783.08 531.708 786.83 524.65 786.367 512.197C785.538 489.902 771.157 481.361 750.432 485.148C748.499 485.501 747.247 484.616 746.04 483.354C744.622 473.629 776.414 443.615 784.469 436.542C789.555 432.076 797.745 426.917 803.309 422.517Z" fill="#ED5552"/>
<path d="M197.321 1003.47C184.515 1003.59 171.482 1007.55 158.79 1008.84C155.555 1009.17 153.126 1004.13 153.557 1000.76C161.056 988.246 192.763 991.721 184.115 974.641C182.914 974.436 168.265 981.373 162.377 979.133C159.399 978 145.866 980.501 147.872 971.275C151.328 955.382 178.219 966.338 179.599 947.48C173.836 945.848 159.162 950.976 151.339 945.747C149.834 943.368 150.085 944.467 150.445 941.61C157.135 931.037 181.512 936.873 182.79 925.538C182.318 924.595 181.715 922.872 181.068 922.095C180.363 921.247 163.438 925.196 157.2 920.538C155.576 919.325 154.91 917.997 154.534 916.051C157.737 903.941 194.437 911.184 203.706 912.914C215.083 916.555 227.335 920.588 238.067 925.954C247.66 930.523 255.475 934.671 264.465 940.346C268.221 942.442 271.251 944.157 274.81 946.555C284.582 951.593 293.349 956.34 303.876 959.788C307.903 960.739 309.354 960.874 313.507 961.109C313.148 981.539 316.513 992.973 328.455 1009.79C319.933 1016.08 308.345 1019.63 297.862 1020.1C286.513 1019.91 283.912 1021.16 271.097 1019.45C261.072 1017.41 245.453 1011.62 235.211 1008.3C222.574 1003.98 210.497 1003.36 197.321 1003.47Z" fill="#FE6665"/>
<path d="M238.066 925.954C247.659 930.523 255.474 934.671 264.464 940.346C268.22 942.442 271.25 944.157 274.809 946.555C284.581 951.593 293.348 956.34 303.875 959.788C307.902 960.739 309.353 960.874 313.506 961.109C313.147 981.539 316.512 992.973 328.454 1009.79C319.932 1016.08 308.344 1019.63 297.861 1020.1C286.512 1019.91 283.911 1021.16 271.096 1019.45C261.071 1017.41 245.452 1011.62 235.21 1008.3C227.769 984.72 233.345 949.808 238.066 925.954Z" fill="#FE6665"/>
<path d="M274.809 946.555C284.581 951.593 293.348 956.34 303.875 959.788C307.902 960.739 309.353 960.874 313.506 961.109C313.147 981.539 316.512 992.973 328.454 1009.79C319.932 1016.08 308.344 1019.63 297.861 1020.1C286.512 1019.91 283.911 1021.16 271.096 1019.45C272.409 1012.74 273.368 1006.52 273.174 999.631C272.834 987.521 270.368 978.85 272.622 966.678L272.904 964.715C274.095 957.926 274.401 953.457 274.809 946.555Z" fill="#F3E0C3"/>
<path d="M303.875 959.788C307.902 960.739 309.353 960.874 313.506 961.109C313.147 981.539 316.512 992.973 328.454 1009.79C319.932 1016.08 308.344 1019.63 297.861 1020.1C298.606 1007.05 299.772 995.046 301.135 982.037C302.269 974.773 303.649 967.096 303.875 959.788Z" fill="#ED5552"/>
<path d="M274.808 946.555C284.58 951.593 293.347 956.34 303.874 959.788C303.648 967.096 302.268 974.773 301.134 982.037C297.91 979.922 275.617 967.463 272.621 966.678L272.903 964.715C274.094 957.926 274.4 953.457 274.808 946.555Z" fill="#F6DEA0"/>
<path d="M264.465 940.346C268.221 942.442 271.251 944.157 274.81 946.555C274.402 953.457 274.096 957.926 272.905 964.715C263.455 958.657 263.819 950.103 264.465 940.346Z" fill="#ED5552"/>
<path d="M203.705 912.914C215.082 916.555 227.334 920.588 238.066 925.954C233.345 949.808 227.769 984.72 235.21 1008.3C222.573 1003.98 210.496 1003.36 197.32 1003.47C197.525 987.701 196.876 971.57 198.386 955.897C199.807 941.145 203.485 927.799 203.705 912.914Z" fill="#F3E0C3"/>
<path d="M696.477 960.005C706.864 956.327 717.215 952.546 727.527 948.663C730.238 955.349 730.643 961.009 731.701 968.136C735.759 997.905 724.828 1014.8 698.036 1027.89C683.331 1034.41 675.647 1036.88 660.277 1041.32C647.8 1045.26 623.417 1050.25 610.063 1051.18C590.301 1053.75 574.849 1054.55 554.891 1054.69C558.274 1041.34 557.009 1013.47 556.562 999.342L556.223 997.723C555.722 992.137 555.339 986.499 554.293 980.994C569.507 981.195 593.319 980.499 608.278 977.731C626.667 975.373 641.449 973.093 659.688 969.622C672.137 967.176 684.424 963.964 696.477 960.005Z" fill="#F3E0C3"/>
<path d="M696.477 960.005C706.864 956.327 717.214 952.546 727.526 948.663C730.237 955.349 730.643 961.009 731.701 968.136C735.759 997.905 724.828 1014.8 698.036 1027.89C683.331 1034.41 675.646 1036.88 660.276 1041.32C665.713 1023.74 666.088 1003.62 663.734 985.463L663.581 985.074C662.204 980.059 661.161 974.901 659.688 969.622C672.137 967.176 684.424 963.964 696.477 960.005Z" fill="#F3E0C3"/>
<path d="M696.477 960.005C706.864 956.327 717.215 952.546 727.527 948.663C730.238 955.349 730.643 961.009 731.701 968.136C735.759 997.905 724.828 1014.8 698.036 1027.89C698.064 1023.37 699.925 1018.56 701.13 1014.08C704.792 1000.45 703.9 989.806 700.883 976.302L701.055 975.831C699.273 970.287 697.812 965.704 696.477 960.005Z" fill="#FE6665"/>
<path d="M696.477 960.005C706.864 956.327 717.215 952.546 727.527 948.663C730.238 955.349 730.643 961.009 731.701 968.136C721.811 969.372 707.404 975.32 701.055 975.831C699.273 970.287 697.812 965.704 696.477 960.005Z" fill="#ED5552"/>
<path d="M659.688 969.622C672.137 967.176 684.424 963.964 696.477 960.005C697.812 965.704 699.273 970.287 701.055 975.831L700.883 976.302C692.888 978.727 685.929 980.594 677.789 982.285C675.629 982.734 665.442 984.806 663.734 985.463L663.581 985.074C662.204 980.059 661.161 974.901 659.688 969.622Z" fill="#F6DEA0"/>
<path d="M608.277 977.731C626.666 975.373 641.448 973.093 659.687 969.622C661.16 974.901 662.203 980.059 663.58 985.074L663.734 985.463C666.088 1003.62 665.713 1023.74 660.276 1041.32C647.799 1045.26 623.416 1050.25 610.062 1051.18C611.123 1043.63 610.653 1021.1 610.543 1012.54C610.831 1007.29 610.643 1000.22 610.633 994.839C609.737 989.044 608.891 983.57 608.277 977.731Z" fill="#FE6665"/>
<path d="M608.277 977.731C626.666 975.373 641.448 973.093 659.687 969.622C661.16 974.901 662.203 980.059 663.58 985.074C646.955 988.533 627.324 992.255 610.633 994.839C609.737 989.044 608.891 983.57 608.277 977.731Z" fill="#ED5552"/>
<path d="M554.293 980.994C569.507 981.195 593.319 980.499 608.278 977.731C608.892 983.57 609.738 989.044 610.634 994.839C610.644 1000.22 610.832 1007.29 610.544 1012.54C609.883 1009.04 610.059 999.435 610.06 995.258C592.203 996.286 574.368 997.647 556.562 999.342L556.223 997.723C555.722 992.137 555.339 986.499 554.293 980.994Z" fill="#F6DEA0"/>
<path d="M802.858 831.073C818.943 841.306 820.117 859.659 822.931 861.927C830.427 858.381 828.137 846.128 824.872 840.448C822.372 836.099 814.152 827.693 814.555 824.116C823.102 818.28 838.28 830.014 842.731 837.719C862.58 872.081 864.393 915.702 855.81 953.733C853.848 962.176 851.859 970.149 848.199 977.756L847.677 976.937C846.781 976.892 840.053 983.072 836.838 984.708C814.878 995.878 790.837 986.318 772.846 972.221C765.923 966.795 765.579 961.858 761.951 954.047C763.113 950.839 771.319 939.287 773.687 935.641C778.164 928.748 780.52 924.622 784.08 917.107C775.147 910.606 768.49 904.977 765.658 893.353C763.712 885.36 767.763 863.842 777.323 861.981C786.738 860.149 793.59 874.582 798.78 878.418C800.453 877.989 801.084 877.743 802.211 876.306C803.513 874.647 804.098 872.537 803.838 870.445C802.84 862.753 792.243 855.49 786.482 851.209C783.545 847.729 782.775 845.672 784.765 841.38C788.185 834.002 794.431 827.386 802.858 831.073Z" fill="#FE6665"/>
<path d="M786.483 851.209C783.546 847.729 782.776 845.672 784.766 841.38C788.186 834.002 794.432 827.386 802.859 831.073C799.181 842.399 789.346 840.811 786.483 851.209Z" fill="#ED5552"/>
<path d="M406.724 965.605C421.079 968.6 443.066 971.683 455.626 974.821C470.786 977.687 487.323 978.505 502.702 980.28C519.894 980.778 537.094 981.016 554.294 980.994C555.34 986.499 555.723 992.137 556.224 997.723L556.563 999.342C557.01 1013.47 558.275 1041.34 554.892 1054.69C540.302 1055.58 519.599 1054.78 504.875 1054.5C485.647 1053.83 474.283 1052.59 455.576 1048.81C441.536 1046.27 416.505 1040.73 403.691 1034.62C400.043 1015.17 400.01 1007.54 403.763 987.551L404.094 987.226C404.913 979.528 406.544 973.822 406.724 965.605Z" fill="#F3E0C3"/>
<path d="M502.701 980.28C519.893 980.778 537.094 981.016 554.294 980.994C555.34 986.499 555.723 992.137 556.224 997.723L556.562 999.342C557.009 1013.47 558.274 1041.34 554.891 1054.69C540.301 1055.58 519.598 1054.78 504.874 1054.5C505.996 1049.61 502.584 1039.3 502.184 1033.38C501.398 1021.72 501.765 1009.98 501.912 998.319L502.222 996.778C501.71 991.275 502.302 985.799 502.701 980.28Z" fill="#FE6665"/>
<path d="M502.701 980.28C519.893 980.778 537.093 981.016 554.293 980.994C555.339 986.499 555.722 992.137 556.223 997.723L555.71 998.725C551.687 1001.31 513.561 1000.84 506.67 999.35C503.467 998.658 503.8 999.08 502.222 996.778C501.71 991.275 502.302 985.799 502.701 980.28Z" fill="#ED5552"/>
<path d="M406.724 965.605C421.079 968.6 443.066 971.683 455.626 974.821C454.823 979.126 452.992 990.33 451.752 993.99L451.965 995.076C449.924 1015.4 447.446 1029.06 455.576 1048.81C441.536 1046.27 416.505 1040.73 403.691 1034.62C400.043 1015.17 400.01 1007.54 403.763 987.551L404.094 987.226C404.913 979.528 406.544 973.822 406.724 965.605Z" fill="#FE6665"/>
<path d="M406.724 965.605C421.079 968.6 443.066 971.683 455.626 974.821C454.823 979.126 452.992 990.33 451.752 993.99C442.579 992.649 409.203 993.329 404.094 987.226C404.913 979.528 406.544 973.822 406.724 965.605Z" fill="#ED5552"/>
<path d="M455.626 974.821C470.786 977.687 487.323 978.505 502.702 980.28C502.303 985.799 501.711 991.275 502.223 996.778L501.912 998.319C485.703 997.393 468.015 997.057 451.965 995.076L451.752 993.99C452.992 990.33 454.823 979.126 455.626 974.821Z" fill="#F6DEA0"/>
<path d="M430.803 1058.43C454.67 1065.86 493.5 1069.99 518.945 1069.46C520.018 1074.44 521.921 1084.04 522.032 1089.11C522.273 1091.33 522.815 1095.34 522.828 1097.41C524.43 1111.57 525.957 1133.99 523.375 1148.13C522.613 1153.32 522.726 1171.88 518.439 1173.62C491.471 1184.57 447.415 1170.45 421.533 1166.56C423.11 1159 423.694 1147.47 425.583 1137.84C427.932 1126.01 430.314 1104.26 431.309 1092.06L431.266 1085.21C431.225 1076.8 431.425 1066.68 430.803 1058.43Z" fill="#F3E0C3"/>
<path d="M421.533 1166.56C423.11 1159 423.694 1147.47 425.583 1137.84C430.845 1139.09 438.834 1139.27 444.452 1139.95C469.389 1142.98 494.623 1144.76 519.7 1144.12C520.873 1144.09 521.092 1147.27 523.375 1148.13C522.613 1153.32 522.726 1171.88 518.439 1173.62C491.471 1184.57 447.415 1170.45 421.533 1166.56Z" fill="#FE6665"/>
<path d="M430.805 1058.43C454.672 1065.86 493.502 1069.99 518.947 1069.46C520.02 1074.44 521.923 1084.04 522.034 1089.11C518.111 1089.03 513.434 1091.83 508.931 1092.59C495.18 1094.92 482.711 1095.17 469.077 1094.81C460.365 1094.58 435.01 1084.55 431.268 1085.21C431.227 1076.8 431.427 1066.68 430.805 1058.43Z" fill="#ED5552"/>
<path d="M431.268 1085.21C435.01 1084.55 460.365 1094.58 469.077 1094.81C482.711 1095.17 495.18 1094.92 508.931 1092.59C513.434 1091.83 518.111 1089.03 522.034 1089.11C522.275 1091.33 522.817 1095.34 522.83 1097.41C520.785 1100.57 518.742 1102.61 514.802 1102.82C488.363 1104.23 455.763 1101.49 431.311 1092.06L431.268 1085.21Z" fill="#FE6665"/>
<path d="M761.95 954.047C765.578 961.858 765.922 966.795 772.845 972.221C790.836 986.318 814.877 995.878 836.837 984.708C840.052 983.072 846.78 976.892 847.676 976.937L848.198 977.756C835.479 1011.83 819.566 1032.24 792.029 1055.48C783.362 1063.21 744.963 1087.47 735.249 1087.03C732.708 1085.23 729.804 1070.17 728.887 1066.22C725.481 1055.23 724.897 1050.58 713.333 1047.02L712.412 1046.59C714.403 1042.35 728.469 1037.06 733.462 1021.64C746.87 1004.91 748.309 993.72 747.799 973.083C752.744 967.089 758.342 960.854 761.95 954.047Z" fill="#FFFDED"/>
<path d="M728.889 1066.22C748.213 1068.76 764.675 1064.99 782.54 1058.07C785.487 1056.93 788.895 1055.71 792.031 1055.48C783.364 1063.21 744.965 1087.47 735.251 1087.03C732.71 1085.23 729.806 1070.17 728.889 1066.22Z" fill="#F3E0C3"/>
<path d="M312.868 1247.32C278.719 1222.99 286.041 1178.12 292.314 1142.34C294.038 1132.51 296.541 1119 300.25 1109.78C298.886 1123.93 296.854 1137.79 298.628 1152C325.027 1143.35 339.314 1145.54 366.259 1152.39C370.777 1153.54 375.73 1156.19 379.424 1157.28C379.229 1165.48 377.931 1174.83 377.566 1183.62C376.736 1199.11 381.866 1218.49 373.651 1232.4C371.013 1236.87 360.011 1242.32 355.678 1239.01C354.995 1232.12 354.267 1214.37 343.381 1216.07C334.172 1222.31 344.301 1241.79 347.332 1249.58C338.485 1252.68 334.674 1252.05 325.411 1251.59C320.966 1240.56 322.08 1235.82 320.332 1224.55C320.049 1222.73 319.779 1222.57 318.608 1221.88L312.541 1225.92C309.709 1233.93 311.125 1239.4 312.868 1247.32Z" fill="#FE6665"/>
<path d="M695.57 1335.45C692.049 1345.96 689.774 1356.23 681.863 1364C681.508 1365.91 680.043 1372.66 680.429 1374.07C684.002 1375.71 686.777 1373.76 690.134 1374.33C696.572 1375.41 715.5 1395.8 706.187 1401.09C701.292 1397.56 696.981 1386.92 688.949 1386.36L686.758 1387.13C687.001 1388.22 687.097 1388.39 687.566 1389.41L686.156 1393.89C688.862 1398.59 697.125 1403.16 695.114 1409.09C693.757 1413.09 684.866 1414.5 681.154 1414.26C677.523 1411.79 670.645 1384.65 657.205 1387.32C656.808 1387.4 656.416 1387.5 656.025 1387.61C655.273 1388.92 654.652 1390.16 655.406 1391.78C660.252 1402.2 663.014 1403.32 665.441 1415.07C641.212 1415.54 613.404 1415.96 591.163 1404.59C583.143 1390.1 576.784 1353.39 574.957 1336.81C581.13 1338.03 585.585 1339.16 591.637 1340.89C626.47 1350.92 661.599 1342.68 695.57 1335.45Z" fill="#FE6665"/>
<path d="M332.094 942.485C343.26 946.216 354.553 949.852 365.501 954.166C378.796 958.698 393.062 962.273 406.723 965.605C406.543 973.822 404.912 979.528 404.093 987.226L403.762 987.551C400.009 1007.54 400.042 1015.17 403.69 1034.62C392.567 1030.49 376.326 1021.81 367.042 1018.95C363.593 1018.1 355.226 1012.62 352.162 1010.36C338.412 1000.23 331.429 990.32 328.877 973.47C327.388 963.473 330.126 952.162 332.094 942.485Z" fill="#F3E0C3"/>
<path d="M332.094 942.485C343.26 946.216 354.553 949.852 365.501 954.166C366.185 961.59 366.212 969.131 363.185 976.072L362.305 978.125C360.349 987.986 358.375 1011.98 367.042 1018.95C363.593 1018.1 355.226 1012.62 352.162 1010.36C338.412 1000.23 331.429 990.32 328.877 973.47C327.388 963.473 330.126 952.162 332.094 942.485Z" fill="#FE6665"/>
<path d="M332.094 942.485C343.26 946.216 354.553 949.852 365.501 954.166C366.185 961.59 366.212 969.131 363.185 976.072C357.22 973.227 342.234 964.457 336.246 961.001C333.75 965.574 331.755 969.059 328.877 973.47C327.388 963.473 330.126 952.162 332.094 942.485Z" fill="#ED5552"/>
<path d="M365.501 954.166C378.796 958.698 393.062 962.273 406.723 965.605C406.543 973.822 404.912 979.528 404.093 987.226L403.762 987.551C391.546 985.62 373.238 983.37 362.305 978.125L363.185 976.072C366.212 969.131 366.185 961.59 365.501 954.166Z" fill="#F6DEA0"/>
<path d="M563.169 729.947C586.177 728.399 593.345 734.429 600.321 755.223C586.031 754.096 574.119 753.792 561.01 759.709C547.13 765.974 548.148 775.884 559.324 783.769C564.361 787.322 571.151 795.644 573.999 801.12C575.823 804.628 575.553 807.177 574.085 810.827C562.397 822.088 543.17 823.581 529.891 815.748C515.422 807.212 520.311 799.164 527.778 789.077C532.282 782.991 537.322 767.606 538.809 760.03C542.627 740.572 542.219 735.095 563.169 729.947Z" fill="#FFFDED"/>
<path d="M535.252 845.689C544.307 843.292 550.713 846.32 559.417 849.347C559.694 848.537 559.912 848.011 560.26 847.228C564.758 845.119 579.382 847.581 582.835 851.67C583.679 854.259 583.644 853.177 583.03 855.773C581.775 856.532 581.848 856.581 580.467 857.075C584.239 859.194 593.989 864.15 594.824 868.279C597.013 879.106 581.95 889.357 572.642 890.807C549.848 894.358 533.384 884.083 526.857 862.442C521.402 853.84 525.214 844.483 535.252 845.689Z" fill="#FE6665"/>
<path d="M559.418 849.347C559.695 848.537 559.913 848.011 560.261 847.228C564.759 845.119 579.383 847.581 582.836 851.67C583.68 854.259 583.645 853.177 583.031 855.773C581.776 856.532 581.849 856.581 580.468 857.075C573.128 853.252 567.21 851.953 559.418 849.347Z" fill="#5E3026"/>
<path d="M526.857 862.442C521.402 853.84 525.214 844.483 535.252 845.689C530.214 851.068 527.152 854.973 526.857 862.442Z" fill="#5E3026"/>
<path d="M755.031 499.615C790.216 496.386 762.636 537.005 754.119 549.353C752.724 551.376 753.184 552.673 753.865 554.698C758.753 559.573 768.3 555.175 775.113 557.645C780.102 562.343 777.113 581.838 768.436 582.935C765.873 582.052 765.235 580.321 763.731 577.931C754.404 565.541 745.415 554.803 733.777 544.4C728.109 539.333 721.776 534.565 716.486 529.209L715.82 528.528L716.193 527.948C725.52 513.596 738.013 503.23 755.031 499.615Z" fill="#FFFDED"/>
<path d="M268.511 721.822C281.525 720.953 294.633 721.722 307.646 722.355C307.536 726.49 307.271 730.79 307.077 734.937C300.499 735.884 290.11 735.667 283.169 735.715C276.667 735.714 244.575 740.1 243.873 730.896C243.139 721.287 261.636 722.144 268.511 721.822Z" fill="#FEC640"/>
<path d="M561.126 701.459C573.548 700.015 584.679 702.632 595.153 709.461L592.212 722.399C586.114 719.838 581.313 718.367 574.818 717.208C558.625 715.661 551.911 721.72 543.822 721.074C533.561 704.597 549.22 703.973 561.126 701.459Z" fill="#FEC640"/>
<path d="M614.52 788.111C616.897 788.552 627.899 803.781 631.931 807.665C631.236 808.07 630.637 808.434 629.957 808.875L629.105 809.435C619.839 815.396 622.665 821.313 612.814 823.271L612.065 823.121C605.636 821.803 598.841 817.754 595.313 812.214C587.764 800.362 607.113 792.184 614.52 788.111Z" fill="#FFFDED"/>
<path d="M444.601 1193.11L446.886 1186.66C449.633 1186.78 462.349 1187.35 464.114 1188.57L464.146 1194.08C464.341 1197.04 464.884 1201.96 464.217 1204.88C461.897 1215.02 448.898 1218.26 443.778 1208.3C441.184 1203.25 442.729 1198.19 444.601 1193.11Z" fill="#FE6665"/>
<path d="M444.602 1193.11L446.887 1186.66C449.634 1186.78 462.35 1187.35 464.115 1188.57L464.147 1194.08C461.523 1192.91 450.359 1193.98 444.602 1193.11Z" fill="#ED5552"/>
<path d="M411.493 1185.69C412.063 1184.12 412.987 1181.98 414.617 1181.48C425.408 1178.15 444.15 1180.05 431.975 1195.06C430.982 1196.91 428.831 1201.25 427.057 1202.15C414.532 1208.46 408.879 1195.91 411.493 1185.69Z" fill="#ED5552"/>
<path d="M411.493 1185.69C415.255 1187.54 430.189 1193.93 431.975 1195.06C430.982 1196.91 428.831 1201.25 427.057 1202.15C414.532 1208.46 408.879 1195.91 411.493 1185.69Z" fill="#FE6665"/>
<path d="M475.956 1197.05C476.267 1194.19 476.433 1192.27 476.48 1189.37C481.537 1189.6 487.688 1189.72 492.64 1190.22L493.771 1198.87C494.444 1204.61 495.168 1210.01 489.928 1214.02C487.923 1215.55 485.379 1216.19 482.891 1215.79C473.018 1214.12 474.65 1204.01 475.956 1197.05Z" fill="#FE6665"/>
<path d="M475.955 1197.05C476.266 1194.19 476.432 1192.27 476.479 1189.37C481.536 1189.6 487.687 1189.72 492.639 1190.22L493.77 1198.87C486.722 1198.59 482.935 1198.59 475.955 1197.05Z" fill="#ED5552"/>
<path d="M505.508 1189.7C511.218 1189.74 517.726 1188.18 521.584 1189.34C523.603 1190.92 523.721 1193.2 524.334 1195.86C525.149 1204.67 523.619 1219.07 509.309 1210.84C505.943 1208.91 505.662 1202.74 505.61 1198.92L505.6 1197.73L505.508 1189.7Z" fill="#FE6665"/>
<path d="M505.508 1189.7C511.218 1189.74 517.726 1188.18 521.584 1189.34C523.603 1190.92 523.721 1193.2 524.334 1195.86C518.082 1197.07 512.018 1198.25 505.6 1197.73L505.508 1189.7Z" fill="#ED5552"/>
<path d="M758.362 932.145L759.115 932.415C759.238 935.136 747.155 950.913 744.587 953.816L742.074 941.322C747.923 938.548 752.828 935.484 758.362 932.145Z" fill="#FFFDED"/>
<path d="M829.471 715.874C835.737 721.847 836.282 724.486 832.909 732.362L831.546 733.333L830.815 732.711C829.784 727.818 829.704 721.004 829.471 715.874Z" fill="#FEC640"/>
<path d="M523.033 113.557C535.377 112.572 547.798 113.284 559.948 115.675C645.507 133.159 686.146 231.97 627.44 298.723C609.45 319.179 591.468 324.63 585.629 352.864C594.427 365.346 593.995 373.076 586.41 386.037C588.633 409.538 581.999 412.361 561.817 421.778C561.408 422.781 560.97 423.771 560.503 424.748C555.893 434.352 548.288 438.627 538.621 441.987C516.926 445.562 505.455 440.645 495.74 421.135C486.249 416.294 469.1 404.58 471.052 390.632C472.946 377.101 466.796 376.79 465.429 365.26C464.612 358.37 468.654 351.482 473.382 347.382C482.951 334.77 453.158 313.168 447.19 307.201C428.144 288.124 411.212 259.73 410.683 231.859C409.432 165.924 459.285 117.328 523.033 113.557Z" fill="#4B2B21"/>
<path d="M487.601 345.325C487.926 319.515 467.51 308.477 452.319 291.29C423.555 258.744 416.515 218.608 437.49 179.745C450.041 156.49 469.56 140.146 495.195 132.54C553.607 115.209 618.293 138.762 636.517 200.374C649.63 243.397 632.457 275.136 602.382 304.801C595.333 311.754 587.122 316.171 580.874 323.684C578.56 326.475 574.825 335.835 572.724 339.857C571.484 343.187 570.17 346.466 569.306 349.911C564.848 349.62 560.382 349.472 555.914 349.469C548.853 349.436 541.672 349.535 534.648 348.88C529.674 348.984 523.312 348.685 518.239 348.589L515.997 348.715C513.927 349.612 516.194 348.689 515.107 350.709C509.176 352.879 505.054 353.579 502.685 347.153L501.991 346.847C496.472 346.555 493.118 346.374 487.601 345.325Z" fill="url(#paint0_linear_21_614)"/>
<path d="M483.232 251.088C492.387 232.456 496.057 221.756 519.948 228.273C528.437 232.216 530.183 239.579 539.574 231.693C547.096 225.318 559.839 225.111 568.168 230.083C595.126 246.174 568.61 275.407 564.243 295.976C561.268 309.987 558.855 323.889 557.961 337.674C556.821 341.57 556.979 346.389 555.914 349.469C548.853 349.436 541.672 349.535 534.648 348.88C529.674 348.984 523.312 348.685 518.239 348.589L515.997 348.715C513.927 349.612 516.194 348.689 515.107 350.709C509.176 352.879 505.054 353.579 502.685 347.153L501.991 346.847C504.217 341.084 498.404 293.101 495.126 284.57C490.418 272.317 484.808 266.206 483.232 251.088Z" fill="#FEA43C"/>
<path d="M518.239 348.589C517.419 347.157 517.536 347.889 517.479 346.352C516.479 319.322 513.672 292.685 502.539 267.712C498.982 259.734 495.873 248.223 503.294 241.609C505.624 239.387 509.191 238.552 512.275 239.132C514.685 243.569 515.286 247.402 518.877 251.317C523.571 256.435 532.516 259.968 538.999 256.365C543.087 254.057 543.756 251.133 545.508 247.14C551.994 243.179 561.189 236.182 566.399 245.989C572.459 257.393 557.391 273.155 553.656 282.205C547.887 296.184 545.762 312.219 544.09 327.105C543.681 331.039 542.495 347.43 541.176 348.636L534.648 348.88C529.674 348.984 523.312 348.685 518.239 348.589Z" fill="#F6DEA0"/>
<path d="M502.686 347.153C505.127 347.446 514.936 347.989 515.998 348.715C513.928 349.612 516.195 348.689 515.108 350.709C509.177 352.879 505.055 353.579 502.686 347.153Z" fill="#5E3026"/>
<path d="M555.914 349.469C556.979 346.389 556.821 341.57 557.961 337.674C558.607 340.615 557.755 344.05 559.212 345.943C563.002 345.815 564.682 345.264 568.641 345.649C570.578 343.428 569.12 342.283 571.665 340.035L572.724 339.857C571.484 343.187 570.17 346.466 569.306 349.911C564.848 349.62 560.382 349.472 555.914 349.469Z" fill="#F6DEA0"/>
<path d="M484.201 149.482C495.589 149.619 494.483 157.65 499.089 161.888C506.379 168.595 506.373 172.625 502.546 181.63C497.834 192.722 486.836 200.188 476.074 204.28L475.642 204.388C442.21 212.442 452.857 153.935 484.201 149.482Z" fill="#FFFDED"/>
<path d="M477.942 359.346C486.519 359.259 495.097 359.437 503.663 359.881C509.735 360.193 572.861 364.847 574.959 365.848C576.367 366.52 577.402 367.996 577.763 369.51C578.602 373.029 576.841 376.595 574.999 379.446C565.481 383.433 515.117 376.052 501.352 376.591C496.672 376.775 482.41 374.98 479.368 371.06C476.644 367.55 477.498 363.573 477.942 359.346Z" fill="#AA7D6D"/>
<path d="M491.509 389.529C514.878 389.898 538.952 393.127 562.553 393.146C578.986 393.159 570.944 400.559 564.632 407.2C564.385 407.337 564.143 407.483 563.891 407.61C557.303 410.934 505.863 407.617 498.02 405.109C493.938 403.804 488.283 401.248 486.45 397.087C485.615 395.192 485.729 393.633 486.364 391.718C487.935 389.942 489.079 390.002 491.509 389.529Z" fill="#AA7D6D"/>
<path d="M508.389 426.477C505.641 423.425 502.062 419.017 504.373 414.972C509.176 413.034 519.439 417.386 524.862 419.213C530.592 419.452 537.301 419.199 542.434 421.452L543.557 422.812C543.002 425.264 542.436 426.129 540 427.659C538.431 428.637 536.795 429.504 535.104 430.253C524.371 432.535 517.666 434.317 508.389 426.477Z" fill="#AA7D6D"/>
<path d="M508.389 426.477C505.641 423.425 502.062 419.017 504.373 414.972C509.176 413.034 519.439 417.386 524.862 419.213C518.353 419.971 513.144 419.887 506.614 419.103C511.182 423.263 512.541 424.411 517.755 427.637C514.587 427.606 511.517 426.992 508.389 426.477Z" fill="#6B3F36"/>
<path d="M508.389 426.477C511.517 426.992 514.587 427.606 517.755 427.637C525.285 429.607 527.643 429.453 535.104 430.253C524.371 432.535 517.666 434.317 508.389 426.477Z" fill="#5E3026"/>
<path d="M676.491 304.421C687.354 307.353 681.976 318.463 688.702 328.151C693.739 335.407 704.412 335.052 708.606 340.358C707.01 345.662 692.243 349.315 688.363 355.209C682.28 364.452 685.317 371.992 680.566 382.689C675.568 383.793 674.807 376.15 674.202 372.662C672.433 362.101 667.389 353.738 658.301 347.917C654.256 345.327 649.152 345.862 648.637 340.03C652.767 335.308 657.892 336.179 662.69 333.488C673.775 327.273 673.288 313.635 676.491 304.421Z" fill="#FEC640"/>
<path d="M356.867 237.972C357.276 238.066 359.783 238.841 359.794 238.857C363.406 244.555 363.413 254.365 367.166 260.808C371.245 267.813 382.304 270.155 386.158 275.01C386.115 278.875 376.102 282.215 372.336 285.837C363.305 294.523 364.525 301.469 361.592 311.898C351.001 314.129 355.057 302.194 352.691 295.058C349.249 284.677 338.118 282.665 333.023 277.034C332.788 276.343 331.835 274.036 332.77 273.674C353.063 265.809 350.325 256.123 356.867 237.972Z" fill="#FEC640"/>
<path d="M399.887 343.898C404.147 344.811 405.207 353.825 408.593 357.761C413.076 362.973 417.84 362.798 422.594 366.568C422.67 367.024 422.745 367.481 422.82 367.937C419.048 370.707 411.989 375.636 408.698 378.561C406.245 380.741 403.833 384.684 402.581 386.623C401.016 388.488 401.964 387.991 399.794 388.418C396.89 386.468 393.834 378.123 391.576 375.431C389.567 373.036 383.739 368.921 381.061 366.925C391.101 357.792 393.01 355.472 399.887 343.898Z" fill="#FEC640"/>
<path d="M912.034 709.828C922.761 708.084 928.955 723.234 915.482 726.258C907.644 728.017 900.107 728.637 892.146 729.553C889.692 729.796 885.416 729.846 883.685 727.999C867.752 710.997 904.831 710.541 912.034 709.828Z" fill="#FEC640"/>
<path d="M891.398 651.652C916.495 651.476 884.579 685.684 878.329 689.43C861.528 684.52 870.611 673.242 878.091 664.509C882.346 659.541 885.727 655.201 891.398 651.652Z" fill="#FEC640"/>
<path d="M714.026 187.682C723.439 186.421 727.495 199.285 716.734 203.155C707.814 206.364 698.771 207.74 689.586 210.199C680.402 210.326 675.345 198.532 687.901 194.427C696.686 191.556 705.043 189.778 714.026 187.682Z" fill="#FEC640"/>
<path d="M548.085 42.7916C558.907 43.1638 558.346 52.8501 558.056 61.5735C557.772 70.1191 559.041 78.2995 550.63 82.6198C535.622 83.128 540.762 63.6591 540.153 53.8389C539.72 46.8428 541.589 44.5602 548.085 42.7916Z" fill="#FEC640"/>
<path d="M660.941 85.4505C665.629 85.2568 672.96 87.2988 671.572 92.8203C669.271 101.971 654.804 115.229 647.9 120.753C645.593 121.092 640.736 119.677 639.478 117.943C633.845 110.179 655.484 90.033 660.941 85.4505Z" fill="#FEC640"/>
<path d="M439.922 58.3741C446.271 58.8624 449.422 64.465 452.324 69.7314C455.435 75.3772 461.035 83.3114 460.802 89.8336C460.722 92.0743 456.043 94.386 454.22 95.402C446.114 95.4696 441.638 84.5441 437.987 78.1068C432.23 67.9557 429.825 64.6677 439.922 58.3741Z" fill="#FEC640"/>
<path d="M356.922 149.821C362.416 150.049 365.521 151.68 370.2 154.4C378.754 159.37 398.066 167.97 384.011 178.727C375.744 176.925 361.254 168.274 354.898 162.19C350.071 157.568 352.648 153.567 356.922 149.821Z" fill="#FEC640"/>
<defs>
<linearGradient id="paint0_linear_21_614" x1="521.868" y1="128.192" x2="546.339" y2="347.487" gradientUnits="userSpaceOnUse">
<stop stop-color="#FFD76C"/>
<stop offset="1" stop-color="#FFECA3"/>
</linearGradient>
</defs>
</svg>
