<svg width="1024" height="1536" viewBox="0 0 1024 1536" fill="none" xmlns="http://www.w3.org/2000/svg">
<path d="M228.897 696.029L228.392 695.404C219.943 685.04 208.301 676.037 201.365 663.793C145.284 564.739 143.78 430.367 188.279 326.679C192.923 315.857 202.533 308.864 214.425 311.756C287.028 329.412 364.673 394.691 408.368 453.344C417.22 465.027 425.165 477.369 432.132 490.264C486.394 478.792 531.599 479.352 585.517 492.623C605.907 497.642 625.977 502.679 644.833 512.937C662.05 499.676 677.621 484.449 695.024 471.352C725.686 448.277 806.987 398.544 844.666 403.426C849.078 403.997 852.252 405.789 854.911 409.396C861.408 418.213 862.961 431.797 864.447 442.404C870.009 484.038 869.25 526.274 862.194 567.681C855.808 606.079 842.326 649.047 821.538 682.356C816.377 690.625 810.24 697.549 804.092 705.038C809.53 717.371 811.16 721.589 814.046 734.6C824.011 736.836 832.69 739.374 840.287 746.734C851.962 758.042 854.645 777.926 841.244 789.025L832.761 790.767C855.902 804.066 863.953 807.132 847.053 834.571C836.684 851.407 825.089 865.188 811.113 879.134C815.11 888.228 819.238 897.339 821.844 906.946C840.642 976.246 802.826 1068.64 735.715 1098.01C730.271 1100.4 724.622 1102.29 718.836 1103.66C703.624 1107.32 696.638 1106.15 700.575 1125.52C717.241 1207.53 702.711 1287.43 675.983 1365.25C686.896 1376.13 694.1 1381.09 695.464 1396.83C707.426 1398.51 740.421 1403.28 748.697 1412.03C750.12 1413.53 751.01 1415.23 750.92 1417.34C750.772 1420.8 746.664 1425 744.154 1427.14C717.357 1449.96 553.053 1453.54 511.718 1453.41C480.063 1453.25 448.423 1452.04 416.849 1449.78C391.619 1447.81 302.385 1439.67 287.417 1420.95C285.655 1418.74 284.735 1416.59 284.972 1413.76C290.707 1399.76 345.416 1397.38 352.337 1392.32L352.784 1387.46C351.176 1376.54 349.659 1364.82 347.629 1354.03C319.768 1379.76 287.857 1390.54 249.871 1389.32C210.87 1388.05 174.658 1373.51 147.896 1344.41C121.23 1315.42 112.715 1281.7 113.541 1242.89C114.089 1217.18 127.535 1185.95 108.402 1165.58C102.868 1159.69 100.575 1159.09 94.4809 1155.13C87.6488 1150.69 68.0078 1146.86 68.6553 1137.64C69.7382 1130.63 76.2293 1123.27 81.568 1119.32C108.717 1099.21 145.157 1090.32 178.487 1094.12C209.48 1097.65 244.67 1118.36 263.705 1142.94C264.753 1144.31 265.749 1145.72 266.692 1147.17C273.783 1113.85 285.767 1071.84 301.535 1041.62C248.798 1070.36 232.956 1025.87 183.39 1028.34C173.488 1037.55 165.147 1049 150.204 1048.98C141.517 1048.96 137.377 1041.67 138.111 1033.71C138.779 1026.48 142.389 1022.33 146.974 1017.04C128.496 1014.4 125.683 999.329 137.975 987.287C132.751 983.663 127.925 979.944 126.995 973.354C124.998 959.212 135.367 959.91 142.908 957.103C140.883 955.34 139.2 955.138 137.427 953.88C133.039 950.667 128.728 944.297 128.609 938.757C128.302 924.491 146.702 923.836 156.747 923.48C178.822 922.699 199.766 921.56 220.904 929.262C227.342 931.614 233.576 934.49 239.544 937.862C248.485 942.866 286.201 968.443 297.494 960.467C299.648 957.027 300.401 954.476 301.757 950.64C281.162 941.676 246.722 927.876 234.735 907.253C233.407 904.969 232.542 895.809 231.872 895.311C200.798 872.194 173.046 845.498 157.34 809.233C153.885 801.256 147.336 788.791 158.363 783.194C173.721 774.415 189.448 767.269 204.128 757.253C198.818 750.736 193.891 744.284 195.047 735.465C197.196 719.086 210.672 712.113 224.707 709.025L228.897 696.029Z" fill="#442926"/>
<path d="M545.074 1388.95C546.836 1397.34 549.847 1410.38 558.31 1414.62C588.362 1429.71 631.818 1431.7 664.677 1426.95C682.84 1424.32 692.84 1414.26 695.464 1396.83C707.426 1398.51 740.421 1403.28 748.697 1412.03C750.12 1413.53 751.01 1415.23 750.92 1417.34C750.772 1420.8 746.664 1425 744.154 1427.14C717.357 1449.96 553.053 1453.54 511.718 1453.41C480.063 1453.25 448.423 1452.04 416.849 1449.78C391.619 1447.81 302.385 1439.67 287.417 1420.95C285.655 1418.74 284.735 1416.59 284.972 1413.76C290.707 1399.76 345.416 1397.38 352.337 1392.32L352.784 1387.46C354.058 1396.64 356.103 1418.76 364.853 1423.52C388.728 1436.5 422.368 1434.26 448.629 1434.81C477.425 1435.41 494.356 1423.32 485.155 1392.3C510.093 1394.41 522.368 1389.78 545.074 1388.95Z" fill="#EDDBC1"/>
<path d="M487.824 1324.55C500.746 1322.82 530.364 1322.93 544.24 1322.86C543.232 1346.28 541.842 1365.66 545.074 1388.95C522.368 1389.78 510.093 1394.41 485.155 1392.3C479.353 1371.32 483.303 1345.71 487.824 1324.55Z" fill="#FFFDEE"/>
<path d="M317.85 1037.21C318.874 1035.55 319.969 1033.66 321.094 1032.1C340.553 1041.67 358.123 1051.15 379.055 1057.27C383.615 1058.6 394.901 1061.58 397.389 1065.01C397.467 1066.27 397.632 1068.08 397.639 1069.3C398.319 1092.79 397.796 1116.29 396.074 1139.72C394.898 1154.53 393.155 1170 392.306 1184.86C392.178 1187.09 394.145 1189.4 395.53 1191.2C384.256 1216.46 389.831 1238.19 421.309 1226.27C432.048 1238.92 439.641 1240.48 453.043 1229.81C462.919 1243.47 474.106 1242.19 485.66 1231.19C493.055 1239.84 504.049 1243.94 513.465 1235.45C523.688 1226.23 524.207 1211.1 521.053 1198.55C530.395 1183.68 527.233 1121.03 525.596 1101.5C524.687 1099.24 522.745 1081.54 522.495 1078.44C580.901 1077.69 626.99 1069.41 680.895 1045.83C684.545 1043.65 685.962 1042.4 689.201 1039.58C689.491 1046.6 687.376 1047.66 691.241 1052.43L688.607 1051.68C686.839 1053.62 682.621 1058 681.218 1059.91L679.84 1059.66C675.222 1060.96 674.214 1061.15 670.293 1063.83C669.547 1067.34 674.886 1076.94 676.321 1081.24C682.787 1100.58 686.215 1121.19 688.708 1141.38C694.998 1192.81 692.277 1244.94 680.666 1295.44C677.882 1307.58 674.29 1319.18 670.901 1331.14C668.13 1342.9 660.447 1366.47 663.948 1377.35C665.602 1382.5 683.422 1387.24 680.091 1398.21C678.571 1403.21 675.281 1411.58 668.858 1410.14C666.215 1406.13 667.313 1398.17 662.669 1394.35C658.275 1394.03 659.79 1396.44 655.726 1396.27C652.727 1402.16 662.688 1411.38 654.171 1414.58C652.33 1415.27 649.175 1415.25 647.192 1414.72C642.319 1407.29 643.869 1386.36 633.536 1387.45C631.707 1390.29 632.819 1397.77 633.573 1400.77C635.232 1407.37 635.195 1408.12 634.661 1414.64C617.762 1414.44 580.823 1413.44 568.008 1401.42C555.897 1390.06 555.348 1348.03 557.979 1332.61C558.079 1329.74 557.933 1320.99 560.853 1320.09C577.074 1315.08 592.673 1313.09 608.245 1305.64C609.205 1302.45 610.052 1300.56 609.424 1297.3C605.871 1291.85 593.384 1297.62 587.26 1299.2C560.384 1306.12 533.111 1309.35 505.35 1308.17C502.74 1308.06 493.1 1308.49 491.606 1307.36C491.17 1304.44 491.104 1301.85 489.464 1299.5C483.352 1296.67 478.735 1304.23 477.301 1309.27C473.648 1322.1 471.008 1335.34 468.179 1348.39C467.203 1359.14 466.643 1374.98 468.395 1385.59C470.146 1396.2 472.658 1401.6 472.756 1413.05C467.097 1418.73 461.226 1420.58 453.799 1422.56C448.602 1413.37 447.104 1403.71 443.016 1395.08L441.407 1394.7C439.078 1395.33 438.085 1395.34 436.521 1397.02C436.179 1405.94 437.593 1412.42 439.302 1421.07C431.539 1421.14 423.175 1420.68 415.369 1420.39C413.117 1413.43 409.803 1396.02 405.698 1391.59L404.416 1391.66C401.532 1396.09 401.639 1412.96 401.317 1419.14C394.647 1417.69 377.705 1414.96 374.451 1410.51C367.69 1401.27 360.849 1349.86 360.999 1339.96C359.047 1333.04 357.242 1319.15 356.089 1311.75C354.185 1299.54 351.995 1287.04 350.248 1274.83C364.446 1271.85 370.331 1265.11 374.736 1251.18C381.401 1230.1 376.036 1208.14 376.149 1186.66C376.238 1170 379.596 1153.29 382.13 1136.87C382.865 1131.96 388.643 1106.17 387.171 1103.4C384.868 1102.12 381.848 1102.46 379.075 1102.45C372.549 1115.25 367.041 1145.82 364.233 1160.37C357.808 1160.3 349.074 1153.35 342.282 1151.67C327.328 1147.87 312.514 1145.98 297.205 1149.1C291.763 1150.2 285.132 1152.19 279.746 1152.56C287.958 1108.06 298.041 1078.04 317.85 1037.21Z" fill="#FFFDEE"/>
<path d="M670.901 1331.14C668.13 1342.9 660.447 1366.47 663.948 1377.35C665.602 1382.5 683.422 1387.24 680.091 1398.21C678.571 1403.21 675.281 1411.58 668.858 1410.14C666.215 1406.13 667.313 1398.17 662.669 1394.35C658.275 1394.03 659.79 1396.44 655.726 1396.27C652.727 1402.16 662.688 1411.38 654.171 1414.58C652.33 1415.27 649.175 1415.25 647.192 1414.72C642.319 1407.29 643.869 1386.36 633.536 1387.45C631.707 1390.29 632.819 1397.77 633.573 1400.77C635.232 1407.37 635.195 1408.12 634.661 1414.64C617.762 1414.44 580.823 1413.44 568.008 1401.42C555.897 1390.06 555.348 1348.03 557.979 1332.61C558.505 1336.04 558.983 1338.76 559.041 1342.25C565.559 1344.03 573.63 1346.33 580.348 1346.32C608.032 1349.35 640.545 1349.6 666.699 1339.25L670.901 1331.14Z" fill="#FD686A"/>
<path d="M360.999 1339.96C361.474 1343.18 361.528 1346.36 363.454 1348.8C366.667 1350.52 371.79 1350.92 375.398 1351.17C397.659 1352.68 448.706 1359.64 468.179 1348.39C467.203 1359.14 466.643 1374.98 468.395 1385.59C470.146 1396.2 472.658 1401.6 472.756 1413.05C467.097 1418.73 461.226 1420.58 453.799 1422.56C448.602 1413.37 447.104 1403.71 443.016 1395.08L441.407 1394.7C439.078 1395.33 438.085 1395.34 436.521 1397.02C436.179 1405.94 437.593 1412.42 439.302 1421.07C431.539 1421.14 423.175 1420.68 415.369 1420.39C413.117 1413.43 409.803 1396.02 405.698 1391.59L404.416 1391.66C401.532 1396.09 401.639 1412.96 401.317 1419.14C394.647 1417.69 377.705 1414.96 374.451 1410.51C367.69 1401.27 360.849 1349.86 360.999 1339.96Z" fill="#FD686A"/>
<path d="M689.201 1039.58C689.491 1046.6 687.376 1047.66 691.241 1052.43L688.607 1051.68C686.839 1053.62 682.621 1058 681.218 1059.91L679.84 1059.66C675.222 1060.96 674.214 1061.15 670.293 1063.83L670.58 1060.67C663.487 1064.03 656.303 1067.28 649.191 1070.8C614.785 1087.8 575.407 1092.72 537.927 1098.86C535.145 1099.32 527.044 1099.76 525.596 1101.5C524.687 1099.24 522.745 1081.54 522.495 1078.44C580.901 1077.69 626.99 1069.41 680.895 1045.83C684.545 1043.65 685.962 1042.4 689.201 1039.58Z" fill="#EDDBC1"/>
<path d="M689.201 1039.58C689.491 1046.6 687.376 1047.66 691.241 1052.43L688.607 1051.68C686.839 1053.62 682.621 1058 681.218 1059.91L679.84 1059.66C679.711 1057.25 679.614 1056.86 678.815 1054.58L682.211 1050.68C682.733 1047.95 682.643 1048.91 680.895 1045.83C684.545 1043.65 685.962 1042.4 689.201 1039.58Z" fill="#FDEFCA"/>
<path d="M678.815 1054.58C679.614 1056.86 679.711 1057.25 679.84 1059.66C675.222 1060.96 674.214 1061.15 670.293 1063.83L670.58 1060.67C673.438 1058.71 676.066 1056.68 678.815 1054.58Z" fill="#F9EEE3"/>
<path d="M317.85 1037.21C318.874 1035.55 319.969 1033.66 321.094 1032.1C340.553 1041.67 358.123 1051.15 379.055 1057.27C383.615 1058.6 394.901 1061.58 397.389 1065.01C397.467 1066.27 397.632 1068.08 397.639 1069.3C393.45 1072.35 388.517 1080.36 382.434 1085.47C374.884 1081.42 371.647 1075.56 366.107 1072.49C351.386 1064.42 333.928 1058.84 321.951 1046.63C320.89 1045.55 319.506 1039.73 317.85 1037.21Z" fill="#EDDBC1"/>
<path d="M608.245 1305.64C606.335 1310.95 590.724 1332.68 585.867 1337.15C583.336 1339.49 576.355 1343.73 575.877 1344.4L580.348 1346.32C573.63 1346.33 565.559 1344.03 559.041 1342.25C558.983 1338.76 558.505 1336.04 557.979 1332.61C558.079 1329.74 557.933 1320.99 560.853 1320.09C577.074 1315.08 592.673 1313.09 608.245 1305.64Z" fill="#EDDBC1"/>
<path d="M419.557 507.594C425.664 509.863 427.898 508.519 433.972 507.168C537.545 484.116 644.724 507.698 718.137 586.657C736.056 606.029 756.228 635.585 764.452 660.852C758.319 656.647 751.795 653.044 744.969 650.094C674.041 623.266 614.364 655.324 586.562 723.776C564.801 716.8 549.505 715.397 527.179 720.629C525.658 712.045 522.878 703.732 518.931 695.959C495.926 649.764 447.254 625.029 396.582 630.749C348.608 636.164 311.897 670.536 297.179 715.374C288.759 713.39 280.018 712.326 271.724 711.127C267.021 710.448 243.681 709.199 241.254 708.051C239.574 702.502 256.672 665.224 260.626 658.371C264.939 650.895 287.131 611.286 292.727 608.263L292.658 602.432C293.707 600.598 302.348 592.098 304.3 590.13C315.046 575.656 330.535 559.538 346.873 551.522C352.712 549.529 353.574 548.16 356.294 542.828C359.042 536.042 400.21 519.38 408.435 513.558C409.999 512.45 417.682 508.428 419.557 507.594Z" fill="#FFFDEE"/>
<path d="M718.137 586.657C736.056 606.029 756.228 635.585 764.452 660.852C758.319 656.647 751.795 653.044 744.969 650.094C750.762 635.294 717.471 592.688 718.137 586.657Z" fill="#EDDBC1"/>
<path d="M292.658 602.432C293.707 600.598 302.348 592.098 304.3 590.13C303.152 595.177 297.703 606.248 292.727 608.263L292.658 602.432Z" fill="#FDEFCA"/>
<path d="M444.485 591.212C452.727 591.029 459.713 595.293 458.699 604.402C457.935 605.543 457.536 606.672 455.963 606.597C441.806 605.923 435.019 605.943 422.091 612.202C417.572 614.794 411.555 619.072 408.339 612.691C408.416 597.911 433.434 593.013 444.485 591.212Z" fill="#442926"/>
<path d="M651.002 598.291C650.449 598.174 667.382 610.48 669.955 611.956C675.876 615.352 686.719 616.316 689.931 618.993C691.229 622.197 691.172 620.998 690.821 624.018C689.48 626.437 688.173 626.974 685.846 628.371C670.939 630.018 657.373 623.278 648.019 611.93C642.75 605.539 645.629 601.849 651.002 598.291Z" fill="#442926"/>
<path d="M186.473 785.702C205.691 774.755 216.798 769.416 227.889 752.897C232.207 746.465 281.273 756.987 291.452 759.749L291.789 760.684C295.005 769.737 296.647 779.447 299.737 788.664C319.624 847.971 391.626 878.133 449.332 858.015C481.575 846.775 511.108 820.198 522.951 787.841C528.705 788.73 544.784 791.289 549.516 793.931C527.997 805.721 544.072 830.107 560.372 838.661C560.31 846.721 559.803 855.84 556.882 863.408C539.765 864.484 526.509 866.135 513.975 879.286C506.208 887.436 514.701 896.408 519.695 892.786C534.749 881.87 553.214 872.856 572.284 879.42C578.915 881.701 582.947 889.166 586.135 896.081C590.45 895.854 599.527 894.445 597.756 887.786C594.124 874.128 582.397 866.377 569.113 863.722C572.053 855.461 572.074 848.37 574.57 840.539C592.367 835.373 594.805 830.176 597.505 812.891C623.678 855.962 670.937 879.976 721.156 868.681C711.581 888.589 718.488 890.16 724.861 907.754C712.142 915.133 714.115 920.469 707.155 928.354C704.947 932.391 703.619 936.836 701.433 940.877C695.879 951.145 658.943 961.785 646.599 965.517C549.074 995.005 441.82 980.843 346.722 948.973C319.578 939.876 293.054 929.764 267.772 916.206C265.289 914.874 259.375 912.433 258.576 909.777C259.81 908.028 274.19 901.611 268.851 898.036C256.41 889.707 243.751 883.968 231.846 874.375C212.624 859.023 195.914 840.767 182.319 820.267C177.005 812.183 172.8 803.489 167.217 795.607L186.473 785.702Z" fill="#FFFDEE"/>
<path d="M167.217 795.607L186.473 785.702C191.341 797.049 198.699 806.379 205.912 816.389C240.363 865.008 288.23 902.544 343.668 924.412C360.806 931.253 398.818 945.879 415.638 949.756C502.199 969.711 601.773 975.279 685.138 939.737C692.984 936.392 700.314 931.279 707.155 928.354C704.947 932.391 703.619 936.836 701.433 940.877C695.879 951.145 658.943 961.785 646.599 965.517C549.074 995.005 441.82 980.843 346.722 948.973C319.578 939.876 293.054 929.764 267.772 916.206C265.289 914.874 259.375 912.433 258.576 909.777C259.81 908.028 274.19 901.611 268.851 898.036C256.41 889.707 243.751 883.968 231.846 874.375C212.624 859.023 195.914 840.767 182.319 820.267C177.005 812.183 172.8 803.489 167.217 795.607Z" fill="#EDDBC1"/>
<path d="M87.8896 1134.94C92.7524 1130.71 98.1767 1125.8 104.181 1123.23C133.574 1110.62 164.393 1103.06 195.407 1113.17C222.229 1121.91 249.73 1144.57 262.072 1169.26C261.708 1180.65 260.438 1191.8 260.137 1203.53C260.719 1225.77 264.634 1245.97 281.761 1261.8C296.578 1275.5 309.35 1278.64 328.782 1276.16C331.797 1275.53 330.847 1275.31 333.444 1276.23C335.052 1278.46 343.714 1332.2 344.877 1338.48C324.208 1357.12 298.19 1370.67 270.118 1372.72C210.312 1377.09 155.639 1351.09 135.309 1292.4C129.753 1277 128.531 1245.27 130.661 1229.42C137.301 1179.98 141.806 1156.58 87.8896 1134.94Z" fill="#FFFDEE"/>
<path d="M87.8896 1134.94C92.7524 1130.71 98.1767 1125.8 104.181 1123.23C133.574 1110.62 164.393 1103.06 195.407 1113.17C222.229 1121.91 249.73 1144.57 262.072 1169.26C261.708 1180.65 260.438 1191.8 260.137 1203.53C250.275 1199.09 246.15 1197.36 237.664 1190.72L237.541 1191.72C236.528 1200.34 238.664 1210.13 234.793 1217.79C221.607 1243.89 200.617 1213.6 193.354 1200.47C193.211 1220.83 198.391 1244.26 182.81 1260.72C173.373 1270.69 157.265 1267.74 148.55 1258.48C142.935 1252.51 141.712 1247.99 139.214 1240.54C137.865 1248.96 139.327 1256 140.348 1264.44C140.06 1277.08 140.598 1281.03 135.309 1292.4C129.753 1277 128.531 1245.27 130.661 1229.42C137.301 1179.98 141.806 1156.58 87.8896 1134.94Z" fill="#FD686A"/>
<path d="M140.348 1264.44L140.63 1264.97C143.701 1270.86 146.106 1276.96 149.286 1283.12C171.016 1325.19 225.902 1344.24 270.373 1332.63C278.783 1330.43 288.542 1323.89 296.716 1320.47C308.007 1316.13 330.493 1289.84 330.152 1277.6C329.436 1276.51 329.792 1276.69 328.782 1276.16C331.797 1275.53 330.847 1275.31 333.444 1276.23C335.052 1278.46 343.714 1332.2 344.877 1338.48C324.208 1357.12 298.19 1370.67 270.118 1372.72C210.312 1377.09 155.639 1351.09 135.309 1292.4C140.598 1281.03 140.06 1277.08 140.348 1264.44Z" fill="#EDDBC1"/>
<path d="M207.591 326.708C285.368 346.548 364.35 417.685 407.818 484.151C411.179 489.29 418.728 501.784 419.557 507.594C417.682 508.428 409.999 512.45 408.435 513.558C400.21 519.38 359.042 536.042 356.294 542.828C349.921 528.263 347.793 516.516 339.071 500.898C318.807 464.61 287.81 427.365 254.316 402.57C248.018 397.908 240.1 392.291 232.809 390.039C228.47 392.209 226.805 393.195 224.059 397.071C230.631 403.57 243.84 410.64 252.048 417.825C275.684 438.514 293.587 460.915 310.871 486.924C298.203 480.488 260.507 459.978 249.933 480.708C245.316 489.76 247.05 508.409 250.749 517.566C253.253 524.338 256.094 528.464 258.826 534.416C240.736 537.871 237.982 547.737 241.555 565.098C245.439 583.976 258.521 597.455 273.96 608.163C264.067 621.213 258.188 630.642 250.072 644.991C247.919 649.282 235.426 677.27 233.866 678.304C223.696 675.554 200.248 624.497 194.928 613.177C192.358 607.707 187.066 587.618 185.354 580.362C165.506 496.212 173.416 406.113 207.591 326.708Z" fill="#FD686A"/>
<path d="M250.072 644.991C248.16 643.324 242.462 635.651 240.966 633.337C216.465 595.445 213.979 538.725 212.446 494.842C211.81 476.658 209.422 459.682 211.621 441.549C213.046 430.363 215.901 419.405 220.116 408.946C221.294 406.069 224.592 399.621 224.059 397.071C230.631 403.57 243.84 410.64 252.048 417.825C275.684 438.514 293.587 460.915 310.871 486.924C298.203 480.488 260.507 459.978 249.933 480.708C245.316 489.76 247.05 508.409 250.749 517.566C253.253 524.338 256.094 528.464 258.826 534.416C240.736 537.871 237.982 547.737 241.555 565.098C245.439 583.976 258.521 597.455 273.96 608.163C264.067 621.213 258.188 630.642 250.072 644.991Z" fill="#EC5450"/>
<path d="M401.727 643.04C459.072 637.677 509.961 679.678 515.556 736.987C521.151 794.296 479.345 845.341 422.045 851.165C364.418 857.022 313.006 814.936 307.379 757.3C301.752 699.664 344.055 648.434 401.727 643.04Z" fill="#F7B524"/>
<path d="M403.683 656.868C453.321 652.245 497.267 688.829 501.707 738.472C506.147 788.115 469.39 831.914 419.719 836.168C370.309 840.399 326.779 803.886 322.363 754.504C317.946 705.122 354.306 661.467 403.683 656.868Z" fill="#442926"/>
<path d="M402.384 669.811C445.111 665.008 483.644 695.739 488.456 738.455C493.269 781.17 462.538 819.7 419.813 824.52C377.076 829.341 338.523 798.607 333.71 755.879C328.896 713.152 359.645 674.615 402.384 669.811Z" fill="#FFFDEE"/>
<path d="M414.506 688.615C446.094 684.684 474.922 707.012 479.008 738.574C483.094 770.135 460.901 799.064 429.352 803.303C397.585 807.57 368.405 785.196 364.291 753.417C360.177 721.637 382.699 692.573 414.506 688.615Z" fill="#442926"/>
<path d="M442.503 708.022C454.456 707.705 462.26 725.328 444.487 733.212C438.48 732.376 433.181 729.986 431.231 723.565C430.306 720.468 430.744 717.123 432.436 714.369C434.996 710.183 438.173 709.164 442.503 708.022Z" fill="#FFFDEE"/>
<path d="M403.719 841.794C377.018 838.938 357.557 830.605 338.863 810.544C332.784 804.022 321.019 785.647 321.486 777.391C333.742 812.937 367.854 835.811 404.254 840.265L404.461 841.301L403.719 841.794Z" fill="#FDEFCA"/>
<path d="M424.437 648.947C423.344 648.832 422.245 648.768 421.145 648.754C386.737 648.21 363.018 655.502 337.892 679.765L337.284 679.588C337.505 678.256 337.761 676.161 338.759 675.174C354.257 659.849 374.146 650.235 395.832 647.868C403.934 646.983 412.35 647.311 420.652 647.132L424.437 648.947Z" fill="#FDEFCA"/>
<path d="M490.025 690.979C498.35 702.564 503.644 713.37 506.533 727.519C507.181 730.694 509.562 736.982 506.957 739.56C505.397 735.249 504.759 729.967 503.748 725.482C501.684 716.325 495.083 699.267 489.021 692.663L490.025 690.979Z" fill="#FDEFCA"/>
<path d="M420.652 647.132C425.402 647.606 431.336 647.83 435.596 649.712L434.546 649.032L433.417 650.71C431.843 650.376 425.227 649.281 424.437 648.947L420.652 647.132Z" fill="#FCCC63"/>
<path d="M404.254 840.265C406.838 840.434 412.466 840.517 414.453 841.748L411.914 840.665L412.552 842.566C410.63 842.582 405.35 842.53 403.719 841.794L404.461 841.301L404.254 840.265Z" fill="#FCCC63"/>
<path d="M480.492 681.703C484.713 684.569 487.094 686.881 490.025 690.979L489.021 692.663C486.137 689.042 483.293 685.388 480.492 681.703Z" fill="#FCCC63"/>
<path d="M684.174 654.867C739.861 646.486 791.807 684.803 800.227 740.47C808.647 796.138 770.356 848.097 714.68 856.552C658.952 865.015 606.921 826.689 598.493 770.969C590.065 715.249 628.435 663.256 684.174 654.867Z" fill="#F7B524"/>
<path d="M692.24 668.368C740.745 664.993 782.821 701.529 786.27 750.018C789.719 798.506 753.237 840.627 704.742 844.148C656.143 847.676 613.903 811.108 610.447 762.517C606.991 713.925 643.631 671.75 692.24 668.368Z" fill="#442926"/>
<path d="M689.811 682.352C731.028 677.749 768.212 707.326 772.988 748.513C777.764 789.701 748.335 826.998 707.158 831.945C665.737 836.92 628.162 807.287 623.358 765.856C618.553 724.425 648.351 686.983 689.811 682.352Z" fill="#FFFDEE"/>
<path d="M674.416 701.39C722.803 697.272 745.95 746.035 724.272 785.967C718.014 797.497 704.714 808.361 691.744 811.397C622.645 821.871 609.947 717.506 674.416 701.39Z" fill="#442926"/>
<path d="M689.638 719.225C694.716 718.837 700.087 720.731 703.123 724.993C705 727.64 705.618 730.977 704.814 734.12C703.635 738.867 700.63 740.631 696.816 742.885C684.562 745.233 674.934 729.389 689.638 719.225Z" fill="#FFFDEE"/>
<path d="M669.65 667.839L671.204 667.916C669.369 670.65 658.746 673.453 654.896 675.665C618.317 696.679 604.203 726.963 609.188 768.806C615.82 824.466 664.365 860.217 719.556 848.107C726.609 846.559 735.831 842.724 742.198 841.826L741.671 842.539C711.86 856.959 684.707 860.774 654.691 843.928C632.494 831.332 616.302 810.334 609.765 785.668C596.218 735.818 616.719 682.086 669.65 667.839Z" fill="#FDEFCA"/>
<path d="M696.48 663.244C722.775 663.854 739.587 670.458 759.696 687.583C774.187 699.924 787.223 720.281 788.415 739.518C786.148 734.14 784.702 728.705 782.539 723.365C770.52 693.697 740.003 669.527 707.89 666.463C704.736 666.162 698.955 665.874 696.307 664.667L696.48 663.244Z" fill="#FDEFCA"/>
<path d="M661.663 521.403C696.695 484.532 746.881 452.279 793.821 432.796C801.73 429.513 811.133 427.196 819.253 424.968C822.683 424.027 841.146 416.815 842.626 420.511C852.082 444.129 852.115 474.838 853.25 500.203C854.097 558.321 835.717 646.51 796.801 690.415C783.047 678.844 780.545 673.964 777.816 657.422C776.95 653.196 774.68 646.261 773.367 641.861C787.937 629.283 802.388 610.84 780.742 596.322C793.27 585.296 805.48 551.178 787.232 539.882C777.179 533.659 767.434 536.988 756.94 539.273C761.966 533.512 769.877 526.75 775.39 521.008C791.551 504.175 806.479 490.234 824.335 475.176C824.063 471.155 823.986 469.284 820.318 467.475C815.39 467.502 812.026 470.446 808.118 473.276C800.209 480.386 791.073 486.925 783.3 493.848C765.451 509.743 745.644 530.698 731.919 550.284C728.196 555.539 725.333 559.754 720.933 564.477C713.212 560.042 706.862 553.015 699.992 547.876C689.47 540.005 673.102 527.263 661.663 521.403Z" fill="#FD686A"/>
<path d="M756.94 539.273C761.966 533.512 769.877 526.75 775.39 521.008C791.551 504.175 806.479 490.234 824.335 475.176C829.342 499.297 826.666 516.288 823.243 540.425C820.705 558.316 819.859 577.061 814.633 594.487C808.975 611.783 792.171 645.784 777.816 657.422C776.95 653.196 774.68 646.261 773.367 641.861C787.937 629.283 802.388 610.84 780.742 596.322C793.27 585.296 805.48 551.178 787.232 539.882C777.179 533.659 767.434 536.988 756.94 539.273Z" fill="#EC5450"/>
<path d="M731.919 550.284C728.795 533.611 775.156 491.256 788.72 481.323C792.249 478.738 801.653 470.13 805.64 469.999L808.118 473.276C800.209 480.386 791.073 486.925 783.3 493.848C765.451 509.743 745.644 530.698 731.919 550.284Z" fill="#EC5450"/>
<path d="M760.199 866.576C766.616 863.14 769.475 861.258 776.941 863.344C785.844 865.833 794.314 876.066 798.273 884.084C814.815 917.59 814.337 959.974 802.7 994.983C801.444 998.761 799.643 1003.95 797.904 1007.4C789.272 1029.38 768.362 1059.96 748.133 1072.19C729.872 1084.23 716.479 1088.59 695.485 1093.23C691.575 1085.08 686.661 1066.33 681.218 1059.91C682.621 1058 686.839 1053.62 688.607 1051.68L691.241 1052.43C687.376 1047.66 689.491 1046.6 689.201 1039.58C705.347 1022.7 708.016 1009.28 709.619 986.954C709.787 968.58 711.898 952.337 721.039 936.088C723.641 931.464 726.598 924.722 732.552 924.425C735.369 925.445 737.315 930.297 738.814 933.201C748.226 922.077 744.186 915.835 738.544 903.293C733.052 891.088 734.383 863.955 752.978 880.977C756.076 883.789 758.798 886.988 761.077 890.496C764.015 895.002 768.182 905.862 772.421 906.709C784.729 901.918 763.851 873.209 760.199 866.576Z" fill="#FD686A"/>
<path d="M709.619 986.954C715.039 988.065 721.115 993.988 726.342 997.317C742.639 1007.7 765.229 1013.68 784.561 1012.12C788.263 1011.83 794.141 1008.12 797.904 1007.4C789.272 1029.38 768.362 1059.96 748.133 1072.19C729.872 1084.23 716.479 1088.59 695.485 1093.23C691.575 1085.08 686.661 1066.33 681.218 1059.91C682.621 1058 686.839 1053.62 688.607 1051.68L691.241 1052.43C687.376 1047.66 689.491 1046.6 689.201 1039.58C705.347 1022.7 708.016 1009.28 709.619 986.954Z" fill="#FFFDEE"/>
<path d="M681.218 1059.91C682.621 1058 686.839 1053.62 688.607 1051.68L691.241 1052.43C708.307 1066.77 727.127 1069.98 748.133 1072.19C729.872 1084.23 716.479 1088.59 695.485 1093.23C691.575 1085.08 686.661 1066.33 681.218 1059.91Z" fill="#EDDBC1"/>
<path d="M410.302 1064.86C445.789 1072.2 473.285 1075.01 508.85 1077.91C510.284 1083.43 511.474 1088.39 511.81 1094.15C512.175 1098.04 513.042 1104.91 513.084 1108.58C514.683 1124.14 514.514 1136.27 513.714 1151.83C513.198 1161.99 510.623 1176.87 509.273 1187.5C473.213 1193.57 444.55 1191.89 408.612 1182.86C409.558 1166.42 409.578 1148.48 410.935 1132.46C411.124 1124.69 410.957 1116.59 410.902 1108.78C410.073 1099.91 410.364 1086.87 410.331 1077.7L410.302 1064.86Z" fill="#FFFDEE"/>
<path d="M410.935 1132.46C410.915 1136.47 410.863 1140.48 410.78 1144.49C415.955 1146.22 426.641 1150.04 431.63 1150.99C448.37 1154.19 467.557 1153.6 484.519 1152.46C492.588 1151.91 506.53 1150.1 513.714 1151.83C513.198 1161.99 510.623 1176.87 509.273 1187.5C473.213 1193.57 444.55 1191.89 408.612 1182.86C409.558 1166.42 409.578 1148.48 410.935 1132.46Z" fill="#FD686A"/>
<path d="M410.302 1064.86C445.789 1072.2 473.285 1075.01 508.85 1077.91C510.284 1083.43 511.474 1088.39 511.81 1094.15C512.175 1098.04 513.042 1104.91 513.084 1108.58C496.603 1114.16 462.85 1108.14 445.474 1105.67C437.522 1104.53 418.711 1099.75 411.731 1101.86C410.791 1103.49 410.963 1106.74 410.902 1108.78C410.073 1099.91 410.364 1086.87 410.331 1077.7L410.302 1064.86Z" fill="#FD686A"/>
<path d="M410.302 1064.86C445.789 1072.2 473.285 1075.01 508.85 1077.91C510.284 1083.43 511.474 1088.39 511.81 1094.15C486.932 1094.84 463.426 1093.52 439.337 1086.49C431.018 1084.07 418.434 1078.2 411.581 1076.7L410.331 1077.7L410.302 1064.86Z" fill="#EC5450"/>
<path d="M445.039 990.404C464.753 993.065 480.785 994.444 500.305 996.424C513.165 996.907 530.055 997.896 542.758 997.19C565.564 996.234 584.428 993.779 606.987 991.048C606.727 996.809 606.431 1002.57 606.101 1008.32L606.527 1010.2C608.107 1026.2 608.981 1037.8 608.08 1054.15C598.326 1056.07 589.575 1057.72 579.689 1059.05C570.46 1060.29 560.367 1060.68 551.382 1061.93C532.421 1063.08 516.535 1063 497.571 1062.69C478.091 1060.71 453.804 1057.46 434.561 1054.22C435.552 1053.92 435.463 1054.07 436.189 1053.42C440.22 1049.85 439.732 1014.77 440.736 1007.07L441.291 1005.1C442.658 1000.34 444.26 995.274 445.039 990.404Z" fill="#FD686A"/>
<path d="M445.039 990.404C464.753 993.065 480.785 994.444 500.305 996.424C496.829 1001.64 496.654 1005.74 495.776 1011.89L496 1012.81C494.82 1034.97 494.312 1040.4 497.571 1062.69C478.091 1060.71 453.804 1057.46 434.561 1054.22C435.552 1053.92 435.463 1054.07 436.189 1053.42C440.22 1049.85 439.732 1014.77 440.736 1007.07L441.291 1005.1C442.658 1000.34 444.26 995.274 445.039 990.404Z" fill="#FD686A"/>
<path d="M445.039 990.404C464.753 993.065 480.785 994.444 500.305 996.424C496.829 1001.64 496.654 1005.74 495.776 1011.89C482.628 1010.9 456.763 1008.66 442.616 1006.38C442.174 1005.96 441.732 1005.53 441.291 1005.1C442.658 1000.34 444.26 995.274 445.039 990.404Z" fill="#EC5450"/>
<path d="M500.305 996.424C513.165 996.907 530.055 997.896 542.758 997.19C545.714 997.586 546.143 997.071 547.833 999.6C549.759 1002.48 550.791 1007.61 551.644 1011.07L551.302 1011.54L551.382 1061.93C532.421 1063.08 516.535 1063 497.571 1062.69C494.312 1040.4 494.82 1034.97 496 1012.81L495.776 1011.89C496.654 1005.74 496.829 1001.64 500.305 996.424Z" fill="#FFFDEE"/>
<path d="M500.305 996.424C513.165 996.907 530.055 997.896 542.758 997.19C545.714 997.586 546.143 997.071 547.833 999.6C549.759 1002.48 550.791 1007.61 551.644 1011.07L551.302 1011.54C548.034 1010.4 499.134 1010.47 496.722 1011.6L496 1012.81L495.776 1011.89C496.654 1005.74 496.829 1001.64 500.305 996.424Z" fill="#EDDBC1"/>
<path d="M542.758 997.19C565.564 996.234 584.428 993.779 606.987 991.048C606.727 996.809 606.431 1002.57 606.101 1008.32C591.157 1010.08 566.397 1012.23 551.644 1011.07C550.791 1007.61 549.759 1002.48 547.833 999.6C546.143 997.071 545.714 997.586 542.758 997.19Z" fill="#EC5450"/>
<path d="M172.462 939.38C190.864 937.04 203.744 938.903 220.99 945.579C231.088 950.142 240.026 955.692 249.37 961.626C264.96 969.835 272.424 973.097 290.431 974.018L297.567 973.727C296.758 987.341 296.25 1008.89 305.751 1019.45C306.371 1020.13 307.007 1020.8 307.658 1021.46C302.024 1028.15 299.929 1029.87 292.344 1034.24C276.896 1039.17 253.761 1037.15 240.154 1028.05C226.691 1020.54 219.707 1017.3 204.869 1013.67C200.555 1013.07 192.731 1012.38 188.626 1012.93L188.024 1013.01C183.169 1013.66 180.877 1014.85 176.319 1016.87C173.689 999.511 173.314 975.354 173.185 957.82C172.353 951.952 172.508 945.353 172.462 939.38Z" fill="#FFFDEE"/>
<path d="M249.37 961.626C264.96 969.835 272.424 973.097 290.431 974.018L297.567 973.727C296.758 987.341 296.25 1008.89 305.751 1019.45C306.371 1020.13 307.007 1020.8 307.658 1021.46C302.024 1028.15 299.929 1029.87 292.344 1034.24C276.896 1039.17 253.761 1037.15 240.154 1028.05C240.508 1009.42 236.615 996.68 243.235 977.424C245.325 972.434 247.397 966.719 249.37 961.626Z" fill="#FD686A"/>
<path d="M290.431 974.018L297.567 973.727C296.758 987.341 296.25 1008.89 305.751 1019.45C306.371 1020.13 307.007 1020.8 307.658 1021.46C302.024 1028.15 299.929 1029.87 292.344 1034.24L286.454 1029.32C282.287 1014.21 282.53 999.443 282.06 983.875C282.2 980.855 282.203 978.051 283.797 975.519C286.702 973.558 286.377 974.182 290.431 974.018Z" fill="#EDDBC1"/>
<path d="M249.37 961.626C264.96 969.835 272.424 973.097 290.431 974.018C286.377 974.182 286.702 973.558 283.797 975.519C282.203 978.051 282.2 980.855 282.06 983.875C281.15 985.098 280.728 988.811 280.128 990.917C274.675 993.576 246.424 982.531 243.235 977.424C245.325 972.434 247.397 966.719 249.37 961.626Z" fill="#EC5450"/>
<path d="M172.462 939.38C190.864 937.04 203.744 938.903 220.99 945.579C215.05 948.949 213.407 951.109 209.372 956.663C200.789 971.875 197.973 989.661 202.689 1006.62C203.364 1008.99 204.091 1011.33 204.869 1013.67C200.555 1013.07 192.731 1012.38 188.626 1012.93L188.024 1013.01C183.169 1013.66 180.877 1014.85 176.319 1016.87C173.689 999.511 173.314 975.354 173.185 957.82C172.353 951.952 172.508 945.353 172.462 939.38Z" fill="#FD686A"/>
<path d="M172.462 939.38C190.864 937.04 203.744 938.903 220.99 945.579C215.05 948.949 213.407 951.109 209.372 956.663C202.032 955.058 180.01 949.71 173.933 951.603C173.522 953.973 173.326 955.422 173.185 957.82C172.353 951.952 172.508 945.353 172.462 939.38Z" fill="#EC5450"/>
<path d="M279.746 1152.56C285.132 1152.19 291.763 1150.2 297.205 1149.1C312.514 1145.98 327.328 1147.87 342.282 1151.67C349.074 1153.35 357.808 1160.3 364.233 1160.37C361.863 1184.24 361.703 1205.57 362.777 1229.32C362.536 1238.41 361.162 1250.12 354.417 1256.5C337.859 1272.16 335.684 1233.31 331.236 1228.37C328.487 1228.73 326.708 1229.84 324.223 1231.07C319.3 1239 332.967 1254.23 327.024 1260.21C319.767 1262.02 312.937 1257.59 307.881 1253.35C298.696 1245.66 302.02 1233.98 297.381 1226.25C283.404 1224.04 297.128 1245.8 294.313 1251.89C265.944 1248.85 276.296 1172.27 279.746 1152.56Z" fill="#FD686A"/>
<path d="M313.451 976.813C314.328 968.934 315.336 963.029 317.969 955.493C326.121 958.989 344.715 965.966 353.177 967.986C369.581 973.194 381.294 976.713 398.191 980.431C413.237 984.329 429.625 988.159 445.039 990.404C444.26 995.274 442.658 1000.34 441.291 1005.1L440.736 1007.07C439.732 1014.77 440.22 1049.85 436.189 1053.42C435.463 1054.07 435.552 1053.92 434.561 1054.22C421.762 1051.89 409.012 1049.3 396.319 1046.45C379.952 1043.34 352.395 1031.88 338.117 1022.96C331.517 1018.78 320.861 1014.52 316.8 1007.82C312.301 1000.39 313.457 985.509 313.451 976.813Z" fill="#FD686A"/>
<path d="M389.794 995.36C390.925 993.242 397.22 981.119 398.191 980.431C413.237 984.329 429.625 988.159 445.039 990.404C444.26 995.274 442.658 1000.34 441.291 1005.1L440.736 1007.07C439.732 1014.77 440.22 1049.85 436.189 1053.42C435.463 1054.07 435.552 1053.92 434.561 1054.22C421.762 1051.89 409.012 1049.3 396.319 1046.45C393.411 1045.13 389.943 1043.88 388.218 1041.31C386.534 1033.67 387.961 1003.88 389.928 995.898L389.794 995.36Z" fill="#FFFDEE"/>
<path d="M389.794 995.36C390.925 993.242 397.22 981.119 398.191 980.431C413.237 984.329 429.625 988.159 445.039 990.404C444.26 995.274 442.658 1000.34 441.291 1005.1L440.736 1007.07L440.314 1006.38C438.025 1005.25 435.27 1004.91 432.74 1004.53C418.265 1002.34 404.197 999.142 389.928 995.898L389.794 995.36Z" fill="#EDDBC1"/>
<path d="M313.451 976.813C314.328 968.934 315.336 963.029 317.969 955.493C326.121 958.989 344.715 965.966 353.177 967.986C350.076 973.535 347.327 979.079 344.48 984.759L343.911 985.663C340.094 997.558 341.778 1012.02 338.117 1022.96C331.517 1018.78 320.861 1014.52 316.8 1007.82C312.301 1000.39 313.457 985.509 313.451 976.813Z" fill="#FFFDEE"/>
<path d="M313.451 976.813C314.328 968.934 315.336 963.029 317.969 955.493C326.121 958.989 344.715 965.966 353.177 967.986C350.076 973.535 347.327 979.079 344.48 984.759L343.911 985.663C341.58 984.354 316.767 977.388 313.451 976.813Z" fill="#EDDBC1"/>
<path d="M353.177 967.986C369.581 973.194 381.294 976.713 398.191 980.431C397.22 981.119 390.925 993.242 389.794 995.36C385.82 995.069 373.485 991.695 369.052 990.567C360.951 988.506 352.5 986.799 344.48 984.759C347.327 979.079 350.076 973.535 353.177 967.986Z" fill="#EC5450"/>
<path d="M261.106 546.097C267.53 548.931 284.448 557.06 290.634 553.332C291.541 547.323 279.925 539.205 276.4 534.466C261.968 515.069 243.277 470.337 288.411 489.163C302.029 494.844 320.431 504.322 329.179 516.242C333.995 522.805 339.846 537.684 343.358 545.525C344.469 547.432 345.706 549.693 346.873 551.522C330.535 559.538 315.046 575.656 304.3 590.13C302.348 592.098 293.707 600.598 292.658 602.432C285.666 599.804 281.784 597.998 275.785 593.599C267.702 587.414 256.705 573.296 255.457 562.951C254.456 554.662 256.483 552.304 261.106 546.097Z" fill="#FFFDEE"/>
<path d="M343.358 545.525C344.469 547.432 345.706 549.693 346.873 551.522C330.535 559.538 315.046 575.656 304.3 590.13C302.348 592.098 293.707 600.598 292.658 602.432C285.666 599.804 281.784 597.998 275.785 593.599C282.83 589.113 298.054 573.306 306.548 566.97C319.583 557.247 329.276 553.33 343.358 545.525Z" fill="#EDDBC1"/>
<path d="M645.781 982.165C664.094 976.72 677.116 970.818 694.398 962.944C695.105 980.984 697.281 1007.83 684.107 1021.51C675.247 1030.71 659.645 1036.86 648.009 1042.97C640.674 1046.51 617.041 1051.91 608.08 1054.15C608.981 1037.8 608.107 1026.2 606.527 1010.2L606.101 1008.32C606.431 1002.57 606.727 996.809 606.987 991.048C618.177 989.73 634.908 985.396 645.781 982.165Z" fill="#FFFDEE"/>
<path d="M645.781 982.165C664.094 976.72 677.116 970.818 694.398 962.944C695.105 980.984 697.281 1007.83 684.107 1021.51C675.247 1030.71 659.645 1036.86 648.009 1042.97C656.415 1031.98 650.313 1014.98 649.608 1000.56C648.686 994.043 647.94 988.406 645.781 982.165Z" fill="#EC5450"/>
<path d="M606.987 991.048C618.177 989.73 634.908 985.396 645.781 982.165C647.94 988.406 648.686 994.043 649.608 1000.56C647.484 999.116 645.948 999.637 643.493 1000.14C638.986 1001.05 607.515 1007.89 606.939 1008.87C606.75 1009.19 606.618 1009.83 606.527 1010.2L606.101 1008.32C606.431 1002.57 606.727 996.809 606.987 991.048Z" fill="#EDDBC1"/>
<path d="M809.523 791.789C818.501 799.18 829.84 806.476 839.638 813.009C829.896 833.486 821.576 847.577 803.929 862.86C799.479 861.191 791.393 854.708 786.728 851.917C781.844 848.994 778.497 847.42 773.266 845.027C789.937 829.303 802.143 813.868 809.523 791.789Z" fill="#FFFDEE"/>
<path d="M770.792 549.163C773.377 549.143 777.135 549.082 778.842 551.117C794.459 569.731 768.535 590.712 755.553 601.955C754.442 602.917 754.798 604.586 755.026 605.707C760.55 611.037 772.928 604.171 777.858 612.503C778.439 617.691 773.527 625.582 768.811 627.725C764.398 621.293 732.549 576.568 732.304 574.952C731.906 572.334 733.233 569.163 734.672 567.039C742.636 555.285 757.818 551.856 770.792 549.163Z" fill="#FFFDEE"/>
<path d="M529.012 766.908C544.077 758.596 567.412 759.998 582.708 767.057C584.179 779.44 585.563 785.697 590.173 797.449C573.197 791.787 567.665 790.63 549.516 793.931C544.784 791.289 528.705 788.73 522.951 787.841C526.121 779.884 526.617 773.874 529.012 766.908Z" fill="#EDDBC1"/>
<path d="M232.216 722.545C248.741 719.41 280.319 724.297 296.673 729.9C295.036 735.625 295.645 741.319 291.152 744.626C286.713 745.917 280.017 743.784 275.231 742.702C257.298 739.372 239.15 736.73 220.93 738.653C217.201 739.046 211.702 741.333 208.259 739.958L207.795 738.471C210.196 723.208 219.376 724.081 232.216 722.545Z" fill="#F7B524"/>
<path d="M549.616 730.828C563.312 730.828 573.099 733.359 585.419 738.777C585.008 755.138 578.631 750.234 565.616 747.954C551.846 746.684 542.574 746.405 529.313 751.386C527.867 731.009 529.582 732.102 549.616 730.828Z" fill="#F7B524"/>
<path d="M817.457 749.073C831.656 749.471 844.326 765.481 834.105 775.968C827.308 775.687 824.508 775.238 819.131 770.752C812.888 765.544 811.748 755.007 817.457 749.073Z" fill="#F7B524"/>
<path d="M460.622 1206.2C467.661 1206.02 481.893 1203.15 482.456 1212.83C482.793 1218.62 481.885 1220.55 478.22 1224.76C462.438 1236.6 460.088 1218.12 460.622 1206.2Z" fill="#EC5450"/>
<path d="M428.3 1201.96C435.529 1202.65 453.302 1202.9 452.407 1213.03C449.794 1215.33 449.117 1216.1 447.432 1219.18C434.618 1231.42 431.157 1221.12 429.973 1209.8C429.666 1206.87 427.856 1207.62 428.3 1201.96Z" fill="#EC5450"/>
<path d="M157.431 959.231C162.957 960.309 166.321 971.323 160.814 975.183C155.735 978.743 150.638 977.42 145.014 976.913C141.371 976.033 139.606 976.236 137.859 972.73C138.572 965.944 151.707 961.416 157.431 959.231Z" fill="#EC5450"/>
<path d="M501.83 1204.48C516.212 1202.75 511.619 1219.95 502.702 1225.32C502.178 1225.35 501.653 1225.37 501.128 1225.37C490.711 1225.49 492.823 1214.65 493.366 1207.51C496.309 1206.72 498.994 1205.59 501.83 1204.48Z" fill="#EC5450"/>
<path d="M406.277 1198.3C408.153 1198.61 410.022 1198.96 411.884 1199.35C422.63 1201.64 423.477 1213.26 415.502 1218.3C400.234 1221.57 399.904 1207.43 406.277 1198.3Z" fill="#EC5450"/>
<path d="M146.559 933.961C152.275 933.635 156.16 933.562 159.606 938.932C161.554 941.969 161.644 945.084 158.559 947.271C156.527 946.945 155.508 946.524 153.618 947.435C147.6 948.664 142.864 947.945 139.799 942.139C139.47 936.924 141.692 935.689 146.559 933.961Z" fill="#EC5450"/>
<path d="M159.741 988.76L160.307 989.203C161.226 992.069 160.752 998.033 160.661 1001.31C157.827 1002.42 155.565 1003.52 152.467 1003.34L147.283 1003.03C136.342 993.056 153.069 989.946 159.741 988.76Z" fill="#EC5450"/>
<path d="M162.53 1017.71L165.249 1018.77C167.457 1022.65 156.13 1033.25 152.955 1035.89C151.622 1035.87 150.577 1035.74 149.261 1035.61L148.456 1034.37C148.29 1031.29 151.223 1026.17 152.697 1023.14C155.666 1020.93 159.192 1019.35 162.53 1017.71Z" fill="#EC5450"/>
<path d="M679.155 74.5278C707.648 70.2269 733.708 81.7174 755.14 99.3639C792.768 65.4992 862.475 79.48 887.693 121.696C893.232 130.967 894.767 138.103 896.938 148.351C923.341 155.083 948.372 166.238 961.085 192.482C974.402 219.972 970.049 260.828 947.945 282.65C940.366 290.132 930.904 293.782 923.815 301.216C921.133 304.8 921.948 322.062 919.124 329.609C912.168 348.196 900.806 362.058 882.633 370.545C855.477 383.228 835.646 378.382 809.463 369.094L805.165 373.294C770.884 411.715 695.993 408.973 667.376 364.717C667.279 364.466 667.182 364.215 667.085 363.964C664.454 363.922 661.107 364.701 658.58 365.348C624.315 374.119 587.264 359.846 572.173 326.731C568.34 318.32 566.882 309.426 565.2 300.049C540.98 287.483 525.086 274.412 519.346 246.128C511.887 209.374 523.765 173.07 555.523 151.445C574.003 138.861 582.59 142.633 602.546 138.579C610.989 99.1569 640.963 78.9472 679.155 74.5278Z" fill="#442926"/>
<path d="M681.983 88.7968C685.017 88.3856 688.075 88.5359 690.923 88.5579C714.085 88.7362 733.111 98.692 749.838 113.882C753.565 117.267 757.232 115.023 761.079 112.535C771.984 105.479 782.429 98.6767 795.459 96.3563C816.004 92.571 837.209 97.1857 854.321 109.166C875.951 124.554 879.485 138.392 883.664 162.326C889.485 162.788 895.224 163.322 900.995 164.332C939.782 171.134 960.996 203.263 953.339 241.545C947.037 273.052 933.048 274.903 910.344 290.472C908.807 307.015 909.263 321.561 899.294 335.877C892.348 345.851 882.61 353.419 871.597 358.448C832.154 376.459 814.705 349.894 802.579 352.159C784.383 381.546 756.531 387.887 724.062 382.754C703.244 379.544 684.558 368.185 672.127 351.183C663.929 352.391 654.27 354.519 646.279 354.552C628.692 354.627 608.366 348.691 595.831 335.916C581.347 321.155 582.733 307.703 582.768 289.167C521.943 274.501 514.352 211.912 554.943 170.172C573.159 151.441 588.742 154.55 611.987 155.021C613.037 154.317 614.211 152.868 614.404 151.631C620.172 114.588 644.655 92.4777 681.983 88.7968Z" fill="#FFFDEE"/>
<path d="M642.329 385.008C689.233 380.682 708.622 440.512 654.652 450.704C634.825 451.749 612.91 443.964 609.559 421.8C608.305 413.516 610.476 405.077 615.573 398.426C622.236 389.756 631.856 386.314 642.329 385.008Z" fill="#442926"/>
<path d="M638.799 399.835C665.236 397.728 688.965 419.967 657.616 435.386C630.76 442.858 607.621 409.816 638.799 399.835Z" fill="#FFFDEE"/>
<path d="M597.628 444.948C625.318 444.905 635.904 479.375 608.373 486.703C576.702 488.549 569.956 451.005 597.628 444.948Z" fill="url(#paint0_linear_21_415)"/>
<path d="M597.438 459.054C602.587 458.743 607.418 459.524 609.959 464.796C610.646 466.215 610.717 467.855 610.157 469.328C609.156 471.903 607.536 472.594 605.165 473.752C595.475 473.829 585.496 466.802 597.438 459.054Z" fill="#FFFDEE"/>
<defs>
<linearGradient id="paint0_linear_21_415" x1="606.924" y1="447.028" x2="597.37" y2="484.172" gradientUnits="userSpaceOnUse">
<stop stop-color="#3B2625"/>
<stop offset="1" stop-color="#5A2F2A"/>
</linearGradient>
</defs>
</svg>
