<svg width="44" height="32" viewBox="0 0 44 32" fill="none" xmlns="http://www.w3.org/2000/svg">
<path d="M13.0592 0.0906606C13.2129 0.0675185 13.3788 0.0712968 13.5341 0.0654981C16.6942 -0.0524606 19.8872 0.0545978 23.0505 0.0531846C26.2116 0.0517714 30.5438 -0.212379 33.5632 0.449866C35.8012 0.940741 38.0874 1.95258 39.778 3.53983C40.0631 3.80515 40.3325 4.08598 40.5859 4.38231C40.8393 4.67864 41.0751 4.98854 41.2933 5.31202C41.5117 5.63548 41.711 5.97042 41.8913 6.31682C42.0716 6.66325 42.2317 7.01888 42.3717 7.38372C43.2285 9.65359 43.2959 12.1842 43.5237 14.581C43.716 16.6003 43.9194 18.6129 43.9904 20.6414C44.0899 23.4783 43.4251 26.0305 41.4719 28.1384C38.7469 31.0792 34.9809 31.8107 31.1626 31.9435L18.9608 31.9541C15.6957 31.9544 11.8805 32.2092 8.69344 31.5148C6.70893 31.0826 4.80485 30.2111 3.25462 28.8729C1.33759 27.2178 0.245135 24.8433 0.0525147 22.3277C-0.148204 19.7064 0.273545 16.9421 0.525188 14.3351C0.713079 12.3886 0.761302 10.3009 1.30515 8.41758C1.72022 6.98019 2.40307 5.58913 3.37324 4.44966C5.82043 1.57541 9.41007 0.372112 13.0592 0.0906606Z" fill="#06324B"/>
<path d="M30.2344 11.7592C30.2798 11.726 30.3259 11.6938 30.3728 11.6627C30.4198 11.6315 30.4674 11.6014 30.5156 11.5724C30.5637 11.5434 30.6124 11.5154 30.6619 11.4886C30.7113 11.4618 30.7613 11.436 30.8118 11.4114C30.8625 11.3868 30.9137 11.3634 30.9652 11.3411C31.0168 11.3187 31.0689 11.2976 31.1215 11.2776C31.1739 11.2576 31.2268 11.2388 31.2801 11.2212C31.3336 11.2036 31.3874 11.1872 31.4414 11.1719C31.4954 11.1567 31.5498 11.1427 31.6045 11.13C31.6592 11.1172 31.7142 11.1056 31.7695 11.0953C31.8247 11.085 31.8801 11.0759 31.9357 11.0681C31.9913 11.0603 32.0471 11.0537 32.103 11.0483C32.1588 11.043 32.2148 11.0389 32.2709 11.0361C32.327 11.0332 32.3831 11.0316 32.4393 11.0313C32.4954 11.031 32.5515 11.0319 32.6076 11.0341C32.6638 11.0363 32.7198 11.0397 32.7757 11.0444C32.8317 11.0491 32.8876 11.0551 32.9433 11.0623C32.9989 11.0694 33.0544 11.0779 33.1099 11.0876C33.1651 11.0973 33.2202 11.1082 33.2751 11.1203C33.3298 11.1325 33.3843 11.1458 33.4387 11.1604C33.4929 11.175 33.5467 11.1908 33.6002 11.2078C33.6539 11.2248 33.7071 11.243 33.7599 11.2623C33.8126 11.2817 33.8648 11.3023 33.9167 11.324C33.9686 11.3457 34.0199 11.3686 34.0706 11.3926C34.1215 11.4166 34.1718 11.4417 34.2216 11.468C34.2713 11.4943 34.3204 11.5216 34.369 11.5501C34.4176 11.5786 34.4654 11.6081 34.5126 11.6387C34.5598 11.6693 34.6064 11.701 34.6523 11.7337C34.6981 11.7664 34.7432 11.8001 34.7875 11.8348C34.8319 11.8695 34.8755 11.9052 34.9183 11.9419C34.9611 11.9785 35.003 12.0161 35.044 12.0546C35.0851 12.0932 35.1253 12.1326 35.1648 12.173C35.2043 12.2133 35.2427 12.2545 35.2803 12.2966C35.3178 12.3386 35.3544 12.3815 35.39 12.4252C35.4258 12.4689 35.4605 12.5134 35.4942 12.5586C35.5278 12.6039 35.5606 12.6499 35.5923 12.6966C35.624 12.7433 35.6546 12.7907 35.6841 12.8388C35.7138 12.8869 35.7423 12.9356 35.7699 12.985C35.7972 13.0344 35.8235 13.0843 35.8488 13.1349C35.8741 13.1854 35.8982 13.2365 35.9212 13.2881C35.9443 13.3398 35.9662 13.3919 35.9869 13.4445C36.0076 13.4971 36.0271 13.5501 36.0453 13.6036C36.0637 13.6571 36.0809 13.7109 36.0969 13.7652C36.113 13.8194 36.1278 13.874 36.1414 13.9289C36.155 13.9838 36.1674 14.039 36.1784 14.0945C36.1897 14.15 36.1996 14.2056 36.2082 14.2615C36.2169 14.3175 36.2245 14.3735 36.2308 14.4298C36.2369 14.486 36.2418 14.5424 36.2455 14.5988C36.2494 14.6553 36.2519 14.7118 36.2532 14.7684C36.2544 14.825 36.2544 14.8816 36.2532 14.9381C36.2519 14.9947 36.2495 15.0513 36.2458 15.1077C36.2421 15.1642 36.2371 15.2205 36.2308 15.2768C36.2247 15.333 36.2172 15.3891 36.2084 15.445C36.1998 15.5009 36.1899 15.5566 36.1787 15.6121C36.1677 15.6676 36.1554 15.7228 36.1419 15.7777C36.1282 15.8326 36.1134 15.8872 36.0974 15.9414C36.0815 15.9957 36.0644 16.0496 36.0461 16.1031C36.0277 16.1566 36.0081 16.2096 35.9874 16.2622C35.9668 16.3148 35.9449 16.367 35.9219 16.4186C35.899 16.4702 35.8748 16.5213 35.8496 16.5719C35.8243 16.6225 35.798 16.6724 35.7707 16.7218C35.7433 16.7712 35.7148 16.8199 35.6852 16.868C35.6555 16.9161 35.6249 16.9635 35.5934 17.0103C35.5616 17.057 35.5289 17.103 35.4952 17.1483C35.4615 17.1936 35.4269 17.238 35.3913 17.2818C35.3555 17.3255 35.3189 17.3684 35.2813 17.4105C35.2438 17.4525 35.2054 17.4938 35.1661 17.5341C35.1266 17.5745 35.0864 17.6139 35.0454 17.6525C35.0041 17.6911 34.9622 17.7287 34.9196 17.7654C34.8768 17.802 34.8332 17.8377 34.7888 17.8725C34.7445 17.9072 34.6994 17.9409 34.6536 17.9736C34.6078 18.0064 34.5613 18.038 34.5139 18.0686C34.4667 18.0993 34.419 18.1288 34.3705 18.1573C34.322 18.1858 34.2728 18.2132 34.223 18.2395C34.1733 18.2658 34.1231 18.2909 34.0722 18.315C34.0213 18.339 33.97 18.3619 33.9183 18.3837C33.8664 18.4054 33.814 18.426 33.7612 18.4454C33.7085 18.4648 33.6553 18.483 33.6018 18.5C33.5483 18.517 33.4944 18.5328 33.44 18.5474C33.3858 18.562 33.3313 18.5754 33.2764 18.5876C33.2217 18.5998 33.1666 18.6107 33.1112 18.6204C33.0559 18.6301 33.0004 18.6386 32.9446 18.6458C32.889 18.653 32.8333 18.659 32.7773 18.6637C32.7214 18.6684 32.6653 18.6719 32.6092 18.6741C32.5531 18.6763 32.497 18.6772 32.4408 18.6769C32.3847 18.6766 32.3286 18.6751 32.2725 18.6722C32.2163 18.6694 32.1603 18.6654 32.1044 18.66C32.0484 18.6547 31.9926 18.6482 31.937 18.6403C31.8814 18.6325 31.826 18.6235 31.7708 18.6132C31.7157 18.6029 31.6608 18.5913 31.6061 18.5786C31.5514 18.5658 31.4969 18.5518 31.4427 18.5366C31.3887 18.5215 31.335 18.5051 31.2817 18.4875C31.2282 18.4699 31.1752 18.4511 31.1228 18.4311C31.0702 18.4112 31.0181 18.39 30.9665 18.3677C30.915 18.3454 30.8638 18.322 30.8132 18.2974C30.7626 18.2728 30.7127 18.2471 30.6632 18.2203C30.6137 18.1935 30.5649 18.1655 30.5167 18.1365C30.4684 18.1075 30.4209 18.0774 30.3741 18.0463C30.3272 18.0152 30.281 17.983 30.2354 17.9498C30.19 17.9166 30.1453 17.8824 30.1013 17.8472C30.0574 17.812 30.0143 17.7758 29.9718 17.7387C29.9296 17.7015 29.8881 17.6635 29.8474 17.6245C29.8067 17.5855 29.7669 17.5456 29.7279 17.5048C29.689 17.464 29.6509 17.4224 29.6138 17.3799C29.5766 17.3374 29.5405 17.2941 29.5054 17.25C29.4701 17.2059 29.4359 17.1611 29.4028 17.1155C29.3695 17.0698 29.3373 17.0235 29.3062 16.9764C29.275 16.9293 29.2448 16.8816 29.2157 16.8332C29.1866 16.7847 29.1586 16.7357 29.1318 16.686C29.105 16.6364 29.0792 16.5861 29.0545 16.5353C29.0297 16.4845 29.0061 16.4331 28.9837 16.3812C28.9612 16.3293 28.9399 16.277 28.9198 16.2241C28.8998 16.1713 28.8808 16.118 28.8629 16.0644C28.8452 16.0107 28.8286 15.9566 28.8132 15.9022C28.7978 15.8478 28.7836 15.7931 28.7706 15.738C28.7576 15.6829 28.7459 15.6276 28.7353 15.572C28.7248 15.5164 28.7155 15.4606 28.7074 15.4046C28.6994 15.3486 28.6925 15.2925 28.6869 15.2362C28.6813 15.1799 28.6769 15.1235 28.6738 15.067C28.6706 15.0104 28.6688 14.9539 28.6682 14.8973C28.6675 14.8407 28.6682 14.7841 28.6701 14.7276C28.6718 14.671 28.6749 14.6145 28.6793 14.5581C28.6837 14.5017 28.6893 14.4454 28.6961 14.3892C28.703 14.333 28.711 14.277 28.7203 14.2212C28.7296 14.1654 28.7402 14.1098 28.7519 14.0545C28.7637 13.9991 28.7766 13.9441 28.7906 13.8893C28.8048 13.8346 28.8202 13.7802 28.8369 13.7261C28.8534 13.672 28.8711 13.6183 28.89 13.5651C28.954 13.3849 29.031 13.2106 29.121 13.0421C29.211 12.8737 29.313 12.7129 29.427 12.5598C29.5408 12.4068 29.6654 12.2632 29.8008 12.129C29.9362 11.9948 30.0807 11.8715 30.2344 11.7592Z" fill="#4DFCFD"/>
<path d="M31.1903 11.8588C31.6433 11.8475 32.023 11.8465 32.3726 12.1834C32.6117 12.4138 32.7104 12.7345 32.7157 13.0619C32.7241 13.5981 32.4947 14.0556 32.125 14.4311C31.7575 14.8042 31.2121 15.1266 30.6762 15.1247C30.3953 15.1237 29.9609 15.022 29.7578 14.8138C29.6976 14.7519 29.6413 14.6767 29.5908 14.6062C29.5718 14.4948 29.56 14.3827 29.5552 14.2698C29.5503 14.1569 29.5526 14.0441 29.5621 13.9315C29.5716 13.8189 29.588 13.7074 29.6115 13.5969C29.6349 13.4864 29.6651 13.3779 29.7023 13.2712C29.977 12.5023 30.51 12.1817 31.1903 11.8588Z" fill="#FEFEFE"/>
<path d="M9.39351 11.7083C9.44222 11.6744 9.49169 11.6417 9.54192 11.6101C9.59215 11.5785 9.64309 11.5481 9.69474 11.519C9.74639 11.4898 9.79869 11.4618 9.85162 11.4351C9.90457 11.4084 9.9581 11.383 10.0122 11.3588C10.0664 11.3346 10.121 11.3117 10.1762 11.2902C10.2314 11.2686 10.2871 11.2483 10.3432 11.2293C10.3993 11.2103 10.4559 11.1927 10.5128 11.1764C10.5698 11.1601 10.6271 11.1452 10.6847 11.1316C10.7424 11.118 10.8003 11.1058 10.8585 11.095C10.9167 11.0841 10.9752 11.0746 11.0339 11.0665C11.0925 11.0584 11.1513 11.0517 11.2103 11.0464C11.2693 11.0411 11.3283 11.0372 11.3875 11.0347C11.4466 11.0321 11.5058 11.031 11.565 11.0313C11.6242 11.0316 11.6834 11.0332 11.7425 11.0363C11.8016 11.0394 11.8606 11.0438 11.9195 11.0497C11.9785 11.0555 12.0372 11.0628 12.0958 11.0714C12.1544 11.08 12.2127 11.09 12.2709 11.1014C12.329 11.1128 12.3868 11.1256 12.4443 11.1397C12.5018 11.1538 12.559 11.1692 12.6158 11.1861C12.6726 11.2029 12.729 11.221 12.785 11.2405C12.8409 11.26 12.8964 11.2808 12.9514 11.3029C13.0064 11.325 13.0608 11.3484 13.1148 11.373C13.1686 11.3977 13.2219 11.4236 13.2747 11.4508C13.3274 11.478 13.3794 11.5064 13.4308 11.5361C13.4822 11.5657 13.5328 11.5966 13.5828 11.6286C13.6327 11.6606 13.6819 11.6938 13.7303 11.7282C13.7787 11.7625 13.8263 11.798 13.873 11.8347C13.9198 11.8713 13.9656 11.909 14.0107 11.9477C14.0556 11.9865 14.0997 12.0263 14.1428 12.0672C14.186 12.108 14.2282 12.1499 14.2694 12.1927C14.3106 12.2356 14.3508 12.2794 14.3899 12.3241C14.4291 12.3689 14.4672 12.4145 14.5042 12.4611C14.5413 12.5076 14.5772 12.555 14.6121 12.6033C14.6469 12.6515 14.6806 12.7005 14.7132 12.7504C14.7457 12.8002 14.7771 12.8508 14.8073 12.9021C14.8375 12.9534 14.8665 13.0054 14.8943 13.0581C14.9221 13.1108 14.9486 13.1641 14.974 13.2181C14.9993 13.272 15.0233 13.3265 15.0461 13.3816C15.0689 13.4367 15.0903 13.4923 15.1105 13.5484C15.1307 13.6044 15.1496 13.661 15.1672 13.718C15.1847 13.7749 15.2009 13.8323 15.2158 13.8901C15.2307 13.9478 15.2443 14.0059 15.2564 14.0643C15.2687 14.1227 15.2795 14.1813 15.2889 14.2402C15.2984 14.2991 15.3065 14.3582 15.3132 14.4175C15.3199 14.4768 15.3253 14.5362 15.3292 14.5957C15.3332 14.6553 15.3358 14.7148 15.337 14.7745C15.3381 14.8342 15.3379 14.8938 15.3363 14.9535C15.3347 15.0131 15.3318 15.0727 15.3274 15.1322C15.3231 15.1917 15.3173 15.2511 15.3102 15.3103C15.3031 15.3696 15.2946 15.4286 15.2847 15.4874C15.2749 15.5463 15.2636 15.6048 15.2511 15.6631C15.2385 15.7214 15.2245 15.7794 15.2092 15.8371C15.1939 15.8947 15.1773 15.952 15.1594 16.0088C15.1414 16.0657 15.1222 16.1221 15.1016 16.178C15.0811 16.234 15.0592 16.2894 15.036 16.3443C15.0129 16.3993 14.9885 16.4536 14.9628 16.5074C14.9371 16.5611 14.9102 16.6143 14.8821 16.6668C14.8539 16.7193 14.8246 16.7711 14.794 16.8222C14.7635 16.8733 14.7317 16.9236 14.6988 16.9733C14.666 17.0229 14.6319 17.0717 14.5968 17.1197C14.5616 17.1677 14.5253 17.2148 14.488 17.2611C14.4506 17.3074 14.4122 17.3528 14.3727 17.3973C14.3333 17.4418 14.2928 17.4853 14.2513 17.5278C14.2098 17.5704 14.1674 17.612 14.1239 17.6525C14.0805 17.6931 14.0362 17.7326 13.9909 17.7711C13.9456 17.8095 13.8995 17.8469 13.8525 17.8832C13.8055 17.9195 13.7577 17.9546 13.7091 17.9886C13.6604 18.0227 13.611 18.0555 13.5609 18.0872C13.5107 18.1189 13.4599 18.1494 13.4083 18.1787C13.3567 18.208 13.3045 18.2361 13.2516 18.2629C13.1987 18.2897 13.1452 18.3153 13.0911 18.3396C13.0371 18.3639 12.9824 18.3869 12.9273 18.4086C12.8722 18.4303 12.8165 18.4507 12.7605 18.4698C12.7044 18.4889 12.6479 18.5067 12.591 18.5231C12.534 18.5395 12.4768 18.5546 12.4191 18.5683C12.3615 18.582 12.3036 18.5944 12.2454 18.6054C12.1872 18.6164 12.1288 18.626 12.0702 18.6342C12.0115 18.6424 11.9527 18.6493 11.8938 18.6547C11.8348 18.6601 11.7758 18.6642 11.7166 18.6668C11.6575 18.6695 11.5983 18.6708 11.5391 18.6706C11.4799 18.6705 11.4207 18.669 11.3616 18.666C11.3025 18.6631 11.2435 18.6588 11.1845 18.6531C11.1256 18.6473 11.0668 18.6402 11.0082 18.6317C10.9496 18.6233 10.8912 18.6134 10.8331 18.6021C10.775 18.5909 10.7171 18.5783 10.6595 18.5643C10.602 18.5503 10.5448 18.5349 10.488 18.5183C10.4311 18.5016 10.3747 18.4836 10.3187 18.4642C10.2627 18.4449 10.2071 18.4242 10.1521 18.4022C10.0971 18.3803 10.0426 18.357 9.9886 18.3324C9.93464 18.3079 9.88128 18.2821 9.82852 18.255C9.77576 18.228 9.72365 18.1997 9.6722 18.1701C9.62075 18.1406 9.57002 18.1099 9.52 18.0779C9.46998 18.046 9.42073 18.0129 9.37226 17.9787C9.32378 17.9444 9.27613 17.909 9.2293 17.8725C9.18247 17.836 9.13651 17.7985 9.09142 17.7598C9.04632 17.7211 9.00216 17.6814 8.95893 17.6406C8.91569 17.5999 8.87343 17.5581 8.83212 17.5154C8.79082 17.4726 8.75053 17.4289 8.71126 17.3842C8.67201 17.3396 8.63381 17.294 8.59666 17.2476C8.55952 17.2011 8.52347 17.1538 8.48851 17.1056C8.45357 17.0575 8.41977 17.0085 8.38709 16.9587C8.35442 16.909 8.32292 16.8585 8.29259 16.8072C8.26227 16.756 8.23316 16.704 8.20525 16.6514C8.17735 16.5988 8.15068 16.5455 8.12525 16.4917C8.09982 16.4378 8.07566 16.3833 8.05277 16.3283C8.02986 16.2733 8.00826 16.2177 7.98795 16.1617C7.96762 16.1056 7.94862 16.0491 7.93094 15.9922C7.91324 15.9352 7.89689 15.8779 7.88187 15.8202C7.86684 15.7625 7.85316 15.7044 7.84083 15.6461C7.82852 15.5877 7.81756 15.5291 7.80795 15.4702C7.79835 15.4113 7.79013 15.3523 7.78327 15.293C7.77643 15.2337 7.77097 15.1743 7.76688 15.1148C7.76277 15.0553 7.76006 14.9957 7.75875 14.936C7.75743 14.8764 7.7575 14.8167 7.75896 14.7571C7.76042 14.6974 7.76326 14.6378 7.76748 14.5783C7.77171 14.5188 7.77731 14.4594 7.7843 14.4002C7.79129 14.3409 7.79966 14.2819 7.80939 14.223C7.81911 14.1642 7.8302 14.1056 7.84267 14.0472C7.85512 13.9889 7.86893 13.9309 7.88408 13.8732C7.89924 13.8155 7.91572 13.7582 7.93354 13.7013C7.95136 13.6444 7.9705 13.588 7.99095 13.532C8.01138 13.476 8.03311 13.4205 8.05614 13.3655C8.07917 13.3105 8.10346 13.2561 8.12901 13.2023C8.15456 13.1485 8.18136 13.0953 8.20938 13.0428C8.23741 12.9902 8.26664 12.9383 8.29707 12.8871C8.32751 12.836 8.35913 12.7855 8.39191 12.7358C8.42469 12.6862 8.45861 12.6373 8.49367 12.5892C8.52873 12.5411 8.56488 12.4939 8.60214 12.4475C8.83077 12.1629 9.09456 11.9165 9.39351 11.7083Z" fill="#4DFCFD"/>
<path d="M8.48242 13.8522C8.59323 13.4211 8.70733 13.0038 8.98296 12.6443C9.46085 12.0209 10.1963 11.9265 10.9175 11.832C11.3214 12.023 11.5924 12.2842 11.7452 12.718C11.8725 13.0796 11.8008 13.5232 11.637 13.8611C11.3727 14.4064 10.8339 14.7966 10.2743 14.9889C9.9124 15.1133 9.47287 15.1739 9.11832 14.9934C8.81369 14.8383 8.65456 14.5639 8.5554 14.2447C8.51562 14.1167 8.49594 13.9854 8.48242 13.8522Z" fill="#FEFEFE"/>
<path d="M17.3684 21.0898C17.6362 21.1387 17.8465 21.2105 18.0421 21.4077C18.2316 21.5987 18.3532 21.8734 18.483 22.1085C18.9753 22.9998 19.4986 23.7114 20.4423 24.1548C22.0615 24.9155 23.8589 24.3886 24.946 23.0108C25.3711 22.472 25.7249 21.3755 26.3974 21.14C26.5697 21.0796 26.7625 21.0816 26.9272 21.1638C27.1714 21.2855 27.5307 21.4923 27.6139 21.7748C27.8254 22.4914 27.4284 23.1327 27.0959 23.7314C26.173 25.125 25.053 26.1047 23.4023 26.4953C23.3052 26.5179 23.2076 26.5382 23.1096 26.556C23.0115 26.5737 22.9131 26.5891 22.8143 26.6021C22.7154 26.6151 22.6164 26.6255 22.517 26.6334C22.4177 26.6416 22.3183 26.6472 22.2187 26.6504C22.1191 26.6536 22.0195 26.6543 21.9198 26.6525C21.8202 26.6508 21.7207 26.6465 21.6212 26.6398C21.5218 26.6331 21.4226 26.6239 21.3236 26.6122C21.2246 26.6007 21.126 26.5868 21.0277 26.5703C20.9294 26.5539 20.8316 26.535 20.7342 26.5136C20.6368 26.4924 20.54 26.4688 20.4438 26.4428C20.3475 26.4166 20.252 26.3882 20.1571 26.3574C20.0623 26.3267 19.9682 26.2936 19.875 26.2583C19.7817 26.2227 19.6894 26.185 19.598 26.145C19.5066 26.1051 19.4162 26.0628 19.3268 26.0183C19.2375 25.9739 19.1493 25.9273 19.0622 25.8786C18.9751 25.8298 18.8892 25.7789 18.8046 25.7258C17.7666 25.0752 16.6729 23.7778 16.3981 22.5577C16.3276 22.2446 16.3319 21.9005 16.508 21.6218C16.7056 21.3088 17.0228 21.1693 17.3684 21.0898Z" fill="#FEFEFE"/>
</svg>
